<?xml version="1.0" encoding="utf-8" standalone="no"?>
<!DOCTYPE svg PUBLIC "-//W3C//DTD SVG 1.1//EN"
  "http://www.w3.org/Graphics/SVG/1.1/DTD/svg11.dtd">
<!-- Created with matplotlib (https://matplotlib.org/) -->
<svg height="95.223125pt" version="1.1" viewBox="0 0 232.128 95.223125" width="232.128pt" xmlns="http://www.w3.org/2000/svg" xmlns:xlink="http://www.w3.org/1999/xlink">
 <defs>
  <style type="text/css">
*{stroke-linecap:butt;stroke-linejoin:round;}
  </style>
 </defs>
 <g id="figure_1">
  <g id="patch_1">
   <path d="M 0 95.223125 
L 232.128 95.223125 
L 232.128 0 
L 0 0 
z
" style="fill:#ffffff;"/>
  </g>
  <g id="axes_1">
   <g id="line2d_1">
    <path clip-path="url(#p463cb60e09)" d="M 18.864 23.304125 
L 38.304 23.304125 
L 39.924 18.714125 
L 43.164 27.894125 
L 46.404 18.714125 
L 49.644 27.894125 
L 52.884 18.714125 
L 56.124 27.894125 
L 57.744 23.304125 
L 77.184 23.304125 
" style="fill:none;stroke:#000000;stroke-linecap:round;"/>
   </g>
   <g id="line2d_2">
    <path clip-path="url(#p463cb60e09)" d="M 77.184 23.304125 
L 82.044 23.304125 
L 86.904 23.304125 
" style="fill:none;stroke:#000000;stroke-linecap:round;"/>
   </g>
   <g id="line2d_3">
    <path clip-path="url(#p463cb60e09)" d="M 86.904 23.304125 
L 114.3144 23.304125 
M 114.3144 18.714125 
L 114.3144 27.894125 
M 117.8136 18.714125 
L 117.8136 27.894125 
M 117.8136 23.304125 
L 145.224 23.304125 
" style="fill:none;stroke:#000000;stroke-linecap:round;"/>
   </g>
   <g id="line2d_4">
    <path clip-path="url(#p463cb60e09)" d="M 86.904 23.304125 
L 86.904 37.074125 
L 86.904 50.844125 
" style="fill:none;stroke:#000000;stroke-linecap:round;"/>
   </g>
   <g id="line2d_5">
    <path clip-path="url(#p463cb60e09)" d="M 86.904 50.844125 
L 106.344 50.844125 
L 107.964 46.254125 
L 111.204 55.434125 
L 114.444 46.254125 
L 117.684 55.434125 
L 120.924 46.254125 
L 124.164 55.434125 
L 125.784 50.844125 
L 145.224 50.844125 
" style="fill:none;stroke:#000000;stroke-linecap:round;"/>
   </g>
   <g id="line2d_6">
    <path clip-path="url(#p463cb60e09)" d="M 145.224 50.844125 
L 150.084 50.844125 
L 154.944 50.844125 
" style="fill:none;stroke:#000000;stroke-linecap:round;"/>
   </g>
   <g id="line2d_7">
    <path clip-path="url(#p463cb60e09)" d="M 154.944 50.844125 
L 182.3544 50.844125 
M 182.3544 46.254125 
L 182.3544 55.434125 
M 185.8536 46.254125 
L 185.8536 55.434125 
M 185.8536 50.844125 
L 213.264 50.844125 
" style="fill:none;stroke:#000000;stroke-linecap:round;"/>
   </g>
   <g id="line2d_8">
    <path clip-path="url(#p463cb60e09)" d="M 154.944 50.844125 
L 154.944 64.614125 
L 154.944 78.384125 
" style="fill:none;stroke:#000000;stroke-linecap:round;"/>
   </g>
   <g id="line2d_9">
    <path clip-path="url(#p463cb60e09)" d="M 154.944 78.384125 
L 174.384 78.384125 
L 176.004 73.794125 
L 179.244 82.974125 
L 182.484 73.794125 
L 185.724 82.974125 
L 188.964 73.794125 
L 192.204 82.974125 
L 193.824 78.384125 
L 213.264 78.384125 
" style="fill:none;stroke:#000000;stroke-linecap:round;"/>
   </g>
   <g id="line2d_10">
    <path clip-path="url(#p463cb60e09)" d="M 213.264 78.384125 
L 213.264 64.614125 
L 213.264 50.844125 
" style="fill:none;stroke:#000000;stroke-linecap:round;"/>
   </g>
   <g id="line2d_11">
    <path clip-path="url(#p463cb60e09)" d="M 213.264 50.844125 
L 213.264 50.844125 
L 213.264 50.844125 
" style="fill:none;stroke:#000000;stroke-linecap:round;"/>
   </g>
   <g id="line2d_12">
    <path clip-path="url(#p463cb60e09)" d="M 213.264 50.844125 
L 213.264 37.074125 
L 213.264 23.304125 
" style="fill:none;stroke:#000000;stroke-linecap:round;"/>
   </g>
   <g id="line2d_13">
    <path clip-path="url(#p463cb60e09)" d="M 145.224 23.304125 
L 179.244 23.304125 
L 213.264 23.304125 
" style="fill:none;stroke:#000000;stroke-linecap:round;"/>
   </g>
   <g id="text_1">
    <!-- R$\rm _{S}$ -->
    <defs>
     <path d="M 44.390625 34.1875 
Q 47.5625 33.109375 50.5625 29.59375 
Q 53.5625 26.078125 56.59375 19.921875 
L 66.609375 0 
L 56 0 
L 46.6875 18.703125 
Q 43.0625 26.03125 39.671875 28.421875 
Q 36.28125 30.8125 30.421875 30.8125 
L 19.671875 30.8125 
L 19.671875 0 
L 9.8125 0 
L 9.8125 72.90625 
L 32.078125 72.90625 
Q 44.578125 72.90625 50.734375 67.671875 
Q 56.890625 62.453125 56.890625 51.90625 
Q 56.890625 45.015625 53.6875 40.46875 
Q 50.484375 35.9375 44.390625 34.1875 
z
M 19.671875 64.796875 
L 19.671875 38.921875 
L 32.078125 38.921875 
Q 39.203125 38.921875 42.84375 42.21875 
Q 46.484375 45.515625 46.484375 51.90625 
Q 46.484375 58.296875 42.84375 61.546875 
Q 39.203125 64.796875 32.078125 64.796875 
z
" id="DejaVuSans-82"/>
     <path d="M 44.90625 47.703125 
L 43 47.703125 
Q 40.59375 53.703125 35.796875 56.84375 
Q 31 60 25.203125 60 
Q 20.59375 60 17.59375 57.203125 
Q 14.59375 54.40625 14.59375 50.5 
Q 14.59375 43.5 28.703125 37.796875 
Q 39.40625 33.59375 43.75 28.84375 
Q 48.09375 24.09375 48.09375 16.796875 
Q 48.09375 9.40625 42.40625 4.09375 
Q 36.296875 -1.40625 25.796875 -1.40625 
Q 11.203125 -1.40625 4.5 7 
L 3.203125 20.5 
L 5 20.5 
Q 8.296875 13.203125 14 9.703125 
Q 19.703125 6.203125 25.40625 6.203125 
Q 31.703125 6.203125 35.453125 8.84375 
Q 39.203125 11.5 39.203125 15.796875 
Q 39.203125 20.296875 36.203125 23.296875 
Q 33.203125 26.296875 26.40625 29.09375 
Q 15.5 33.5 10.796875 38.25 
Q 6.09375 43 6.09375 50.09375 
Q 6.09375 58 11.59375 62.796875 
Q 17.09375 67.59375 25.703125 67.59375 
Q 38.09375 67.59375 44.90625 59.59375 
z
" id="STIXGeneral-Regular-120242"/>
    </defs>
    <g transform="translate(42.474 14.798438)scale(0.1 -0.1)">
     <use transform="translate(0 0.09375)" xlink:href="#DejaVuSans-82"/>
     <use transform="translate(70.275117 -13.495312)scale(0.7)" xlink:href="#STIXGeneral-Regular-120242"/>
    </g>
   </g>
   <g id="text_2">
    <!-- Q$\rm _{SC}$ -->
    <defs>
     <path d="M 39.40625 66.21875 
Q 28.65625 66.21875 22.328125 58.203125 
Q 16.015625 50.203125 16.015625 36.375 
Q 16.015625 22.609375 22.328125 14.59375 
Q 28.65625 6.59375 39.40625 6.59375 
Q 50.140625 6.59375 56.421875 14.59375 
Q 62.703125 22.609375 62.703125 36.375 
Q 62.703125 50.203125 56.421875 58.203125 
Q 50.140625 66.21875 39.40625 66.21875 
z
M 53.21875 1.3125 
L 66.21875 -12.890625 
L 54.296875 -12.890625 
L 43.5 -1.21875 
Q 41.890625 -1.3125 41.03125 -1.359375 
Q 40.1875 -1.421875 39.40625 -1.421875 
Q 24.03125 -1.421875 14.8125 8.859375 
Q 5.609375 19.140625 5.609375 36.375 
Q 5.609375 53.65625 14.8125 63.9375 
Q 24.03125 74.21875 39.40625 74.21875 
Q 54.734375 74.21875 63.90625 63.9375 
Q 73.09375 53.65625 73.09375 36.375 
Q 73.09375 23.6875 67.984375 14.640625 
Q 62.890625 5.609375 53.21875 1.3125 
z
" id="DejaVuSans-81"/>
     <path d="M 58.59375 17 
L 63.703125 11.90625 
Q 53.40625 -1.40625 36.40625 -1.40625 
Q 20.703125 -1.40625 11.703125 8.25 
Q 2.703125 17.90625 2.703125 33.296875 
Q 2.703125 48.09375 12.046875 57.84375 
Q 21.40625 67.59375 36.296875 67.59375 
Q 43.796875 67.59375 50.6875 64.640625 
Q 57.59375 61.703125 61.703125 55.40625 
L 61.703125 45.296875 
L 59.796875 45.296875 
Q 56.5 53.296875 50.140625 56.640625 
Q 43.796875 60 36.40625 60 
Q 25.296875 60 18.4375 52.453125 
Q 11.59375 44.90625 11.59375 33.5 
Q 11.59375 21.09375 18.296875 13.640625 
Q 25 6.203125 36.703125 6.203125 
Q 49 6.203125 58.59375 17 
z
" id="STIXGeneral-Regular-120226"/>
    </defs>
    <g transform="translate(107.714 14.798438)scale(0.1 -0.1)">
     <use transform="translate(0 0.78125)" xlink:href="#DejaVuSans-81"/>
     <use transform="translate(79.503633 -12.807812)scale(0.7)" xlink:href="#STIXGeneral-Regular-120242"/>
     <use transform="translate(117.373626 -12.807812)scale(0.7)" xlink:href="#STIXGeneral-Regular-120226"/>
    </g>
   </g>
   <g id="text_3">
    <!-- R$\rm _{Bulk}$ -->
    <defs>
     <path d="M 7.40625 66.203125 
L 27.90625 66.203125 
Q 51.09375 66.203125 51.09375 49.90625 
Q 51.09375 40.796875 41.90625 36.59375 
Q 54.703125 32.5 54.703125 19.296875 
Q 54.703125 14.09375 51.796875 9.59375 
Q 48.90625 5.09375 44.09375 2.59375 
Q 38.90625 0 31.40625 0 
L 7.40625 0 
z
M 16.09375 39.40625 
L 25.09375 39.40625 
Q 33.90625 39.40625 38.046875 41.953125 
Q 42.203125 44.5 42.203125 49.90625 
Q 42.203125 54.5 39.046875 56.640625 
Q 35.90625 58.796875 29.09375 58.796875 
L 16.09375 58.796875 
z
M 16.09375 7.40625 
L 28.703125 7.40625 
Q 37.40625 7.40625 41.59375 10.953125 
Q 45.796875 14.5 45.796875 20.203125 
Q 45.796875 23.796875 43.84375 26.546875 
Q 41.90625 29.296875 38.5 30.40625 
Q 34.40625 31.703125 24 31.703125 
L 16.09375 31.703125 
z
" id="STIXGeneral-Regular-120225"/>
     <path d="M 43 1.296875 
L 35.90625 -1.09375 
L 35 -0.59375 
L 34.796875 5.90625 
Q 31.90625 2.703125 27.75 0.84375 
Q 23.59375 -1 19.703125 -1 
Q 13.703125 -1 9 3.5 
Q 6.296875 7 6.296875 13.09375 
L 6.296875 45.296875 
L 14.203125 45.296875 
L 14.203125 14.90625 
Q 14.203125 6.09375 22.40625 6.09375 
Q 25.203125 6.09375 29.09375 9.046875 
Q 33 12 34.5 16.09375 
L 34.5 45.296875 
L 42.40625 45.296875 
L 42.40625 12.796875 
Q 42.40625 6.203125 43 1.296875 
z
" id="STIXGeneral-Regular-120270"/>
     <path d="M 14.40625 0 
L 6.09375 0 
L 6.09375 66 
L 13.5 68.40625 
L 14.40625 67.90625 
z
" id="STIXGeneral-Regular-120261"/>
     <path d="M 45.203125 0 
L 34.90625 0 
L 14.203125 20.703125 
L 14.203125 0 
L 6.296875 0 
L 6.296875 66 
L 13.296875 68.40625 
L 14.203125 67.90625 
L 14.203125 30.296875 
L 34 45.296875 
L 44.40625 45.296875 
L 44.40625 43.90625 
L 19.796875 25.5 
z
" id="STIXGeneral-Regular-120260"/>
    </defs>
    <g transform="translate(106.264 42.338438)scale(0.1 -0.1)">
     <use transform="translate(0 0.09375)" xlink:href="#DejaVuSans-82"/>
     <use transform="translate(70.275117 -13.495312)scale(0.7)" xlink:href="#STIXGeneral-Regular-120225"/>
     <use transform="translate(112.555113 -13.495312)scale(0.7)" xlink:href="#STIXGeneral-Regular-120270"/>
     <use transform="translate(146.925107 -13.495312)scale(0.7)" xlink:href="#STIXGeneral-Regular-120261"/>
     <use transform="translate(161.275096 -13.495312)scale(0.7)" xlink:href="#STIXGeneral-Regular-120260"/>
    </g>
   </g>
   <g id="text_4">
    <!-- Q$\rm _{SS}$ -->
    <g transform="translate(176.204 42.338438)scale(0.1 -0.1)">
     <use transform="translate(0 0.78125)" xlink:href="#DejaVuSans-81"/>
     <use transform="translate(79.503633 -12.807812)scale(0.7)" xlink:href="#STIXGeneral-Regular-120242"/>
     <use transform="translate(117.373626 -12.807812)scale(0.7)" xlink:href="#STIXGeneral-Regular-120242"/>
    </g>
   </g>
   <g id="text_5">
    <!-- R$\rm _{SS}$ -->
    <g transform="translate(176.654 69.878438)scale(0.1 -0.1)">
     <use transform="translate(0 0.09375)" xlink:href="#DejaVuSans-82"/>
     <use transform="translate(70.275117 -13.495312)scale(0.7)" xlink:href="#STIXGeneral-Regular-120242"/>
     <use transform="translate(108.145111 -13.495312)scale(0.7)" xlink:href="#STIXGeneral-Regular-120242"/>
    </g>
   </g>
  </g>
 </g>
 <defs>
  <clipPath id="p463cb60e09">
   <rect height="74.358" width="217.728" x="7.2" y="13.665125"/>
  </clipPath>
 </defs>
</svg>
