<?xml version="1.0" encoding="utf-8" standalone="no"?>
<!DOCTYPE svg PUBLIC "-//W3C//DTD SVG 1.1//EN"
  "http://www.w3.org/Graphics/SVG/1.1/DTD/svg11.dtd">
<!-- Created with matplotlib (https://matplotlib.org/) -->
<svg height="234.583631pt" version="1.1" viewBox="0 0 456.601476 234.583631" width="456.601476pt" xmlns="http://www.w3.org/2000/svg" xmlns:xlink="http://www.w3.org/1999/xlink">
 <defs>
  <style type="text/css">
*{stroke-linecap:butt;stroke-linejoin:round;}
  </style>
 </defs>
 <g id="figure_1">
  <g id="patch_1">
   <path d="M 0 234.583631 
L 456.601476 234.583631 
L 456.601476 0 
L 0 0 
z
" style="fill:#ffffff;"/>
  </g>
  <g id="axes_1">
   <g id="patch_2">
    <path d="M 41.2125 103.943178 
L 222.629823 103.943178 
L 222.629823 7.565225 
L 41.2125 7.565225 
z
" style="fill:#ffffff;"/>
   </g>
   <g id="matplotlib.axis_1"/>
   <g id="matplotlib.axis_2">
    <g id="ytick_1">
     <g id="line2d_1">
      <defs>
       <path d="M 0 0 
L -3.5 0 
" id="m5d8feb763c" style="stroke:#000000;stroke-width:0.8;"/>
      </defs>
      <g>
       <use style="stroke:#000000;stroke-width:0.8;" x="41.2125" xlink:href="#m5d8feb763c" y="99.565112"/>
      </g>
     </g>
     <g id="text_1">
      <!-- 0 -->
      <defs>
       <path d="M 31.78125 66.40625 
Q 24.171875 66.40625 20.328125 58.90625 
Q 16.5 51.421875 16.5 36.375 
Q 16.5 21.390625 20.328125 13.890625 
Q 24.171875 6.390625 31.78125 6.390625 
Q 39.453125 6.390625 43.28125 13.890625 
Q 47.125 21.390625 47.125 36.375 
Q 47.125 51.421875 43.28125 58.90625 
Q 39.453125 66.40625 31.78125 66.40625 
z
M 31.78125 74.21875 
Q 44.046875 74.21875 50.515625 64.515625 
Q 56.984375 54.828125 56.984375 36.375 
Q 56.984375 17.96875 50.515625 8.265625 
Q 44.046875 -1.421875 31.78125 -1.421875 
Q 19.53125 -1.421875 13.0625 8.265625 
Q 6.59375 17.96875 6.59375 36.375 
Q 6.59375 54.828125 13.0625 64.515625 
Q 19.53125 74.21875 31.78125 74.21875 
z
" id="DejaVuSans-48"/>
      </defs>
      <g transform="translate(29.1225 102.604487)scale(0.08 -0.08)">
       <use xlink:href="#DejaVuSans-48"/>
      </g>
     </g>
    </g>
    <g id="ytick_2">
     <g id="line2d_2">
      <g>
       <use style="stroke:#000000;stroke-width:0.8;" x="41.2125" xlink:href="#m5d8feb763c" y="77.233678"/>
      </g>
     </g>
     <g id="text_2">
      <!-- 10 -->
      <defs>
       <path d="M 12.40625 8.296875 
L 28.515625 8.296875 
L 28.515625 63.921875 
L 10.984375 60.40625 
L 10.984375 69.390625 
L 28.421875 72.90625 
L 38.28125 72.90625 
L 38.28125 8.296875 
L 54.390625 8.296875 
L 54.390625 0 
L 12.40625 0 
z
" id="DejaVuSans-49"/>
      </defs>
      <g transform="translate(24.0325 80.273053)scale(0.08 -0.08)">
       <use xlink:href="#DejaVuSans-49"/>
       <use x="63.623047" xlink:href="#DejaVuSans-48"/>
      </g>
     </g>
    </g>
    <g id="ytick_3">
     <g id="line2d_3">
      <g>
       <use style="stroke:#000000;stroke-width:0.8;" x="41.2125" xlink:href="#m5d8feb763c" y="54.902244"/>
      </g>
     </g>
     <g id="text_3">
      <!-- 20 -->
      <defs>
       <path d="M 19.1875 8.296875 
L 53.609375 8.296875 
L 53.609375 0 
L 7.328125 0 
L 7.328125 8.296875 
Q 12.9375 14.109375 22.625 23.890625 
Q 32.328125 33.6875 34.8125 36.53125 
Q 39.546875 41.84375 41.421875 45.53125 
Q 43.3125 49.21875 43.3125 52.78125 
Q 43.3125 58.59375 39.234375 62.25 
Q 35.15625 65.921875 28.609375 65.921875 
Q 23.96875 65.921875 18.8125 64.3125 
Q 13.671875 62.703125 7.8125 59.421875 
L 7.8125 69.390625 
Q 13.765625 71.78125 18.9375 73 
Q 24.125 74.21875 28.421875 74.21875 
Q 39.75 74.21875 46.484375 68.546875 
Q 53.21875 62.890625 53.21875 53.421875 
Q 53.21875 48.921875 51.53125 44.890625 
Q 49.859375 40.875 45.40625 35.40625 
Q 44.1875 33.984375 37.640625 27.21875 
Q 31.109375 20.453125 19.1875 8.296875 
z
" id="DejaVuSans-50"/>
      </defs>
      <g transform="translate(24.0325 57.941619)scale(0.08 -0.08)">
       <use xlink:href="#DejaVuSans-50"/>
       <use x="63.623047" xlink:href="#DejaVuSans-48"/>
      </g>
     </g>
    </g>
    <g id="ytick_4">
     <g id="line2d_4">
      <g>
       <use style="stroke:#000000;stroke-width:0.8;" x="41.2125" xlink:href="#m5d8feb763c" y="32.570809"/>
      </g>
     </g>
     <g id="text_4">
      <!-- 30 -->
      <defs>
       <path d="M 40.578125 39.3125 
Q 47.65625 37.796875 51.625 33 
Q 55.609375 28.21875 55.609375 21.1875 
Q 55.609375 10.40625 48.1875 4.484375 
Q 40.765625 -1.421875 27.09375 -1.421875 
Q 22.515625 -1.421875 17.65625 -0.515625 
Q 12.796875 0.390625 7.625 2.203125 
L 7.625 11.71875 
Q 11.71875 9.328125 16.59375 8.109375 
Q 21.484375 6.890625 26.8125 6.890625 
Q 36.078125 6.890625 40.9375 10.546875 
Q 45.796875 14.203125 45.796875 21.1875 
Q 45.796875 27.640625 41.28125 31.265625 
Q 36.765625 34.90625 28.71875 34.90625 
L 20.21875 34.90625 
L 20.21875 43.015625 
L 29.109375 43.015625 
Q 36.375 43.015625 40.234375 45.921875 
Q 44.09375 48.828125 44.09375 54.296875 
Q 44.09375 59.90625 40.109375 62.90625 
Q 36.140625 65.921875 28.71875 65.921875 
Q 24.65625 65.921875 20.015625 65.03125 
Q 15.375 64.15625 9.8125 62.3125 
L 9.8125 71.09375 
Q 15.4375 72.65625 20.34375 73.4375 
Q 25.25 74.21875 29.59375 74.21875 
Q 40.828125 74.21875 47.359375 69.109375 
Q 53.90625 64.015625 53.90625 55.328125 
Q 53.90625 49.265625 50.4375 45.09375 
Q 46.96875 40.921875 40.578125 39.3125 
z
" id="DejaVuSans-51"/>
      </defs>
      <g transform="translate(24.0325 35.610184)scale(0.08 -0.08)">
       <use xlink:href="#DejaVuSans-51"/>
       <use x="63.623047" xlink:href="#DejaVuSans-48"/>
      </g>
     </g>
    </g>
    <g id="ytick_5">
     <g id="line2d_5">
      <g>
       <use style="stroke:#000000;stroke-width:0.8;" x="41.2125" xlink:href="#m5d8feb763c" y="10.239375"/>
      </g>
     </g>
     <g id="text_5">
      <!-- 40 -->
      <defs>
       <path d="M 37.796875 64.3125 
L 12.890625 25.390625 
L 37.796875 25.390625 
z
M 35.203125 72.90625 
L 47.609375 72.90625 
L 47.609375 25.390625 
L 58.015625 25.390625 
L 58.015625 17.1875 
L 47.609375 17.1875 
L 47.609375 0 
L 37.796875 0 
L 37.796875 17.1875 
L 4.890625 17.1875 
L 4.890625 26.703125 
z
" id="DejaVuSans-52"/>
      </defs>
      <g transform="translate(24.0325 13.27875)scale(0.08 -0.08)">
       <use xlink:href="#DejaVuSans-52"/>
       <use x="63.623047" xlink:href="#DejaVuSans-48"/>
      </g>
     </g>
    </g>
    <g id="text_6">
     <!-- -Im(Z) -->
     <defs>
      <path d="M 4.890625 31.390625 
L 31.203125 31.390625 
L 31.203125 23.390625 
L 4.890625 23.390625 
z
" id="DejaVuSans-45"/>
      <path d="M 9.8125 72.90625 
L 19.671875 72.90625 
L 19.671875 0 
L 9.8125 0 
z
" id="DejaVuSans-73"/>
      <path d="M 52 44.1875 
Q 55.375 50.25 60.0625 53.125 
Q 64.75 56 71.09375 56 
Q 79.640625 56 84.28125 50.015625 
Q 88.921875 44.046875 88.921875 33.015625 
L 88.921875 0 
L 79.890625 0 
L 79.890625 32.71875 
Q 79.890625 40.578125 77.09375 44.375 
Q 74.3125 48.1875 68.609375 48.1875 
Q 61.625 48.1875 57.5625 43.546875 
Q 53.515625 38.921875 53.515625 30.90625 
L 53.515625 0 
L 44.484375 0 
L 44.484375 32.71875 
Q 44.484375 40.625 41.703125 44.40625 
Q 38.921875 48.1875 33.109375 48.1875 
Q 26.21875 48.1875 22.15625 43.53125 
Q 18.109375 38.875 18.109375 30.90625 
L 18.109375 0 
L 9.078125 0 
L 9.078125 54.6875 
L 18.109375 54.6875 
L 18.109375 46.1875 
Q 21.1875 51.21875 25.484375 53.609375 
Q 29.78125 56 35.6875 56 
Q 41.65625 56 45.828125 52.96875 
Q 50 49.953125 52 44.1875 
z
" id="DejaVuSans-109"/>
      <path d="M 31 75.875 
Q 24.46875 64.65625 21.28125 53.65625 
Q 18.109375 42.671875 18.109375 31.390625 
Q 18.109375 20.125 21.3125 9.0625 
Q 24.515625 -2 31 -13.1875 
L 23.1875 -13.1875 
Q 15.875 -1.703125 12.234375 9.375 
Q 8.59375 20.453125 8.59375 31.390625 
Q 8.59375 42.28125 12.203125 53.3125 
Q 15.828125 64.359375 23.1875 75.875 
z
" id="DejaVuSans-40"/>
      <path d="M 5.609375 72.90625 
L 62.890625 72.90625 
L 62.890625 65.375 
L 16.796875 8.296875 
L 64.015625 8.296875 
L 64.015625 0 
L 4.5 0 
L 4.5 7.515625 
L 50.59375 64.59375 
L 5.609375 64.59375 
z
" id="DejaVuSans-90"/>
      <path d="M 8.015625 75.875 
L 15.828125 75.875 
Q 23.140625 64.359375 26.78125 53.3125 
Q 30.421875 42.28125 30.421875 31.390625 
Q 30.421875 20.453125 26.78125 9.375 
Q 23.140625 -1.703125 15.828125 -13.1875 
L 8.015625 -13.1875 
Q 14.5 -2 17.703125 9.0625 
Q 20.90625 20.125 20.90625 31.390625 
Q 20.90625 42.671875 17.703125 53.65625 
Q 14.5 64.65625 8.015625 75.875 
z
" id="DejaVuSans-41"/>
     </defs>
     <g transform="translate(18.36875 68.134827)rotate(-90)scale(0.08 -0.08)">
      <use xlink:href="#DejaVuSans-45"/>
      <use x="36.083984" xlink:href="#DejaVuSans-73"/>
      <use x="65.576172" xlink:href="#DejaVuSans-109"/>
      <use x="162.988281" xlink:href="#DejaVuSans-40"/>
      <use x="202.001953" xlink:href="#DejaVuSans-90"/>
      <use x="270.507812" xlink:href="#DejaVuSans-41"/>
     </g>
    </g>
   </g>
   <g id="line2d_6">
    <path clip-path="url(#p4e63194927)" d="M 49.458742 98.653128 
L 55.260118 98.125521 
L 60.232726 97.437169 
L 64.376567 96.619688 
L 67.691639 95.746925 
L 71.006711 94.618983 
L 73.493015 93.562931 
L 75.979319 92.286291 
L 78.465623 90.745607 
L 80.951927 88.890309 
L 83.438231 86.662383 
L 85.924535 83.996626 
L 87.582072 81.941269 
L 89.239608 79.637798 
L 90.897144 77.064267 
L 92.55468 74.199733 
L 94.212216 71.025619 
L 96.69852 65.654335 
L 99.184824 59.538667 
L 101.671128 52.720567 
L 104.9862 42.782549 
L 109.958808 27.581651 
L 111.616345 23.023818 
L 113.273881 19.028159 
L 114.931417 15.783846 
L 115.760185 14.497003 
L 116.588953 13.457669 
L 117.417721 12.679891 
L 118.246489 12.17396 
L 119.075257 11.946041 
L 119.904025 11.997939 
L 120.732793 12.327023 
L 121.561561 12.926319 
L 122.390329 13.784751 
L 123.219097 14.887527 
L 124.876633 17.751445 
L 126.534169 21.346227 
L 128.191705 25.478291 
L 131.506777 34.582792 
L 135.650618 45.874018 
L 138.136922 51.923272 
L 139.794458 55.518141 
L 141.451994 58.725761 
L 143.10953 61.53369 
L 144.767066 63.943061 
L 146.424602 65.966365 
L 148.082138 67.626183 
L 149.739674 68.954749 
L 151.39721 69.994107 
L 153.054746 70.796438 
L 155.54105 71.693989 
L 160.513659 73.298817 
L 162.171195 74.037603 
L 163.828731 74.961779 
L 165.486267 76.086957 
L 167.972571 78.122256 
L 171.287643 81.275127 
L 176.260251 86.1202 
L 178.746555 88.30215 
L 181.232859 90.231731 
L 183.719164 91.892959 
L 186.205468 93.295827 
L 188.691772 94.464317 
L 191.178076 95.428096 
L 194.493148 96.446863 
L 197.80822 97.221172 
L 201.95206 97.928668 
L 206.924669 98.504282 
L 212.726045 98.926546 
L 214.383581 99.012881 
L 214.383581 99.012881 
" style="fill:none;stroke:#0370b8;stroke-linecap:square;"/>
   </g>
   <g id="line2d_7">
    <path clip-path="url(#p4e63194927)" d="M 49.458742 99.562362 
L 92.55468 99.443397 
L 104.9862 99.202362 
L 112.445113 98.867436 
L 118.246489 98.406347 
L 123.219097 97.778162 
L 127.362937 97.006648 
L 130.678009 96.163107 
L 133.993082 95.054763 
L 136.479386 94.008088 
L 138.96569 92.741994 
L 141.451994 91.227151 
L 143.938298 89.442877 
L 146.424602 87.388185 
L 149.739674 84.296457 
L 154.712282 79.49757 
L 156.369818 78.113633 
L 158.027355 76.978362 
L 159.684891 76.1747 
L 161.342427 75.767423 
L 162.999963 75.791332 
L 164.657499 76.244346 
L 166.315035 77.087929 
L 167.972571 78.254684 
L 170.458875 80.425378 
L 178.746555 88.254529 
L 181.232859 90.201097 
L 183.719164 91.874344 
L 186.205468 93.284929 
L 188.691772 94.458098 
L 191.178076 95.42461 
L 194.493148 96.445283 
L 197.80822 97.220467 
L 201.95206 97.928414 
L 206.924669 98.504208 
L 212.726045 98.926528 
L 214.383581 99.01287 
L 214.383581 99.01287 
" style="fill:none;stroke:#d56339;stroke-linecap:square;stroke-width:1.1;"/>
   </g>
   <g id="line2d_8">
    <path clip-path="url(#p4e63194927)" d="M 49.458742 98.721683 
L 55.260118 98.239513 
L 60.232726 97.613286 
L 64.376567 96.872533 
L 67.691639 96.084322 
L 71.006711 95.06875 
L 73.493015 94.120432 
L 75.979319 92.976664 
L 78.465623 91.599475 
L 80.951927 89.944739 
L 83.438231 87.961871 
L 85.924535 85.593972 
L 88.41084 82.778786 
L 90.068376 80.621259 
L 91.725912 78.216603 
L 93.383448 75.546639 
L 95.869752 71.010666 
L 98.356056 65.808941 
L 100.84236 59.945847 
L 103.328664 53.487974 
L 107.472504 41.881848 
L 110.787577 32.715588 
L 112.445113 28.559789 
L 114.102649 24.915105 
L 115.760185 21.95302 
L 116.588953 20.777152 
L 117.417721 19.827196 
L 118.246489 19.116704 
L 119.075257 18.656045 
L 119.904025 18.452048 
L 120.732793 18.507763 
L 121.561561 18.822356 
L 122.390329 19.391136 
L 123.219097 20.20572 
L 124.047865 21.254325 
L 125.705401 23.991937 
L 127.362937 27.458641 
L 129.020473 31.486261 
L 131.506777 38.201097 
L 138.136922 56.629847 
L 140.623226 62.817835 
L 143.10953 68.369856 
L 145.595834 73.252255 
L 148.082138 77.481577 
L 150.568442 81.103743 
L 153.054746 84.17924 
L 155.54105 86.7734 
L 158.027355 88.950481 
L 160.513659 90.770376 
L 162.999963 92.287037 
L 165.486267 93.547959 
L 167.972571 94.594279 
L 171.287643 95.71564 
L 174.602715 96.586534 
L 178.746555 97.405431 
L 182.890396 98.000295 
L 187.863004 98.502757 
L 194.493148 98.931688 
L 202.780828 99.233468 
L 214.383581 99.431159 
L 214.383581 99.431159 
" style="fill:none;stroke:#eeb92e;stroke-linecap:square;stroke-width:1.1;"/>
   </g>
   <g id="patch_3">
    <path d="M 41.2125 103.943178 
L 41.2125 7.565225 
" style="fill:none;stroke:#000000;stroke-linecap:square;stroke-linejoin:miter;stroke-width:0.8;"/>
   </g>
   <g id="patch_4">
    <path d="M 222.629823 103.943178 
L 222.629823 7.565225 
" style="fill:none;stroke:#000000;stroke-linecap:square;stroke-linejoin:miter;stroke-width:0.8;"/>
   </g>
   <g id="patch_5">
    <path d="M 41.2125 103.943178 
L 222.629823 103.943178 
" style="fill:none;stroke:#000000;stroke-linecap:square;stroke-linejoin:miter;stroke-width:0.8;"/>
   </g>
   <g id="patch_6">
    <path d="M 41.2125 7.565225 
L 222.629823 7.565225 
" style="fill:none;stroke:#000000;stroke-linecap:square;stroke-linejoin:miter;stroke-width:0.8;"/>
   </g>
   <g id="legend_1">
    <g id="patch_7">
     <path d="M 146.129823 41.18585 
L 216.329823 41.18585 
Q 218.129823 41.18585 218.129823 39.38585 
L 218.129823 13.865225 
Q 218.129823 12.065225 216.329823 12.065225 
L 146.129823 12.065225 
Q 144.329823 12.065225 144.329823 13.865225 
L 144.329823 39.38585 
Q 144.329823 41.18585 146.129823 41.18585 
z
" style="fill:#ffffff;opacity:0.8;stroke:#cccccc;stroke-linejoin:miter;"/>
    </g>
    <g id="line2d_9">
     <path d="M 147.929823 19.353819 
L 165.929823 19.353819 
" style="fill:none;stroke:#d56339;stroke-linecap:square;stroke-width:1.1;"/>
    </g>
    <g id="line2d_10"/>
    <g id="text_7">
     <!-- Q$\rm _{SC}$ / R$\rm _{Bulk}$ -->
     <defs>
      <path d="M 39.40625 66.21875 
Q 28.65625 66.21875 22.328125 58.203125 
Q 16.015625 50.203125 16.015625 36.375 
Q 16.015625 22.609375 22.328125 14.59375 
Q 28.65625 6.59375 39.40625 6.59375 
Q 50.140625 6.59375 56.421875 14.59375 
Q 62.703125 22.609375 62.703125 36.375 
Q 62.703125 50.203125 56.421875 58.203125 
Q 50.140625 66.21875 39.40625 66.21875 
z
M 53.21875 1.3125 
L 66.21875 -12.890625 
L 54.296875 -12.890625 
L 43.5 -1.21875 
Q 41.890625 -1.3125 41.03125 -1.359375 
Q 40.1875 -1.421875 39.40625 -1.421875 
Q 24.03125 -1.421875 14.8125 8.859375 
Q 5.609375 19.140625 5.609375 36.375 
Q 5.609375 53.65625 14.8125 63.9375 
Q 24.03125 74.21875 39.40625 74.21875 
Q 54.734375 74.21875 63.90625 63.9375 
Q 73.09375 53.65625 73.09375 36.375 
Q 73.09375 23.6875 67.984375 14.640625 
Q 62.890625 5.609375 53.21875 1.3125 
z
" id="DejaVuSans-81"/>
      <path d="M 44.90625 47.703125 
L 43 47.703125 
Q 40.59375 53.703125 35.796875 56.84375 
Q 31 60 25.203125 60 
Q 20.59375 60 17.59375 57.203125 
Q 14.59375 54.40625 14.59375 50.5 
Q 14.59375 43.5 28.703125 37.796875 
Q 39.40625 33.59375 43.75 28.84375 
Q 48.09375 24.09375 48.09375 16.796875 
Q 48.09375 9.40625 42.40625 4.09375 
Q 36.296875 -1.40625 25.796875 -1.40625 
Q 11.203125 -1.40625 4.5 7 
L 3.203125 20.5 
L 5 20.5 
Q 8.296875 13.203125 14 9.703125 
Q 19.703125 6.203125 25.40625 6.203125 
Q 31.703125 6.203125 35.453125 8.84375 
Q 39.203125 11.5 39.203125 15.796875 
Q 39.203125 20.296875 36.203125 23.296875 
Q 33.203125 26.296875 26.40625 29.09375 
Q 15.5 33.5 10.796875 38.25 
Q 6.09375 43 6.09375 50.09375 
Q 6.09375 58 11.59375 62.796875 
Q 17.09375 67.59375 25.703125 67.59375 
Q 38.09375 67.59375 44.90625 59.59375 
z
" id="STIXGeneral-Regular-120242"/>
      <path d="M 58.59375 17 
L 63.703125 11.90625 
Q 53.40625 -1.40625 36.40625 -1.40625 
Q 20.703125 -1.40625 11.703125 8.25 
Q 2.703125 17.90625 2.703125 33.296875 
Q 2.703125 48.09375 12.046875 57.84375 
Q 21.40625 67.59375 36.296875 67.59375 
Q 43.796875 67.59375 50.6875 64.640625 
Q 57.59375 61.703125 61.703125 55.40625 
L 61.703125 45.296875 
L 59.796875 45.296875 
Q 56.5 53.296875 50.140625 56.640625 
Q 43.796875 60 36.40625 60 
Q 25.296875 60 18.4375 52.453125 
Q 11.59375 44.90625 11.59375 33.5 
Q 11.59375 21.09375 18.296875 13.640625 
Q 25 6.203125 36.703125 6.203125 
Q 49 6.203125 58.59375 17 
z
" id="STIXGeneral-Regular-120226"/>
      <path id="DejaVuSans-32"/>
      <path d="M 25.390625 72.90625 
L 33.6875 72.90625 
L 8.296875 -9.28125 
L 0 -9.28125 
z
" id="DejaVuSans-47"/>
      <path d="M 44.390625 34.1875 
Q 47.5625 33.109375 50.5625 29.59375 
Q 53.5625 26.078125 56.59375 19.921875 
L 66.609375 0 
L 56 0 
L 46.6875 18.703125 
Q 43.0625 26.03125 39.671875 28.421875 
Q 36.28125 30.8125 30.421875 30.8125 
L 19.671875 30.8125 
L 19.671875 0 
L 9.8125 0 
L 9.8125 72.90625 
L 32.078125 72.90625 
Q 44.578125 72.90625 50.734375 67.671875 
Q 56.890625 62.453125 56.890625 51.90625 
Q 56.890625 45.015625 53.6875 40.46875 
Q 50.484375 35.9375 44.390625 34.1875 
z
M 19.671875 64.796875 
L 19.671875 38.921875 
L 32.078125 38.921875 
Q 39.203125 38.921875 42.84375 42.21875 
Q 46.484375 45.515625 46.484375 51.90625 
Q 46.484375 58.296875 42.84375 61.546875 
Q 39.203125 64.796875 32.078125 64.796875 
z
" id="DejaVuSans-82"/>
      <path d="M 7.40625 66.203125 
L 27.90625 66.203125 
Q 51.09375 66.203125 51.09375 49.90625 
Q 51.09375 40.796875 41.90625 36.59375 
Q 54.703125 32.5 54.703125 19.296875 
Q 54.703125 14.09375 51.796875 9.59375 
Q 48.90625 5.09375 44.09375 2.59375 
Q 38.90625 0 31.40625 0 
L 7.40625 0 
z
M 16.09375 39.40625 
L 25.09375 39.40625 
Q 33.90625 39.40625 38.046875 41.953125 
Q 42.203125 44.5 42.203125 49.90625 
Q 42.203125 54.5 39.046875 56.640625 
Q 35.90625 58.796875 29.09375 58.796875 
L 16.09375 58.796875 
z
M 16.09375 7.40625 
L 28.703125 7.40625 
Q 37.40625 7.40625 41.59375 10.953125 
Q 45.796875 14.5 45.796875 20.203125 
Q 45.796875 23.796875 43.84375 26.546875 
Q 41.90625 29.296875 38.5 30.40625 
Q 34.40625 31.703125 24 31.703125 
L 16.09375 31.703125 
z
" id="STIXGeneral-Regular-120225"/>
      <path d="M 43 1.296875 
L 35.90625 -1.09375 
L 35 -0.59375 
L 34.796875 5.90625 
Q 31.90625 2.703125 27.75 0.84375 
Q 23.59375 -1 19.703125 -1 
Q 13.703125 -1 9 3.5 
Q 6.296875 7 6.296875 13.09375 
L 6.296875 45.296875 
L 14.203125 45.296875 
L 14.203125 14.90625 
Q 14.203125 6.09375 22.40625 6.09375 
Q 25.203125 6.09375 29.09375 9.046875 
Q 33 12 34.5 16.09375 
L 34.5 45.296875 
L 42.40625 45.296875 
L 42.40625 12.796875 
Q 42.40625 6.203125 43 1.296875 
z
" id="STIXGeneral-Regular-120270"/>
      <path d="M 14.40625 0 
L 6.09375 0 
L 6.09375 66 
L 13.5 68.40625 
L 14.40625 67.90625 
z
" id="STIXGeneral-Regular-120261"/>
      <path d="M 45.203125 0 
L 34.90625 0 
L 14.203125 20.703125 
L 14.203125 0 
L 6.296875 0 
L 6.296875 66 
L 13.296875 68.40625 
L 14.203125 67.90625 
L 14.203125 30.296875 
L 34 45.296875 
L 44.40625 45.296875 
L 44.40625 43.90625 
L 19.796875 25.5 
z
" id="STIXGeneral-Regular-120260"/>
     </defs>
     <g transform="translate(173.129823 22.503819)scale(0.09 -0.09)">
      <use transform="translate(0 0.78125)" xlink:href="#DejaVuSans-81"/>
      <use transform="translate(79.503633 -12.807812)scale(0.7)" xlink:href="#STIXGeneral-Regular-120242"/>
      <use transform="translate(117.373626 -12.807812)scale(0.7)" xlink:href="#STIXGeneral-Regular-120226"/>
      <use transform="translate(166.608464 0.78125)" xlink:href="#DejaVuSans-32"/>
      <use transform="translate(198.395573 0.78125)" xlink:href="#DejaVuSans-47"/>
      <use transform="translate(232.086979 0.78125)" xlink:href="#DejaVuSans-32"/>
      <use transform="translate(263.874089 0.78125)" xlink:href="#DejaVuSans-82"/>
      <use transform="translate(334.149206 -12.807812)scale(0.7)" xlink:href="#STIXGeneral-Regular-120225"/>
      <use transform="translate(376.429202 -12.807812)scale(0.7)" xlink:href="#STIXGeneral-Regular-120270"/>
      <use transform="translate(410.799195 -12.807812)scale(0.7)" xlink:href="#STIXGeneral-Regular-120261"/>
      <use transform="translate(425.149185 -12.807812)scale(0.7)" xlink:href="#STIXGeneral-Regular-120260"/>
     </g>
    </g>
    <g id="line2d_11">
     <path d="M 147.929823 32.564131 
L 165.929823 32.564131 
" style="fill:none;stroke:#eeb92e;stroke-linecap:square;stroke-width:1.1;"/>
    </g>
    <g id="line2d_12"/>
    <g id="text_8">
     <!-- Q$\rm _{SS}$ / R$\rm _{SS}$ -->
     <g transform="translate(173.129823 35.714131)scale(0.09 -0.09)">
      <use transform="translate(0 0.78125)" xlink:href="#DejaVuSans-81"/>
      <use transform="translate(79.503633 -12.807812)scale(0.7)" xlink:href="#STIXGeneral-Regular-120242"/>
      <use transform="translate(117.373626 -12.807812)scale(0.7)" xlink:href="#STIXGeneral-Regular-120242"/>
      <use transform="translate(157.508464 0.78125)" xlink:href="#DejaVuSans-32"/>
      <use transform="translate(189.295573 0.78125)" xlink:href="#DejaVuSans-47"/>
      <use transform="translate(222.986979 0.78125)" xlink:href="#DejaVuSans-32"/>
      <use transform="translate(254.774089 0.78125)" xlink:href="#DejaVuSans-82"/>
      <use transform="translate(325.049206 -12.807812)scale(0.7)" xlink:href="#STIXGeneral-Regular-120242"/>
      <use transform="translate(362.9192 -12.807812)scale(0.7)" xlink:href="#STIXGeneral-Regular-120242"/>
     </g>
    </g>
   </g>
  </g>
  <g id="axes_2">
   <g id="patch_8">
    <path d="M 41.2125 200.321131 
L 222.629823 200.321131 
L 222.629823 103.943178 
L 41.2125 103.943178 
z
" style="fill:#ffffff;"/>
   </g>
   <g id="matplotlib.axis_3">
    <g id="xtick_1">
     <g id="line2d_13">
      <defs>
       <path d="M 0 0 
L 0 3.5 
" id="ma439ab666d" style="stroke:#000000;stroke-width:0.8;"/>
      </defs>
      <g>
       <use style="stroke:#000000;stroke-width:0.8;" x="73.019433" xlink:href="#ma439ab666d" y="200.321131"/>
      </g>
     </g>
     <g id="text_9">
      <!-- $\mathdefault{10^{-2}}$ -->
      <defs>
       <path d="M 10.59375 35.5 
L 73.1875 35.5 
L 73.1875 27.203125 
L 10.59375 27.203125 
z
" id="DejaVuSans-8722"/>
      </defs>
      <g transform="translate(63.619433 213.399881)scale(0.08 -0.08)">
       <use transform="translate(0 0.765625)" xlink:href="#DejaVuSans-49"/>
       <use transform="translate(63.623047 0.765625)" xlink:href="#DejaVuSans-48"/>
       <use transform="translate(128.203125 39.046875)scale(0.7)" xlink:href="#DejaVuSans-8722"/>
       <use transform="translate(186.855469 39.046875)scale(0.7)" xlink:href="#DejaVuSans-50"/>
      </g>
     </g>
    </g>
    <g id="xtick_2">
     <g id="line2d_14">
      <g>
       <use style="stroke:#000000;stroke-width:0.8;" x="120.140816" xlink:href="#ma439ab666d" y="200.321131"/>
      </g>
     </g>
     <g id="text_10">
      <!-- $\mathdefault{10^{0}}$ -->
      <g transform="translate(113.100816 213.399881)scale(0.08 -0.08)">
       <use transform="translate(0 0.765625)" xlink:href="#DejaVuSans-49"/>
       <use transform="translate(63.623047 0.765625)" xlink:href="#DejaVuSans-48"/>
       <use transform="translate(128.203125 39.046875)scale(0.7)" xlink:href="#DejaVuSans-48"/>
      </g>
     </g>
    </g>
    <g id="xtick_3">
     <g id="line2d_15">
      <g>
       <use style="stroke:#000000;stroke-width:0.8;" x="167.262198" xlink:href="#ma439ab666d" y="200.321131"/>
      </g>
     </g>
     <g id="text_11">
      <!-- $\mathdefault{10^{2}}$ -->
      <g transform="translate(160.222198 213.399881)scale(0.08 -0.08)">
       <use transform="translate(0 0.765625)" xlink:href="#DejaVuSans-49"/>
       <use transform="translate(63.623047 0.765625)" xlink:href="#DejaVuSans-48"/>
       <use transform="translate(128.203125 39.046875)scale(0.7)" xlink:href="#DejaVuSans-50"/>
      </g>
     </g>
    </g>
    <g id="xtick_4">
     <g id="line2d_16">
      <g>
       <use style="stroke:#000000;stroke-width:0.8;" x="214.383581" xlink:href="#ma439ab666d" y="200.321131"/>
      </g>
     </g>
     <g id="text_12">
      <!-- $\mathdefault{10^{4}}$ -->
      <g transform="translate(207.343581 213.399881)scale(0.08 -0.08)">
       <use transform="translate(0 0.684375)" xlink:href="#DejaVuSans-49"/>
       <use transform="translate(63.623047 0.684375)" xlink:href="#DejaVuSans-48"/>
       <use transform="translate(128.203125 38.965625)scale(0.7)" xlink:href="#DejaVuSans-52"/>
      </g>
     </g>
    </g>
    <g id="text_13">
     <!-- $\omega$ [rad $\cdot$ s$^{-1}$] -->
     <defs>
      <path d="M 26.859375 -1.421875 
Q 6.59375 -1.421875 6.59375 27.59375 
Q 6.59375 39.0625 14.15625 54.6875 
L 23.828125 54.6875 
Q 16.84375 39.0625 16.84375 27.34375 
Q 16.84375 6.203125 27.6875 6.203125 
Q 37.59375 6.203125 37.59375 32.46875 
L 45.90625 32.46875 
Q 45.90625 6.203125 55.8125 6.203125 
Q 66.65625 6.203125 66.65625 27.34375 
Q 66.65625 39.0625 59.671875 54.6875 
L 69.34375 54.6875 
Q 76.90625 39.0625 76.90625 27.59375 
Q 76.90625 -1.421875 56.640625 -1.421875 
Q 43.359375 -1.421875 41.75 13.1875 
Q 39.75 -1.421875 26.859375 -1.421875 
z
" id="DejaVuSans-969"/>
      <path d="M 8.59375 75.984375 
L 29.296875 75.984375 
L 29.296875 69 
L 17.578125 69 
L 17.578125 -6.203125 
L 29.296875 -6.203125 
L 29.296875 -13.1875 
L 8.59375 -13.1875 
z
" id="DejaVuSans-91"/>
      <path d="M 41.109375 46.296875 
Q 39.59375 47.171875 37.8125 47.578125 
Q 36.03125 48 33.890625 48 
Q 26.265625 48 22.1875 43.046875 
Q 18.109375 38.09375 18.109375 28.8125 
L 18.109375 0 
L 9.078125 0 
L 9.078125 54.6875 
L 18.109375 54.6875 
L 18.109375 46.1875 
Q 20.953125 51.171875 25.484375 53.578125 
Q 30.03125 56 36.53125 56 
Q 37.453125 56 38.578125 55.875 
Q 39.703125 55.765625 41.0625 55.515625 
z
" id="DejaVuSans-114"/>
      <path d="M 34.28125 27.484375 
Q 23.390625 27.484375 19.1875 25 
Q 14.984375 22.515625 14.984375 16.5 
Q 14.984375 11.71875 18.140625 8.90625 
Q 21.296875 6.109375 26.703125 6.109375 
Q 34.1875 6.109375 38.703125 11.40625 
Q 43.21875 16.703125 43.21875 25.484375 
L 43.21875 27.484375 
z
M 52.203125 31.203125 
L 52.203125 0 
L 43.21875 0 
L 43.21875 8.296875 
Q 40.140625 3.328125 35.546875 0.953125 
Q 30.953125 -1.421875 24.3125 -1.421875 
Q 15.921875 -1.421875 10.953125 3.296875 
Q 6 8.015625 6 15.921875 
Q 6 25.140625 12.171875 29.828125 
Q 18.359375 34.515625 30.609375 34.515625 
L 43.21875 34.515625 
L 43.21875 35.40625 
Q 43.21875 41.609375 39.140625 45 
Q 35.0625 48.390625 27.6875 48.390625 
Q 23 48.390625 18.546875 47.265625 
Q 14.109375 46.140625 10.015625 43.890625 
L 10.015625 52.203125 
Q 14.9375 54.109375 19.578125 55.046875 
Q 24.21875 56 28.609375 56 
Q 40.484375 56 46.34375 49.84375 
Q 52.203125 43.703125 52.203125 31.203125 
z
" id="DejaVuSans-97"/>
      <path d="M 45.40625 46.390625 
L 45.40625 75.984375 
L 54.390625 75.984375 
L 54.390625 0 
L 45.40625 0 
L 45.40625 8.203125 
Q 42.578125 3.328125 38.25 0.953125 
Q 33.9375 -1.421875 27.875 -1.421875 
Q 17.96875 -1.421875 11.734375 6.484375 
Q 5.515625 14.40625 5.515625 27.296875 
Q 5.515625 40.1875 11.734375 48.09375 
Q 17.96875 56 27.875 56 
Q 33.9375 56 38.25 53.625 
Q 42.578125 51.265625 45.40625 46.390625 
z
M 14.796875 27.296875 
Q 14.796875 17.390625 18.875 11.75 
Q 22.953125 6.109375 30.078125 6.109375 
Q 37.203125 6.109375 41.296875 11.75 
Q 45.40625 17.390625 45.40625 27.296875 
Q 45.40625 37.203125 41.296875 42.84375 
Q 37.203125 48.484375 30.078125 48.484375 
Q 22.953125 48.484375 18.875 42.84375 
Q 14.796875 37.203125 14.796875 27.296875 
z
" id="DejaVuSans-100"/>
      <path d="M 10.6875 40.921875 
L 21 40.921875 
L 21 28.515625 
L 10.6875 28.515625 
z
" id="DejaVuSans-8901"/>
      <path d="M 44.28125 53.078125 
L 44.28125 44.578125 
Q 40.484375 46.53125 36.375 47.5 
Q 32.28125 48.484375 27.875 48.484375 
Q 21.1875 48.484375 17.84375 46.4375 
Q 14.5 44.390625 14.5 40.28125 
Q 14.5 37.15625 16.890625 35.375 
Q 19.28125 33.59375 26.515625 31.984375 
L 29.59375 31.296875 
Q 39.15625 29.25 43.1875 25.515625 
Q 47.21875 21.78125 47.21875 15.09375 
Q 47.21875 7.46875 41.1875 3.015625 
Q 35.15625 -1.421875 24.609375 -1.421875 
Q 20.21875 -1.421875 15.453125 -0.5625 
Q 10.6875 0.296875 5.421875 2 
L 5.421875 11.28125 
Q 10.40625 8.6875 15.234375 7.390625 
Q 20.0625 6.109375 24.8125 6.109375 
Q 31.15625 6.109375 34.5625 8.28125 
Q 37.984375 10.453125 37.984375 14.40625 
Q 37.984375 18.0625 35.515625 20.015625 
Q 33.0625 21.96875 24.703125 23.78125 
L 21.578125 24.515625 
Q 13.234375 26.265625 9.515625 29.90625 
Q 5.8125 33.546875 5.8125 39.890625 
Q 5.8125 47.609375 11.28125 51.796875 
Q 16.75 56 26.8125 56 
Q 31.78125 56 36.171875 55.265625 
Q 40.578125 54.546875 44.28125 53.078125 
z
" id="DejaVuSans-115"/>
      <path d="M 30.421875 75.984375 
L 30.421875 -13.1875 
L 9.71875 -13.1875 
L 9.71875 -6.203125 
L 21.390625 -6.203125 
L 21.390625 69 
L 9.71875 69 
L 9.71875 75.984375 
z
" id="DejaVuSans-93"/>
     </defs>
     <g transform="translate(107.361161 225.719881)scale(0.08 -0.08)">
      <use transform="translate(0 0.684375)" xlink:href="#DejaVuSans-969"/>
      <use transform="translate(83.740234 0.684375)" xlink:href="#DejaVuSans-32"/>
      <use transform="translate(115.527344 0.684375)" xlink:href="#DejaVuSans-91"/>
      <use transform="translate(154.541016 0.684375)" xlink:href="#DejaVuSans-114"/>
      <use transform="translate(195.654297 0.684375)" xlink:href="#DejaVuSans-97"/>
      <use transform="translate(256.933594 0.684375)" xlink:href="#DejaVuSans-100"/>
      <use transform="translate(320.410156 0.684375)" xlink:href="#DejaVuSans-32"/>
      <use transform="translate(352.197266 0.684375)" xlink:href="#DejaVuSans-8901"/>
      <use transform="translate(383.984375 0.684375)" xlink:href="#DejaVuSans-32"/>
      <use transform="translate(415.771484 0.684375)" xlink:href="#DejaVuSans-115"/>
      <use transform="translate(468.828125 38.965625)scale(0.7)" xlink:href="#DejaVuSans-8722"/>
      <use transform="translate(527.480469 38.965625)scale(0.7)" xlink:href="#DejaVuSans-49"/>
      <use transform="translate(574.750977 0.684375)" xlink:href="#DejaVuSans-93"/>
     </g>
    </g>
   </g>
   <g id="matplotlib.axis_4">
    <g id="ytick_6">
     <g id="line2d_17">
      <g>
       <use style="stroke:#000000;stroke-width:0.8;" x="41.2125" xlink:href="#m5d8feb763c" y="195.954017"/>
      </g>
     </g>
     <g id="text_14">
      <!-- 0 -->
      <g transform="translate(29.1225 198.993392)scale(0.08 -0.08)">
       <use xlink:href="#DejaVuSans-48"/>
      </g>
     </g>
    </g>
    <g id="ytick_7">
     <g id="line2d_18">
      <g>
       <use style="stroke:#000000;stroke-width:0.8;" x="41.2125" xlink:href="#m5d8feb763c" y="178.413368"/>
      </g>
     </g>
     <g id="text_15">
      <!-- 25 -->
      <defs>
       <path d="M 10.796875 72.90625 
L 49.515625 72.90625 
L 49.515625 64.59375 
L 19.828125 64.59375 
L 19.828125 46.734375 
Q 21.96875 47.46875 24.109375 47.828125 
Q 26.265625 48.1875 28.421875 48.1875 
Q 40.625 48.1875 47.75 41.5 
Q 54.890625 34.8125 54.890625 23.390625 
Q 54.890625 11.625 47.5625 5.09375 
Q 40.234375 -1.421875 26.90625 -1.421875 
Q 22.3125 -1.421875 17.546875 -0.640625 
Q 12.796875 0.140625 7.71875 1.703125 
L 7.71875 11.625 
Q 12.109375 9.234375 16.796875 8.0625 
Q 21.484375 6.890625 26.703125 6.890625 
Q 35.15625 6.890625 40.078125 11.328125 
Q 45.015625 15.765625 45.015625 23.390625 
Q 45.015625 31 40.078125 35.4375 
Q 35.15625 39.890625 26.703125 39.890625 
Q 22.75 39.890625 18.8125 39.015625 
Q 14.890625 38.140625 10.796875 36.28125 
z
" id="DejaVuSans-53"/>
      </defs>
      <g transform="translate(24.0325 181.452743)scale(0.08 -0.08)">
       <use xlink:href="#DejaVuSans-50"/>
       <use x="63.623047" xlink:href="#DejaVuSans-53"/>
      </g>
     </g>
    </g>
    <g id="ytick_8">
     <g id="line2d_19">
      <g>
       <use style="stroke:#000000;stroke-width:0.8;" x="41.2125" xlink:href="#m5d8feb763c" y="160.872719"/>
      </g>
     </g>
     <g id="text_16">
      <!-- 50 -->
      <g transform="translate(24.0325 163.912094)scale(0.08 -0.08)">
       <use xlink:href="#DejaVuSans-53"/>
       <use x="63.623047" xlink:href="#DejaVuSans-48"/>
      </g>
     </g>
    </g>
    <g id="ytick_9">
     <g id="line2d_20">
      <g>
       <use style="stroke:#000000;stroke-width:0.8;" x="41.2125" xlink:href="#m5d8feb763c" y="143.33207"/>
      </g>
     </g>
     <g id="text_17">
      <!-- 75 -->
      <defs>
       <path d="M 8.203125 72.90625 
L 55.078125 72.90625 
L 55.078125 68.703125 
L 28.609375 0 
L 18.3125 0 
L 43.21875 64.59375 
L 8.203125 64.59375 
z
" id="DejaVuSans-55"/>
      </defs>
      <g transform="translate(24.0325 146.371445)scale(0.08 -0.08)">
       <use xlink:href="#DejaVuSans-55"/>
       <use x="63.623047" xlink:href="#DejaVuSans-53"/>
      </g>
     </g>
    </g>
    <g id="ytick_10">
     <g id="line2d_21">
      <g>
       <use style="stroke:#000000;stroke-width:0.8;" x="41.2125" xlink:href="#m5d8feb763c" y="125.791422"/>
      </g>
     </g>
     <g id="text_18">
      <!-- 100 -->
      <g transform="translate(18.9425 128.830797)scale(0.08 -0.08)">
       <use xlink:href="#DejaVuSans-49"/>
       <use x="63.623047" xlink:href="#DejaVuSans-48"/>
       <use x="127.246094" xlink:href="#DejaVuSans-48"/>
      </g>
     </g>
    </g>
    <g id="ytick_11">
     <g id="line2d_22">
      <g>
       <use style="stroke:#000000;stroke-width:0.8;" x="41.2125" xlink:href="#m5d8feb763c" y="108.250773"/>
      </g>
     </g>
     <g id="text_19">
      <!-- 125 -->
      <g transform="translate(18.9425 111.290148)scale(0.08 -0.08)">
       <use xlink:href="#DejaVuSans-49"/>
       <use x="63.623047" xlink:href="#DejaVuSans-50"/>
       <use x="127.246094" xlink:href="#DejaVuSans-53"/>
      </g>
     </g>
    </g>
    <g id="text_20">
     <!-- Re(Z) -->
     <defs>
      <path d="M 56.203125 29.59375 
L 56.203125 25.203125 
L 14.890625 25.203125 
Q 15.484375 15.921875 20.484375 11.0625 
Q 25.484375 6.203125 34.421875 6.203125 
Q 39.59375 6.203125 44.453125 7.46875 
Q 49.3125 8.734375 54.109375 11.28125 
L 54.109375 2.78125 
Q 49.265625 0.734375 44.1875 -0.34375 
Q 39.109375 -1.421875 33.890625 -1.421875 
Q 20.796875 -1.421875 13.15625 6.1875 
Q 5.515625 13.8125 5.515625 26.8125 
Q 5.515625 40.234375 12.765625 48.109375 
Q 20.015625 56 32.328125 56 
Q 43.359375 56 49.78125 48.890625 
Q 56.203125 41.796875 56.203125 29.59375 
z
M 47.21875 32.234375 
Q 47.125 39.59375 43.09375 43.984375 
Q 39.0625 48.390625 32.421875 48.390625 
Q 24.90625 48.390625 20.390625 44.140625 
Q 15.875 39.890625 15.1875 32.171875 
z
" id="DejaVuSans-101"/>
     </defs>
     <g transform="translate(13.27875 163.231529)rotate(-90)scale(0.08 -0.08)">
      <use xlink:href="#DejaVuSans-82"/>
      <use x="69.419922" xlink:href="#DejaVuSans-101"/>
      <use x="130.943359" xlink:href="#DejaVuSans-40"/>
      <use x="169.957031" xlink:href="#DejaVuSans-90"/>
      <use x="238.462891" xlink:href="#DejaVuSans-41"/>
     </g>
    </g>
   </g>
   <g id="line2d_23">
    <path clip-path="url(#p31db155341)" d="M 49.458742 108.323994 
L 64.376567 108.533712 
L 73.493015 108.871151 
L 79.294391 109.279258 
L 84.266999 109.853237 
L 87.582072 110.419858 
L 90.897144 111.20591 
L 93.383448 111.993252 
L 95.869752 113.006041 
L 98.356056 114.308279 
L 100.013592 115.374762 
L 101.671128 116.62944 
L 103.328664 118.099163 
L 104.9862 119.810641 
L 106.643736 121.788332 
L 108.301272 124.051617 
L 109.958808 126.611362 
L 112.445113 130.999736 
L 114.931417 135.976013 
L 118.246489 143.23415 
L 123.219097 154.244273 
L 125.705401 159.251382 
L 128.191705 163.689404 
L 129.849241 166.294524 
L 131.506777 168.614307 
L 133.164313 170.660799 
L 134.82185 172.454718 
L 136.479386 174.022151 
L 138.96569 176.011799 
L 141.451994 177.655488 
L 143.938298 179.047477 
L 147.25337 180.659878 
L 156.369818 184.923098 
L 161.342427 187.633786 
L 167.143803 190.793745 
L 170.458875 192.286631 
L 172.945179 193.182978 
L 175.431483 193.888526 
L 178.746555 194.57264 
L 182.061628 195.030771 
L 186.205468 195.388821 
L 192.006844 195.657073 
L 201.123292 195.83098 
L 214.383581 195.907233 
L 214.383581 195.907233 
" style="fill:none;stroke:#0370b8;stroke-linecap:square;"/>
   </g>
   <g id="line2d_24">
    <path clip-path="url(#p31db155341)" d="M 49.458742 178.413505 
L 123.219097 178.520921 
L 133.164313 178.727741 
L 138.96569 179.037079 
L 143.10953 179.455438 
L 146.424602 179.99671 
L 148.910906 180.578314 
L 151.39721 181.355106 
L 153.883514 182.361282 
L 156.369818 183.610237 
L 159.684891 185.604312 
L 167.143803 190.394141 
L 169.630107 191.704165 
L 172.116411 192.77349 
L 174.602715 193.607244 
L 177.089019 194.235818 
L 180.404091 194.823585 
L 184.547932 195.278998 
L 189.52054 195.581364 
L 196.979452 195.791474 
L 211.068509 195.914116 
L 214.383581 195.924771 
L 214.383581 195.924771 
" style="fill:none;stroke:#d56339;stroke-linecap:square;stroke-width:1.1;"/>
   </g>
   <g id="line2d_25">
    <path clip-path="url(#p31db155341)" d="M 49.458742 125.878633 
L 65.205335 126.09747 
L 74.321783 126.437081 
L 80.123159 126.844415 
L 85.095767 127.412553 
L 89.239608 128.138201 
L 92.55468 128.969261 
L 95.040984 129.796605 
L 97.527288 130.854088 
L 100.013592 132.203672 
L 101.671128 133.301198 
L 103.328664 134.58421 
L 104.9862 136.076706 
L 106.643736 137.801618 
L 108.301272 139.778673 
L 109.958808 142.021669 
L 111.616345 144.535358 
L 114.102649 148.793224 
L 116.588953 153.55149 
L 120.732793 162.112523 
L 124.876633 170.513375 
L 127.362937 175.049478 
L 129.849241 179.033123 
L 131.506777 181.353452 
L 133.164313 183.405417 
L 134.82185 185.200561 
L 136.479386 186.757216 
L 138.136922 188.097645 
L 140.623226 189.7551 
L 143.10953 191.058735 
L 145.595834 192.079815 
L 148.082138 192.878671 
L 151.39721 193.681373 
L 154.712282 194.263724 
L 158.856123 194.776465 
L 164.657499 195.23425 
L 172.116411 195.564924 
L 182.890396 195.790445 
L 201.123292 195.91526 
L 214.383581 195.940315 
L 214.383581 195.940315 
" style="fill:none;stroke:#eeb92e;stroke-linecap:square;stroke-width:1.1;"/>
   </g>
   <g id="patch_9">
    <path d="M 41.2125 200.321131 
L 41.2125 103.943178 
" style="fill:none;stroke:#000000;stroke-linecap:square;stroke-linejoin:miter;stroke-width:0.8;"/>
   </g>
   <g id="patch_10">
    <path d="M 222.629823 200.321131 
L 222.629823 103.943178 
" style="fill:none;stroke:#000000;stroke-linecap:square;stroke-linejoin:miter;stroke-width:0.8;"/>
   </g>
   <g id="patch_11">
    <path d="M 41.2125 200.321131 
L 222.629823 200.321131 
" style="fill:none;stroke:#000000;stroke-linecap:square;stroke-linejoin:miter;stroke-width:0.8;"/>
   </g>
   <g id="patch_12">
    <path d="M 41.2125 103.943178 
L 222.629823 103.943178 
" style="fill:none;stroke:#000000;stroke-linecap:square;stroke-linejoin:miter;stroke-width:0.8;"/>
   </g>
  </g>
  <g id="axes_3">
   <g id="patch_13">
    <path d="M 267.984154 132.274678 
L 449.401476 132.274678 
L 449.401476 75.611678 
L 267.984154 75.611678 
z
" style="fill:#ffffff;"/>
   </g>
   <g id="matplotlib.axis_5">
    <g id="xtick_5">
     <g id="line2d_26">
      <g>
       <use style="stroke:#000000;stroke-width:0.8;" x="276.142298" xlink:href="#ma439ab666d" y="132.274678"/>
      </g>
     </g>
     <g id="text_21">
      <!-- 0 -->
      <g transform="translate(273.597298 145.353428)scale(0.08 -0.08)">
       <use xlink:href="#DejaVuSans-48"/>
      </g>
     </g>
    </g>
    <g id="xtick_6">
     <g id="line2d_27">
      <g>
       <use style="stroke:#000000;stroke-width:0.8;" x="302.566429" xlink:href="#ma439ab666d" y="132.274678"/>
      </g>
     </g>
     <g id="text_22">
      <!-- 20 -->
      <g transform="translate(297.476429 145.353428)scale(0.08 -0.08)">
       <use xlink:href="#DejaVuSans-50"/>
       <use x="63.623047" xlink:href="#DejaVuSans-48"/>
      </g>
     </g>
    </g>
    <g id="xtick_7">
     <g id="line2d_28">
      <g>
       <use style="stroke:#000000;stroke-width:0.8;" x="328.99056" xlink:href="#ma439ab666d" y="132.274678"/>
      </g>
     </g>
     <g id="text_23">
      <!-- 40 -->
      <g transform="translate(323.90056 145.353428)scale(0.08 -0.08)">
       <use xlink:href="#DejaVuSans-52"/>
       <use x="63.623047" xlink:href="#DejaVuSans-48"/>
      </g>
     </g>
    </g>
    <g id="xtick_8">
     <g id="line2d_29">
      <g>
       <use style="stroke:#000000;stroke-width:0.8;" x="355.41469" xlink:href="#ma439ab666d" y="132.274678"/>
      </g>
     </g>
     <g id="text_24">
      <!-- 60 -->
      <defs>
       <path d="M 33.015625 40.375 
Q 26.375 40.375 22.484375 35.828125 
Q 18.609375 31.296875 18.609375 23.390625 
Q 18.609375 15.53125 22.484375 10.953125 
Q 26.375 6.390625 33.015625 6.390625 
Q 39.65625 6.390625 43.53125 10.953125 
Q 47.40625 15.53125 47.40625 23.390625 
Q 47.40625 31.296875 43.53125 35.828125 
Q 39.65625 40.375 33.015625 40.375 
z
M 52.59375 71.296875 
L 52.59375 62.3125 
Q 48.875 64.0625 45.09375 64.984375 
Q 41.3125 65.921875 37.59375 65.921875 
Q 27.828125 65.921875 22.671875 59.328125 
Q 17.53125 52.734375 16.796875 39.40625 
Q 19.671875 43.65625 24.015625 45.921875 
Q 28.375 48.1875 33.59375 48.1875 
Q 44.578125 48.1875 50.953125 41.515625 
Q 57.328125 34.859375 57.328125 23.390625 
Q 57.328125 12.15625 50.6875 5.359375 
Q 44.046875 -1.421875 33.015625 -1.421875 
Q 20.359375 -1.421875 13.671875 8.265625 
Q 6.984375 17.96875 6.984375 36.375 
Q 6.984375 53.65625 15.1875 63.9375 
Q 23.390625 74.21875 37.203125 74.21875 
Q 40.921875 74.21875 44.703125 73.484375 
Q 48.484375 72.75 52.59375 71.296875 
z
" id="DejaVuSans-54"/>
      </defs>
      <g transform="translate(350.32469 145.353428)scale(0.08 -0.08)">
       <use xlink:href="#DejaVuSans-54"/>
       <use x="63.623047" xlink:href="#DejaVuSans-48"/>
      </g>
     </g>
    </g>
    <g id="xtick_9">
     <g id="line2d_30">
      <g>
       <use style="stroke:#000000;stroke-width:0.8;" x="381.838821" xlink:href="#ma439ab666d" y="132.274678"/>
      </g>
     </g>
     <g id="text_25">
      <!-- 80 -->
      <defs>
       <path d="M 31.78125 34.625 
Q 24.75 34.625 20.71875 30.859375 
Q 16.703125 27.09375 16.703125 20.515625 
Q 16.703125 13.921875 20.71875 10.15625 
Q 24.75 6.390625 31.78125 6.390625 
Q 38.8125 6.390625 42.859375 10.171875 
Q 46.921875 13.96875 46.921875 20.515625 
Q 46.921875 27.09375 42.890625 30.859375 
Q 38.875 34.625 31.78125 34.625 
z
M 21.921875 38.8125 
Q 15.578125 40.375 12.03125 44.71875 
Q 8.5 49.078125 8.5 55.328125 
Q 8.5 64.0625 14.71875 69.140625 
Q 20.953125 74.21875 31.78125 74.21875 
Q 42.671875 74.21875 48.875 69.140625 
Q 55.078125 64.0625 55.078125 55.328125 
Q 55.078125 49.078125 51.53125 44.71875 
Q 48 40.375 41.703125 38.8125 
Q 48.828125 37.15625 52.796875 32.3125 
Q 56.78125 27.484375 56.78125 20.515625 
Q 56.78125 9.90625 50.3125 4.234375 
Q 43.84375 -1.421875 31.78125 -1.421875 
Q 19.734375 -1.421875 13.25 4.234375 
Q 6.78125 9.90625 6.78125 20.515625 
Q 6.78125 27.484375 10.78125 32.3125 
Q 14.796875 37.15625 21.921875 38.8125 
z
M 18.3125 54.390625 
Q 18.3125 48.734375 21.84375 45.5625 
Q 25.390625 42.390625 31.78125 42.390625 
Q 38.140625 42.390625 41.71875 45.5625 
Q 45.3125 48.734375 45.3125 54.390625 
Q 45.3125 60.0625 41.71875 63.234375 
Q 38.140625 66.40625 31.78125 66.40625 
Q 25.390625 66.40625 21.84375 63.234375 
Q 18.3125 60.0625 18.3125 54.390625 
z
" id="DejaVuSans-56"/>
      </defs>
      <g transform="translate(376.748821 145.353428)scale(0.08 -0.08)">
       <use xlink:href="#DejaVuSans-56"/>
       <use x="63.623047" xlink:href="#DejaVuSans-48"/>
      </g>
     </g>
    </g>
    <g id="xtick_10">
     <g id="line2d_31">
      <g>
       <use style="stroke:#000000;stroke-width:0.8;" x="408.262952" xlink:href="#ma439ab666d" y="132.274678"/>
      </g>
     </g>
     <g id="text_26">
      <!-- 100 -->
      <g transform="translate(400.627952 145.353428)scale(0.08 -0.08)">
       <use xlink:href="#DejaVuSans-49"/>
       <use x="63.623047" xlink:href="#DejaVuSans-48"/>
       <use x="127.246094" xlink:href="#DejaVuSans-48"/>
      </g>
     </g>
    </g>
    <g id="xtick_11">
     <g id="line2d_32">
      <g>
       <use style="stroke:#000000;stroke-width:0.8;" x="434.687082" xlink:href="#ma439ab666d" y="132.274678"/>
      </g>
     </g>
     <g id="text_27">
      <!-- 120 -->
      <g transform="translate(427.052082 145.353428)scale(0.08 -0.08)">
       <use xlink:href="#DejaVuSans-49"/>
       <use x="63.623047" xlink:href="#DejaVuSans-50"/>
       <use x="127.246094" xlink:href="#DejaVuSans-48"/>
      </g>
     </g>
    </g>
    <g id="text_28">
     <!-- Re(Z) -->
     <g transform="translate(347.59344 157.095928)scale(0.08 -0.08)">
      <use xlink:href="#DejaVuSans-82"/>
      <use x="69.419922" xlink:href="#DejaVuSans-101"/>
      <use x="130.943359" xlink:href="#DejaVuSans-40"/>
      <use x="169.957031" xlink:href="#DejaVuSans-90"/>
      <use x="238.462891" xlink:href="#DejaVuSans-41"/>
     </g>
    </g>
   </g>
   <g id="matplotlib.axis_6">
    <g id="ytick_12">
     <g id="line2d_33">
      <g>
       <use style="stroke:#000000;stroke-width:0.8;" x="267.984154" xlink:href="#m5d8feb763c" y="130.025806"/>
      </g>
     </g>
     <g id="text_29">
      <!-- 0 -->
      <g transform="translate(255.894154 133.065181)scale(0.08 -0.08)">
       <use xlink:href="#DejaVuSans-48"/>
      </g>
     </g>
    </g>
    <g id="ytick_13">
     <g id="line2d_34">
      <g>
       <use style="stroke:#000000;stroke-width:0.8;" x="267.984154" xlink:href="#m5d8feb763c" y="103.601676"/>
      </g>
     </g>
     <g id="text_30">
      <!-- 20 -->
      <g transform="translate(250.804154 106.641051)scale(0.08 -0.08)">
       <use xlink:href="#DejaVuSans-50"/>
       <use x="63.623047" xlink:href="#DejaVuSans-48"/>
      </g>
     </g>
    </g>
    <g id="ytick_14">
     <g id="line2d_35">
      <g>
       <use style="stroke:#000000;stroke-width:0.8;" x="267.984154" xlink:href="#m5d8feb763c" y="77.177545"/>
      </g>
     </g>
     <g id="text_31">
      <!-- 40 -->
      <g transform="translate(250.804154 80.21692)scale(0.08 -0.08)">
       <use xlink:href="#DejaVuSans-52"/>
       <use x="63.623047" xlink:href="#DejaVuSans-48"/>
      </g>
     </g>
    </g>
    <g id="text_32">
     <!-- -Im(Z) -->
     <g transform="translate(245.140404 116.323803)rotate(-90)scale(0.08 -0.08)">
      <use xlink:href="#DejaVuSans-45"/>
      <use x="36.083984" xlink:href="#DejaVuSans-73"/>
      <use x="65.576172" xlink:href="#DejaVuSans-109"/>
      <use x="162.988281" xlink:href="#DejaVuSans-40"/>
      <use x="202.001953" xlink:href="#DejaVuSans-90"/>
      <use x="270.507812" xlink:href="#DejaVuSans-41"/>
     </g>
    </g>
   </g>
   <g id="line2d_36">
    <path clip-path="url(#p31b9386302)" d="M 441.155234 129.486244 
L 439.844007 125.719398 
L 438.275571 121.897176 
L 436.529539 118.236103 
L 434.781923 115.018752 
L 433.028452 112.130403 
L 430.77287 108.805501 
L 427.878187 105.043744 
L 425.515549 102.310919 
L 422.747966 99.426612 
L 419.525145 96.431236 
L 415.801026 93.381862 
L 411.539116 90.35338 
L 406.718951 87.437848 
L 404.09923 86.055171 
L 401.343051 84.741273 
L 398.455362 83.510548 
L 395.443226 82.3773 
L 392.31588 81.355389 
L 389.084714 80.45785 
L 385.763171 79.696508 
L 382.366568 79.081601 
L 378.911836 78.62144 
L 375.417179 78.322114 
L 371.901681 78.187269 
L 368.384863 78.217973 
L 364.88622 78.412671 
L 361.424761 78.767236 
L 358.01857 79.275115 
L 354.684414 79.927556 
L 351.437416 80.713905 
L 348.290797 81.621951 
L 345.255707 82.638298 
L 342.341131 83.748751 
L 339.553876 84.938692 
L 334.378066 87.498497 
L 329.742663 90.204558 
L 325.635689 92.954846 
L 322.025461 95.663032 
L 317.441404 99.500469 
L 312.599697 103.966062 
L 307.978395 108.266967 
L 305.668616 110.147601 
L 303.524005 111.545702 
L 302.121532 112.242695 
L 299.976248 113.005243 
L 297.707004 113.536265 
L 290.926507 114.92283 
L 288.311122 115.787629 
L 285.85942 116.913677 
L 283.693115 118.24749 
L 281.881805 119.691928 
L 280.436793 121.142956 
L 279.020169 122.947452 
L 277.88083 124.84905 
L 277.022646 126.791909 
L 276.432008 128.734964 
L 276.230395 129.699087 
L 276.230395 129.699087 
" style="fill:none;stroke:#0370b8;stroke-linecap:square;"/>
   </g>
   <g id="line2d_37">
    <path clip-path="url(#p31b9386302)" d="M 300.701613 112.783263 
L 298.480871 113.376489 
L 290.045363 115.181559 
L 287.468869 116.1353 
L 285.100925 117.339455 
L 283.04822 118.722002 
L 281.360343 120.179599 
L 280.031751 121.612741 
L 278.743521 123.36224 
L 277.715896 125.176581 
L 276.944299 127.007996 
L 276.391548 128.907687 
L 276.230395 129.699087 
L 276.230395 129.699087 
" style="fill:none;stroke:#d56339;stroke-linecap:square;stroke-width:1.1;"/>
   </g>
   <g id="line2d_38">
    <path clip-path="url(#p31b9386302)" d="M 441.155234 129.486244 
L 439.844007 125.719398 
L 438.275571 121.897176 
L 436.529539 118.236103 
L 434.781923 115.018752 
L 433.028452 112.130403 
L 430.77287 108.805501 
L 427.878187 105.043744 
L 425.515549 102.310919 
L 422.747966 99.426612 
L 419.525145 96.431236 
L 415.801026 93.381862 
L 411.539116 90.35338 
L 406.718951 87.437848 
L 404.09923 86.055171 
L 401.343051 84.741273 
L 398.455362 83.510548 
L 395.443226 82.3773 
L 392.31588 81.355389 
L 389.084714 80.45785 
L 385.763171 79.696508 
L 382.366568 79.081601 
L 378.911836 78.62144 
L 375.417179 78.322114 
L 371.901681 78.187269 
L 368.384863 78.217973 
L 364.88622 78.412671 
L 361.424761 78.767236 
L 358.01857 79.275115 
L 354.684414 79.927556 
L 351.437416 80.713905 
L 348.290797 81.621951 
L 345.255707 82.638298 
L 342.341131 83.748751 
L 339.553876 84.938692 
L 334.378066 87.498497 
L 329.742663 90.204558 
L 325.635689 92.954846 
L 322.025461 95.663032 
L 317.441404 99.500469 
L 312.599697 103.966062 
L 307.978395 108.266967 
L 305.668616 110.147601 
L 303.524005 111.545702 
L 302.121532 112.242695 
L 301.415624 112.530555 
L 301.415624 112.530555 
" style="fill:none;stroke:#eeb92e;stroke-linecap:square;stroke-width:1.1;"/>
   </g>
   <g id="patch_14">
    <path d="M 267.984154 132.274678 
L 267.984154 75.611678 
" style="fill:none;stroke:#000000;stroke-linecap:square;stroke-linejoin:miter;stroke-width:0.8;"/>
   </g>
   <g id="patch_15">
    <path d="M 449.401476 132.274678 
L 449.401476 75.611678 
" style="fill:none;stroke:#000000;stroke-linecap:square;stroke-linejoin:miter;stroke-width:0.8;"/>
   </g>
   <g id="patch_16">
    <path d="M 267.984154 132.274678 
L 449.401476 132.274678 
" style="fill:none;stroke:#000000;stroke-linecap:square;stroke-linejoin:miter;stroke-width:0.8;"/>
   </g>
   <g id="patch_17">
    <path d="M 267.984154 75.611678 
L 449.401476 75.611678 
" style="fill:none;stroke:#000000;stroke-linecap:square;stroke-linejoin:miter;stroke-width:0.8;"/>
   </g>
  </g>
 </g>
 <defs>
  <clipPath id="p4e63194927">
   <rect height="96.377953" width="181.417323" x="41.2125" y="7.565225"/>
  </clipPath>
  <clipPath id="p31db155341">
   <rect height="96.377953" width="181.417323" x="41.2125" y="103.943178"/>
  </clipPath>
  <clipPath id="p31b9386302">
   <rect height="56.663" width="181.417323" x="267.984154" y="75.611678"/>
  </clipPath>
 </defs>
</svg>
