<?xml version="1.0" encoding="utf-8" standalone="no"?>
<!DOCTYPE svg PUBLIC "-//W3C//DTD SVG 1.1//EN"
  "http://www.w3.org/Graphics/SVG/1.1/DTD/svg11.dtd">
<!-- Created with matplotlib (https://matplotlib.org/) -->
<svg height="95.223125pt" version="1.1" viewBox="0 0 210.744 95.223125" width="210.744pt" xmlns="http://www.w3.org/2000/svg" xmlns:xlink="http://www.w3.org/1999/xlink">
 <defs>
  <style type="text/css">
*{stroke-linecap:butt;stroke-linejoin:round;}
  </style>
 </defs>
 <g id="figure_1">
  <g id="patch_1">
   <path d="M -0 95.223125 
L 210.744 95.223125 
L 210.744 0 
L -0 0 
z
" style="fill:#ffffff;"/>
  </g>
  <g id="axes_1">
   <g id="line2d_1">
    <path clip-path="url(#p87d49c2c53)" d="M 17.892 23.304125 
L 37.332 23.304125 
L 38.952 18.714125 
L 42.192 27.894125 
L 45.432 18.714125 
L 48.672 27.894125 
L 51.912 18.714125 
L 55.152 27.894125 
L 56.772 23.304125 
L 76.212 23.304125 
" style="fill:none;stroke:#000000;stroke-linecap:round;"/>
   </g>
   <g id="line2d_2">
    <path clip-path="url(#p87d49c2c53)" d="M 76.212 23.304125 
L 76.212 23.304125 
L 76.212 23.304125 
" style="fill:none;stroke:#000000;stroke-linecap:round;"/>
   </g>
   <g id="line2d_3">
    <path clip-path="url(#p87d49c2c53)" d="M 76.212 23.304125 
L 103.6224 23.304125 
M 103.6224 18.714125 
L 103.6224 27.894125 
M 107.1216 18.714125 
L 107.1216 27.894125 
M 107.1216 23.304125 
L 134.532 23.304125 
" style="fill:none;stroke:#000000;stroke-linecap:round;"/>
   </g>
   <g id="line2d_4">
    <path clip-path="url(#p87d49c2c53)" d="M 76.212 23.304125 
L 76.212 37.074125 
L 76.212 50.844125 
" style="fill:none;stroke:#000000;stroke-linecap:round;"/>
   </g>
   <g id="line2d_5">
    <path clip-path="url(#p87d49c2c53)" d="M 76.212 50.844125 
L 95.652 50.844125 
L 97.272 46.254125 
L 100.512 55.434125 
L 103.752 46.254125 
L 106.992 55.434125 
L 110.232 46.254125 
L 113.472 55.434125 
L 115.092 50.844125 
L 134.532 50.844125 
" style="fill:none;stroke:#000000;stroke-linecap:round;"/>
   </g>
   <g id="line2d_6">
    <path clip-path="url(#p87d49c2c53)" d="M 134.532 50.844125 
L 134.532 50.844125 
L 134.532 50.844125 
" style="fill:none;stroke:#000000;stroke-linecap:round;"/>
   </g>
   <g id="line2d_7">
    <path clip-path="url(#p87d49c2c53)" d="M 134.532 50.844125 
L 161.9424 50.844125 
M 161.9424 46.254125 
L 161.9424 55.434125 
M 165.4416 46.254125 
L 165.4416 55.434125 
M 165.4416 50.844125 
L 192.852 50.844125 
" style="fill:none;stroke:#000000;stroke-linecap:round;"/>
   </g>
   <g id="line2d_8">
    <path clip-path="url(#p87d49c2c53)" d="M 134.532 50.844125 
L 134.532 64.614125 
L 134.532 78.384125 
" style="fill:none;stroke:#000000;stroke-linecap:round;"/>
   </g>
   <g id="line2d_9">
    <path clip-path="url(#p87d49c2c53)" d="M 134.532 78.384125 
L 153.972 78.384125 
L 155.592 73.794125 
L 158.832 82.974125 
L 162.072 73.794125 
L 165.312 82.974125 
L 168.552 73.794125 
L 171.792 82.974125 
L 173.412 78.384125 
L 192.852 78.384125 
" style="fill:none;stroke:#000000;stroke-linecap:round;"/>
   </g>
   <g id="line2d_10">
    <path clip-path="url(#p87d49c2c53)" d="M 192.852 78.384125 
L 192.852 64.614125 
L 192.852 50.844125 
" style="fill:none;stroke:#000000;stroke-linecap:round;"/>
   </g>
   <g id="line2d_11">
    <path clip-path="url(#p87d49c2c53)" d="M 192.852 50.844125 
L 192.852 50.844125 
L 192.852 50.844125 
" style="fill:none;stroke:#000000;stroke-linecap:round;"/>
   </g>
   <g id="line2d_12">
    <path clip-path="url(#p87d49c2c53)" d="M 192.852 50.844125 
L 192.852 37.074125 
L 192.852 23.304125 
" style="fill:none;stroke:#000000;stroke-linecap:round;"/>
   </g>
   <g id="line2d_13">
    <path clip-path="url(#p87d49c2c53)" d="M 134.532 23.304125 
L 163.692 23.304125 
L 192.852 23.304125 
" style="fill:none;stroke:#000000;stroke-linecap:round;"/>
   </g>
   <g id="text_1">
    <!-- R$\rm _{S}$ -->
    <defs>
     <path d="M 44.390625 34.1875 
Q 47.5625 33.109375 50.5625 29.59375 
Q 53.5625 26.078125 56.59375 19.921875 
L 66.609375 0 
L 56 0 
L 46.6875 18.703125 
Q 43.0625 26.03125 39.671875 28.421875 
Q 36.28125 30.8125 30.421875 30.8125 
L 19.671875 30.8125 
L 19.671875 0 
L 9.8125 0 
L 9.8125 72.90625 
L 32.078125 72.90625 
Q 44.578125 72.90625 50.734375 67.671875 
Q 56.890625 62.453125 56.890625 51.90625 
Q 56.890625 45.015625 53.6875 40.46875 
Q 50.484375 35.9375 44.390625 34.1875 
z
M 19.671875 64.796875 
L 19.671875 38.921875 
L 32.078125 38.921875 
Q 39.203125 38.921875 42.84375 42.21875 
Q 46.484375 45.515625 46.484375 51.90625 
Q 46.484375 58.296875 42.84375 61.546875 
Q 39.203125 64.796875 32.078125 64.796875 
z
" id="DejaVuSans-82"/>
     <path d="M 44.90625 47.703125 
L 43 47.703125 
Q 40.59375 53.703125 35.796875 56.84375 
Q 31 60 25.203125 60 
Q 20.59375 60 17.59375 57.203125 
Q 14.59375 54.40625 14.59375 50.5 
Q 14.59375 43.5 28.703125 37.796875 
Q 39.40625 33.59375 43.75 28.84375 
Q 48.09375 24.09375 48.09375 16.796875 
Q 48.09375 9.40625 42.40625 4.09375 
Q 36.296875 -1.40625 25.796875 -1.40625 
Q 11.203125 -1.40625 4.5 7 
L 3.203125 20.5 
L 5 20.5 
Q 8.296875 13.203125 14 9.703125 
Q 19.703125 6.203125 25.40625 6.203125 
Q 31.703125 6.203125 35.453125 8.84375 
Q 39.203125 11.5 39.203125 15.796875 
Q 39.203125 20.296875 36.203125 23.296875 
Q 33.203125 26.296875 26.40625 29.09375 
Q 15.5 33.5 10.796875 38.25 
Q 6.09375 43 6.09375 50.09375 
Q 6.09375 58 11.59375 62.796875 
Q 17.09375 67.59375 25.703125 67.59375 
Q 38.09375 67.59375 44.90625 59.59375 
z
" id="STIXGeneral-Regular-120242"/>
    </defs>
    <g transform="translate(41.502 14.798438)scale(0.1 -0.1)">
     <use transform="translate(0 0.09375)" xlink:href="#DejaVuSans-82"/>
     <use transform="translate(70.275117 -13.495312)scale(0.7)" xlink:href="#STIXGeneral-Regular-120242"/>
    </g>
   </g>
   <g id="text_2">
    <!-- Q$\rm _{bulk}$ -->
    <defs>
     <path d="M 39.40625 66.21875 
Q 28.65625 66.21875 22.328125 58.203125 
Q 16.015625 50.203125 16.015625 36.375 
Q 16.015625 22.609375 22.328125 14.59375 
Q 28.65625 6.59375 39.40625 6.59375 
Q 50.140625 6.59375 56.421875 14.59375 
Q 62.703125 22.609375 62.703125 36.375 
Q 62.703125 50.203125 56.421875 58.203125 
Q 50.140625 66.21875 39.40625 66.21875 
z
M 53.21875 1.3125 
L 66.21875 -12.890625 
L 54.296875 -12.890625 
L 43.5 -1.21875 
Q 41.890625 -1.3125 41.03125 -1.359375 
Q 40.1875 -1.421875 39.40625 -1.421875 
Q 24.03125 -1.421875 14.8125 8.859375 
Q 5.609375 19.140625 5.609375 36.375 
Q 5.609375 53.65625 14.8125 63.9375 
Q 24.03125 74.21875 39.40625 74.21875 
Q 54.734375 74.21875 63.90625 63.9375 
Q 73.09375 53.65625 73.09375 36.375 
Q 73.09375 23.6875 67.984375 14.640625 
Q 62.890625 5.609375 53.21875 1.3125 
z
" id="DejaVuSans-81"/>
     <path d="M 14.203125 67.90625 
L 14.203125 41.40625 
Q 19.703125 46.296875 27 46.296875 
Q 35.703125 46.296875 41.140625 40.1875 
Q 46.59375 34.09375 46.59375 24.40625 
Q 46.59375 13.40625 39.890625 6.203125 
Q 33.203125 -1 22.796875 -1 
Q 12.40625 -1 6.296875 4.703125 
L 6.296875 66 
L 13.296875 68.40625 
z
M 14.203125 30.203125 
L 14.203125 9.40625 
Q 18.09375 6.09375 23.296875 6.09375 
Q 29.40625 6.09375 34.046875 10.6875 
Q 38.703125 15.296875 38.703125 23 
Q 38.703125 30.296875 35.203125 34.75 
Q 31.703125 39.203125 25.5 39.203125 
Q 21.90625 39.203125 18.796875 36.84375 
Q 15.703125 34.5 14.203125 30.203125 
z
" id="STIXGeneral-Regular-120251"/>
     <path d="M 43 1.296875 
L 35.90625 -1.09375 
L 35 -0.59375 
L 34.796875 5.90625 
Q 31.90625 2.703125 27.75 0.84375 
Q 23.59375 -1 19.703125 -1 
Q 13.703125 -1 9 3.5 
Q 6.296875 7 6.296875 13.09375 
L 6.296875 45.296875 
L 14.203125 45.296875 
L 14.203125 14.90625 
Q 14.203125 6.09375 22.40625 6.09375 
Q 25.203125 6.09375 29.09375 9.046875 
Q 33 12 34.5 16.09375 
L 34.5 45.296875 
L 42.40625 45.296875 
L 42.40625 12.796875 
Q 42.40625 6.203125 43 1.296875 
z
" id="STIXGeneral-Regular-120270"/>
     <path d="M 14.40625 0 
L 6.09375 0 
L 6.09375 66 
L 13.5 68.40625 
L 14.40625 67.90625 
z
" id="STIXGeneral-Regular-120261"/>
     <path d="M 45.203125 0 
L 34.90625 0 
L 14.203125 20.703125 
L 14.203125 0 
L 6.296875 0 
L 6.296875 66 
L 13.296875 68.40625 
L 14.203125 67.90625 
L 14.203125 30.296875 
L 34 45.296875 
L 44.40625 45.296875 
L 44.40625 43.90625 
L 19.796875 25.5 
z
" id="STIXGeneral-Regular-120260"/>
    </defs>
    <g transform="translate(95.522 14.798438)scale(0.1 -0.1)">
     <use transform="translate(0 0.78125)" xlink:href="#DejaVuSans-81"/>
     <use transform="translate(79.503633 -12.807812)scale(0.7)" xlink:href="#STIXGeneral-Regular-120251"/>
     <use transform="translate(114.223626 -12.807812)scale(0.7)" xlink:href="#STIXGeneral-Regular-120270"/>
     <use transform="translate(148.59362 -12.807812)scale(0.7)" xlink:href="#STIXGeneral-Regular-120261"/>
     <use transform="translate(162.943609 -12.807812)scale(0.7)" xlink:href="#STIXGeneral-Regular-120260"/>
    </g>
   </g>
   <g id="text_3">
    <!-- R$\rm _{bulk}$ -->
    <g transform="translate(95.972 42.338438)scale(0.1 -0.1)">
     <use transform="translate(0 0.09375)" xlink:href="#DejaVuSans-82"/>
     <use transform="translate(70.275117 -13.495312)scale(0.7)" xlink:href="#STIXGeneral-Regular-120251"/>
     <use transform="translate(104.995111 -13.495312)scale(0.7)" xlink:href="#STIXGeneral-Regular-120270"/>
     <use transform="translate(139.365104 -13.495312)scale(0.7)" xlink:href="#STIXGeneral-Regular-120261"/>
     <use transform="translate(153.715094 -13.495312)scale(0.7)" xlink:href="#STIXGeneral-Regular-120260"/>
    </g>
   </g>
   <g id="text_4">
    <!-- Q$\rm _{surf}$ -->
    <defs>
     <path d="M 33 32.09375 
L 31.5 32.09375 
Q 28.703125 36.5 25.890625 37.890625 
Q 23.09375 39.296875 19.203125 39.296875 
Q 16 39.296875 14.390625 37.6875 
Q 12.796875 36.09375 12.796875 34.203125 
Q 12.796875 31.703125 14.890625 29.953125 
Q 17 28.203125 21.203125 26.5 
Q 29.5 23 32.25 20.09375 
Q 35 17.203125 35 11.796875 
Q 35 5.203125 28.90625 1.40625 
Q 25.09375 -1 18.90625 -1 
Q 14.40625 -1 11.34375 0.296875 
Q 8.296875 1.59375 5 4.5 
L 5 14.796875 
L 6.5 14.796875 
Q 10.40625 6.09375 19.5 6.09375 
Q 22.703125 6.09375 24.890625 7.546875 
Q 27.09375 9 27.09375 11.796875 
Q 27.09375 13.796875 25.25 15.25 
Q 23.40625 16.703125 18.5 18.90625 
Q 10.90625 22.296875 7.90625 25.59375 
Q 4.90625 28.90625 4.90625 33.796875 
Q 4.90625 39 8.90625 42.640625 
Q 12.90625 46.296875 19.40625 46.296875 
Q 28 46.296875 33 41 
z
" id="STIXGeneral-Regular-120268"/>
     <path d="M 32.796875 37.703125 
L 30.796875 37.703125 
Q 29.796875 39.203125 26.90625 39.203125 
Q 22.59375 39.203125 19.25 35 
Q 15.90625 30.796875 14.203125 23.40625 
L 14.203125 0 
L 6.296875 0 
L 6.296875 44 
L 13.296875 46.40625 
L 14.203125 45.90625 
L 14.40625 39.5 
Q 19.203125 46.296875 27.09375 46.296875 
Q 30.796875 46.296875 32.796875 44.703125 
z
" id="STIXGeneral-Regular-120267"/>
     <path d="M 36.90625 63.296875 
L 34.5 57.40625 
L 32.90625 57.296875 
Q 30.796875 58.796875 29.796875 59.4375 
Q 28.796875 60.09375 27.5 60.640625 
Q 26.203125 61.203125 24.90625 61.203125 
Q 21.796875 61.203125 19.890625 58.703125 
Q 18 56.203125 18 50.90625 
L 18 45.296875 
L 29.40625 45.296875 
L 29.40625 38.203125 
L 18 38.203125 
L 18 0 
L 10.09375 0 
L 10.09375 38.203125 
L 2 38.203125 
L 2 45.296875 
L 10.09375 45.296875 
L 10.09375 49.40625 
Q 10.09375 59.296875 14.796875 64.296875 
Q 18.796875 68.296875 24.203125 68.296875 
Q 31 68.296875 36.90625 63.296875 
z
" id="STIXGeneral-Regular-120255"/>
    </defs>
    <g transform="translate(154.142 42.338438)scale(0.1 -0.1)">
     <use transform="translate(0 0.78125)" xlink:href="#DejaVuSans-81"/>
     <use transform="translate(79.503633 -12.807812)scale(0.7)" xlink:href="#STIXGeneral-Regular-120268"/>
     <use transform="translate(106.733629 -12.807812)scale(0.7)" xlink:href="#STIXGeneral-Regular-120270"/>
     <use transform="translate(141.103622 -12.807812)scale(0.7)" xlink:href="#STIXGeneral-Regular-120267"/>
     <use transform="translate(164.623616 -12.807812)scale(0.7)" xlink:href="#STIXGeneral-Regular-120255"/>
    </g>
   </g>
   <g id="text_5">
    <!-- R$\rm _{surf}$ -->
    <g transform="translate(154.592 69.878438)scale(0.1 -0.1)">
     <use transform="translate(0 0.09375)" xlink:href="#DejaVuSans-82"/>
     <use transform="translate(70.275117 -13.495312)scale(0.7)" xlink:href="#STIXGeneral-Regular-120268"/>
     <use transform="translate(97.505113 -13.495312)scale(0.7)" xlink:href="#STIXGeneral-Regular-120270"/>
     <use transform="translate(131.875107 -13.495312)scale(0.7)" xlink:href="#STIXGeneral-Regular-120267"/>
     <use transform="translate(155.3951 -13.495312)scale(0.7)" xlink:href="#STIXGeneral-Regular-120255"/>
    </g>
   </g>
  </g>
 </g>
 <defs>
  <clipPath id="p87d49c2c53">
   <rect height="74.358" width="196.344" x="7.2" y="13.665125"/>
  </clipPath>
 </defs>
</svg>
