<?xml version="1.0" encoding="utf-8" standalone="no"?>
<!DOCTYPE svg PUBLIC "-//W3C//DTD SVG 1.1//EN"
  "http://www.w3.org/Graphics/SVG/1.1/DTD/svg11.dtd">
<!-- Created with matplotlib (https://matplotlib.org/) -->
<svg height="235.85298pt" version="1.1" viewBox="0 0 459.143976 235.85298" width="459.143976pt" xmlns="http://www.w3.org/2000/svg" xmlns:xlink="http://www.w3.org/1999/xlink">
 <defs>
  <style type="text/css">
*{stroke-linecap:butt;stroke-linejoin:round;}
  </style>
 </defs>
 <g id="figure_1">
  <g id="patch_1">
   <path d="M 0 235.85298 
L 459.143976 235.85298 
L 459.143976 0 
L 0 0 
z
" style="fill:#ffffff;"/>
  </g>
  <g id="axes_1">
   <g id="patch_2">
    <path d="M 43.755 105.212527 
L 225.172323 105.212527 
L 225.172323 8.834575 
L 43.755 8.834575 
z
" style="fill:#ffffff;"/>
   </g>
   <g id="matplotlib.axis_1"/>
   <g id="matplotlib.axis_2">
    <g id="ytick_1">
     <g id="line2d_1">
      <defs>
       <path d="M 0 0 
L -3.5 0 
" id="m74c054f3f8" style="stroke:#000000;stroke-width:0.8;"/>
      </defs>
      <g>
       <use style="stroke:#000000;stroke-width:0.8;" x="43.755" xlink:href="#m74c054f3f8" y="100.833497"/>
      </g>
     </g>
     <g id="text_1">
      <!-- 0 -->
      <defs>
       <path d="M 31.78125 66.40625 
Q 24.171875 66.40625 20.328125 58.90625 
Q 16.5 51.421875 16.5 36.375 
Q 16.5 21.390625 20.328125 13.890625 
Q 24.171875 6.390625 31.78125 6.390625 
Q 39.453125 6.390625 43.28125 13.890625 
Q 47.125 21.390625 47.125 36.375 
Q 47.125 51.421875 43.28125 58.90625 
Q 39.453125 66.40625 31.78125 66.40625 
z
M 31.78125 74.21875 
Q 44.046875 74.21875 50.515625 64.515625 
Q 56.984375 54.828125 56.984375 36.375 
Q 56.984375 17.96875 50.515625 8.265625 
Q 44.046875 -1.421875 31.78125 -1.421875 
Q 19.53125 -1.421875 13.0625 8.265625 
Q 6.59375 17.96875 6.59375 36.375 
Q 6.59375 54.828125 13.0625 64.515625 
Q 19.53125 74.21875 31.78125 74.21875 
z
" id="DejaVuSans-48"/>
      </defs>
      <g transform="translate(31.665 103.872872)scale(0.08 -0.08)">
       <use xlink:href="#DejaVuSans-48"/>
      </g>
     </g>
    </g>
    <g id="ytick_2">
     <g id="line2d_2">
      <g>
       <use style="stroke:#000000;stroke-width:0.8;" x="43.755" xlink:href="#m74c054f3f8" y="78.184966"/>
      </g>
     </g>
     <g id="text_2">
      <!-- 1 -->
      <defs>
       <path d="M 12.40625 8.296875 
L 28.515625 8.296875 
L 28.515625 63.921875 
L 10.984375 60.40625 
L 10.984375 69.390625 
L 28.421875 72.90625 
L 38.28125 72.90625 
L 38.28125 8.296875 
L 54.390625 8.296875 
L 54.390625 0 
L 12.40625 0 
z
" id="DejaVuSans-49"/>
      </defs>
      <g transform="translate(31.665 81.224341)scale(0.08 -0.08)">
       <use xlink:href="#DejaVuSans-49"/>
      </g>
     </g>
    </g>
    <g id="ytick_3">
     <g id="line2d_3">
      <g>
       <use style="stroke:#000000;stroke-width:0.8;" x="43.755" xlink:href="#m74c054f3f8" y="55.536436"/>
      </g>
     </g>
     <g id="text_3">
      <!-- 2 -->
      <defs>
       <path d="M 19.1875 8.296875 
L 53.609375 8.296875 
L 53.609375 0 
L 7.328125 0 
L 7.328125 8.296875 
Q 12.9375 14.109375 22.625 23.890625 
Q 32.328125 33.6875 34.8125 36.53125 
Q 39.546875 41.84375 41.421875 45.53125 
Q 43.3125 49.21875 43.3125 52.78125 
Q 43.3125 58.59375 39.234375 62.25 
Q 35.15625 65.921875 28.609375 65.921875 
Q 23.96875 65.921875 18.8125 64.3125 
Q 13.671875 62.703125 7.8125 59.421875 
L 7.8125 69.390625 
Q 13.765625 71.78125 18.9375 73 
Q 24.125 74.21875 28.421875 74.21875 
Q 39.75 74.21875 46.484375 68.546875 
Q 53.21875 62.890625 53.21875 53.421875 
Q 53.21875 48.921875 51.53125 44.890625 
Q 49.859375 40.875 45.40625 35.40625 
Q 44.1875 33.984375 37.640625 27.21875 
Q 31.109375 20.453125 19.1875 8.296875 
z
" id="DejaVuSans-50"/>
      </defs>
      <g transform="translate(31.665 58.575811)scale(0.08 -0.08)">
       <use xlink:href="#DejaVuSans-50"/>
      </g>
     </g>
    </g>
    <g id="ytick_4">
     <g id="line2d_4">
      <g>
       <use style="stroke:#000000;stroke-width:0.8;" x="43.755" xlink:href="#m74c054f3f8" y="32.887905"/>
      </g>
     </g>
     <g id="text_4">
      <!-- 3 -->
      <defs>
       <path d="M 40.578125 39.3125 
Q 47.65625 37.796875 51.625 33 
Q 55.609375 28.21875 55.609375 21.1875 
Q 55.609375 10.40625 48.1875 4.484375 
Q 40.765625 -1.421875 27.09375 -1.421875 
Q 22.515625 -1.421875 17.65625 -0.515625 
Q 12.796875 0.390625 7.625 2.203125 
L 7.625 11.71875 
Q 11.71875 9.328125 16.59375 8.109375 
Q 21.484375 6.890625 26.8125 6.890625 
Q 36.078125 6.890625 40.9375 10.546875 
Q 45.796875 14.203125 45.796875 21.1875 
Q 45.796875 27.640625 41.28125 31.265625 
Q 36.765625 34.90625 28.71875 34.90625 
L 20.21875 34.90625 
L 20.21875 43.015625 
L 29.109375 43.015625 
Q 36.375 43.015625 40.234375 45.921875 
Q 44.09375 48.828125 44.09375 54.296875 
Q 44.09375 59.90625 40.109375 62.90625 
Q 36.140625 65.921875 28.71875 65.921875 
Q 24.65625 65.921875 20.015625 65.03125 
Q 15.375 64.15625 9.8125 62.3125 
L 9.8125 71.09375 
Q 15.4375 72.65625 20.34375 73.4375 
Q 25.25 74.21875 29.59375 74.21875 
Q 40.828125 74.21875 47.359375 69.109375 
Q 53.90625 64.015625 53.90625 55.328125 
Q 53.90625 49.265625 50.4375 45.09375 
Q 46.96875 40.921875 40.578125 39.3125 
z
" id="DejaVuSans-51"/>
      </defs>
      <g transform="translate(31.665 35.92728)scale(0.08 -0.08)">
       <use xlink:href="#DejaVuSans-51"/>
      </g>
     </g>
    </g>
    <g id="ytick_5">
     <g id="line2d_5">
      <g>
       <use style="stroke:#000000;stroke-width:0.8;" x="43.755" xlink:href="#m74c054f3f8" y="10.239375"/>
      </g>
     </g>
     <g id="text_5">
      <!-- 4 -->
      <defs>
       <path d="M 37.796875 64.3125 
L 12.890625 25.390625 
L 37.796875 25.390625 
z
M 35.203125 72.90625 
L 47.609375 72.90625 
L 47.609375 25.390625 
L 58.015625 25.390625 
L 58.015625 17.1875 
L 47.609375 17.1875 
L 47.609375 0 
L 37.796875 0 
L 37.796875 17.1875 
L 4.890625 17.1875 
L 4.890625 26.703125 
z
" id="DejaVuSans-52"/>
      </defs>
      <g transform="translate(31.665 13.27875)scale(0.08 -0.08)">
       <use xlink:href="#DejaVuSans-52"/>
      </g>
     </g>
    </g>
    <g id="text_6">
     <!-- -Im(Z) -->
     <defs>
      <path d="M 4.890625 31.390625 
L 31.203125 31.390625 
L 31.203125 23.390625 
L 4.890625 23.390625 
z
" id="DejaVuSans-45"/>
      <path d="M 9.8125 72.90625 
L 19.671875 72.90625 
L 19.671875 0 
L 9.8125 0 
z
" id="DejaVuSans-73"/>
      <path d="M 52 44.1875 
Q 55.375 50.25 60.0625 53.125 
Q 64.75 56 71.09375 56 
Q 79.640625 56 84.28125 50.015625 
Q 88.921875 44.046875 88.921875 33.015625 
L 88.921875 0 
L 79.890625 0 
L 79.890625 32.71875 
Q 79.890625 40.578125 77.09375 44.375 
Q 74.3125 48.1875 68.609375 48.1875 
Q 61.625 48.1875 57.5625 43.546875 
Q 53.515625 38.921875 53.515625 30.90625 
L 53.515625 0 
L 44.484375 0 
L 44.484375 32.71875 
Q 44.484375 40.625 41.703125 44.40625 
Q 38.921875 48.1875 33.109375 48.1875 
Q 26.21875 48.1875 22.15625 43.53125 
Q 18.109375 38.875 18.109375 30.90625 
L 18.109375 0 
L 9.078125 0 
L 9.078125 54.6875 
L 18.109375 54.6875 
L 18.109375 46.1875 
Q 21.1875 51.21875 25.484375 53.609375 
Q 29.78125 56 35.6875 56 
Q 41.65625 56 45.828125 52.96875 
Q 50 49.953125 52 44.1875 
z
" id="DejaVuSans-109"/>
      <path d="M 31 75.875 
Q 24.46875 64.65625 21.28125 53.65625 
Q 18.109375 42.671875 18.109375 31.390625 
Q 18.109375 20.125 21.3125 9.0625 
Q 24.515625 -2 31 -13.1875 
L 23.1875 -13.1875 
Q 15.875 -1.703125 12.234375 9.375 
Q 8.59375 20.453125 8.59375 31.390625 
Q 8.59375 42.28125 12.203125 53.3125 
Q 15.828125 64.359375 23.1875 75.875 
z
" id="DejaVuSans-40"/>
      <path d="M 5.609375 72.90625 
L 62.890625 72.90625 
L 62.890625 65.375 
L 16.796875 8.296875 
L 64.015625 8.296875 
L 64.015625 0 
L 4.5 0 
L 4.5 7.515625 
L 50.59375 64.59375 
L 5.609375 64.59375 
z
" id="DejaVuSans-90"/>
      <path d="M 8.015625 75.875 
L 15.828125 75.875 
Q 23.140625 64.359375 26.78125 53.3125 
Q 30.421875 42.28125 30.421875 31.390625 
Q 30.421875 20.453125 26.78125 9.375 
Q 23.140625 -1.703125 15.828125 -13.1875 
L 8.015625 -13.1875 
Q 14.5 -2 17.703125 9.0625 
Q 20.90625 20.125 20.90625 31.390625 
Q 20.90625 42.671875 17.703125 53.65625 
Q 14.5 64.65625 8.015625 75.875 
z
" id="DejaVuSans-41"/>
     </defs>
     <g transform="translate(26.00125 69.404176)rotate(-90)scale(0.08 -0.08)">
      <use xlink:href="#DejaVuSans-45"/>
      <use x="36.083984" xlink:href="#DejaVuSans-73"/>
      <use x="65.576172" xlink:href="#DejaVuSans-109"/>
      <use x="162.988281" xlink:href="#DejaVuSans-40"/>
      <use x="202.001953" xlink:href="#DejaVuSans-90"/>
      <use x="270.507812" xlink:href="#DejaVuSans-41"/>
     </g>
    </g>
   </g>
   <g id="line2d_6">
    <path clip-path="url(#p63fdb2d73b)" d="M 52.001242 99.914021 
L 58.631386 99.395986 
L 64.432762 98.709215 
L 69.405371 97.866447 
L 73.549211 96.91629 
L 76.864283 95.9442 
L 80.179355 94.735061 
L 83.494427 93.233701 
L 85.980731 91.876468 
L 88.467035 90.285329 
L 90.95334 88.423779 
L 93.439644 86.251396 
L 95.925948 83.724323 
L 98.412252 80.796367 
L 100.898556 77.42099 
L 103.38486 73.554617 
L 105.871164 69.161729 
L 108.357468 64.222324 
L 110.843772 58.742154 
L 113.330077 52.765871 
L 116.645149 44.20633 
L 122.446525 28.987438 
L 124.932829 23.197654 
L 126.590365 19.874698 
L 128.247901 17.120862 
L 129.905437 15.042287 
L 130.734205 14.283509 
L 131.562973 13.72273 
L 132.391741 13.365577 
L 133.220509 13.215391 
L 134.049277 13.273134 
L 134.878045 13.537364 
L 135.706813 14.004268 
L 136.535582 14.667764 
L 137.36435 15.519658 
L 139.021886 17.746594 
L 140.679422 20.586144 
L 142.336958 23.922174 
L 144.823262 29.586147 
L 154.768478 53.369908 
L 157.254782 58.388612 
L 159.741086 62.800406 
L 161.398623 65.390055 
L 163.056159 67.698138 
L 164.713695 69.730108 
L 166.371231 71.495502 
L 168.028767 73.007393 
L 169.686303 74.282147 
L 171.343839 75.339438 
L 173.001375 76.20245 
L 175.487679 77.192759 
L 177.973983 77.915113 
L 186.261664 80.028466 
L 188.747968 81.015115 
L 191.234272 82.263661 
L 193.720576 83.744806 
L 197.864416 86.527414 
L 203.665792 90.414066 
L 206.980864 92.361195 
L 210.295937 94.030778 
L 213.611009 95.419956 
L 216.926081 96.552307 
L 216.926081 96.552307 
" style="fill:none;stroke:#0370b8;stroke-linecap:square;"/>
   </g>
   <g id="line2d_7">
    <path clip-path="url(#p63fdb2d73b)" d="M 52.001242 100.831711 
L 107.5287 100.716155 
L 122.446525 100.472812 
L 131.562973 100.118251 
L 138.193118 99.658753 
L 143.994494 99.024159 
L 148.138334 98.37559 
L 152.282174 97.504123 
L 155.597246 96.60242 
L 158.912318 95.478379 
L 162.227391 94.095598 
L 165.542463 92.428091 
L 168.857535 90.477137 
L 173.001375 87.731161 
L 177.973983 84.41761 
L 180.460287 83.03389 
L 182.117823 82.31315 
L 183.775359 81.801559 
L 185.432896 81.53 
L 187.090432 81.515648 
L 188.747968 81.759426 
L 190.405504 82.245865 
L 192.06304 82.945407 
L 194.549344 84.306336 
L 197.864416 86.468805 
L 204.49456 90.878045 
L 207.809633 92.77594 
L 211.124705 94.386889 
L 214.439777 95.716694 
L 216.926081 96.546628 
L 216.926081 96.546628 
" style="fill:none;stroke:#d56339;stroke-linecap:square;stroke-width:1.1;"/>
   </g>
   <g id="line2d_8">
    <path clip-path="url(#p63fdb2d73b)" d="M 52.001242 99.978091 
L 58.631386 99.501413 
L 64.432762 98.872088 
L 69.405371 98.102684 
L 73.549211 97.238033 
L 76.864283 96.355787 
L 80.179355 95.261043 
L 83.494427 93.904981 
L 85.980731 92.681599 
L 88.467035 91.249832 
L 90.95334 89.577469 
L 93.439644 87.628801 
L 95.925948 85.36498 
L 98.412252 82.744852 
L 100.898556 79.726499 
L 103.38486 76.269812 
L 105.871164 72.340495 
L 108.357468 67.915944 
L 110.843772 62.993427 
L 113.330077 57.600763 
L 116.645149 49.810228 
L 124.104061 31.787957 
L 125.761597 28.255989 
L 127.419133 25.123494 
L 129.076669 22.499913 
L 130.734205 20.484953 
L 131.562973 19.732152 
L 132.391741 19.1603 
L 133.220509 18.775558 
L 134.049277 18.582123 
L 134.878045 18.582123 
L 135.706813 18.775558 
L 136.535582 19.1603 
L 137.36435 19.732152 
L 138.193118 20.484953 
L 139.850654 22.499913 
L 141.50819 25.123494 
L 143.165726 28.255989 
L 145.65203 33.668857 
L 148.967102 41.648831 
L 154.768478 55.709523 
L 157.254782 61.24562 
L 159.741086 66.329805 
L 162.227391 70.921306 
L 164.713695 75.013979 
L 167.199999 78.624834 
L 169.686303 81.785031 
L 172.172607 84.533268 
L 174.658911 86.911207 
L 177.145215 88.960473 
L 179.631519 90.720804 
L 182.117823 92.229014 
L 184.604128 93.518499 
L 187.9192 94.948639 
L 191.234272 96.103774 
L 194.549344 97.035056 
L 198.693184 97.948071 
L 202.837024 98.643149 
L 207.809633 99.261014 
L 213.611009 99.765953 
L 216.926081 99.978091 
L 216.926081 99.978091 
" style="fill:none;stroke:#eeb92e;stroke-linecap:square;stroke-width:1.1;"/>
   </g>
   <g id="patch_3">
    <path d="M 43.755 105.212527 
L 43.755 8.834575 
" style="fill:none;stroke:#000000;stroke-linecap:square;stroke-linejoin:miter;stroke-width:0.8;"/>
   </g>
   <g id="patch_4">
    <path d="M 225.172323 105.212527 
L 225.172323 8.834575 
" style="fill:none;stroke:#000000;stroke-linecap:square;stroke-linejoin:miter;stroke-width:0.8;"/>
   </g>
   <g id="patch_5">
    <path d="M 43.755 105.212527 
L 225.172323 105.212527 
" style="fill:none;stroke:#000000;stroke-linecap:square;stroke-linejoin:miter;stroke-width:0.8;"/>
   </g>
   <g id="patch_6">
    <path d="M 43.755 8.834575 
L 225.172323 8.834575 
" style="fill:none;stroke:#000000;stroke-linecap:square;stroke-linejoin:miter;stroke-width:0.8;"/>
   </g>
   <g id="legend_1">
    <g id="patch_7">
     <path d="M 148.672323 42.4552 
L 218.872323 42.4552 
Q 220.672323 42.4552 220.672323 40.6552 
L 220.672323 15.134575 
Q 220.672323 13.334575 218.872323 13.334575 
L 148.672323 13.334575 
Q 146.872323 13.334575 146.872323 15.134575 
L 146.872323 40.6552 
Q 146.872323 42.4552 148.672323 42.4552 
z
" style="fill:#ffffff;opacity:0.8;stroke:#cccccc;stroke-linejoin:miter;"/>
    </g>
    <g id="line2d_9">
     <path d="M 150.472323 20.623168 
L 168.472323 20.623168 
" style="fill:none;stroke:#d56339;stroke-linecap:square;stroke-width:1.1;"/>
    </g>
    <g id="line2d_10"/>
    <g id="text_7">
     <!-- Q$\rm _{SC}$ / R$\rm _{Bulk}$ -->
     <defs>
      <path d="M 39.40625 66.21875 
Q 28.65625 66.21875 22.328125 58.203125 
Q 16.015625 50.203125 16.015625 36.375 
Q 16.015625 22.609375 22.328125 14.59375 
Q 28.65625 6.59375 39.40625 6.59375 
Q 50.140625 6.59375 56.421875 14.59375 
Q 62.703125 22.609375 62.703125 36.375 
Q 62.703125 50.203125 56.421875 58.203125 
Q 50.140625 66.21875 39.40625 66.21875 
z
M 53.21875 1.3125 
L 66.21875 -12.890625 
L 54.296875 -12.890625 
L 43.5 -1.21875 
Q 41.890625 -1.3125 41.03125 -1.359375 
Q 40.1875 -1.421875 39.40625 -1.421875 
Q 24.03125 -1.421875 14.8125 8.859375 
Q 5.609375 19.140625 5.609375 36.375 
Q 5.609375 53.65625 14.8125 63.9375 
Q 24.03125 74.21875 39.40625 74.21875 
Q 54.734375 74.21875 63.90625 63.9375 
Q 73.09375 53.65625 73.09375 36.375 
Q 73.09375 23.6875 67.984375 14.640625 
Q 62.890625 5.609375 53.21875 1.3125 
z
" id="DejaVuSans-81"/>
      <path d="M 44.90625 47.703125 
L 43 47.703125 
Q 40.59375 53.703125 35.796875 56.84375 
Q 31 60 25.203125 60 
Q 20.59375 60 17.59375 57.203125 
Q 14.59375 54.40625 14.59375 50.5 
Q 14.59375 43.5 28.703125 37.796875 
Q 39.40625 33.59375 43.75 28.84375 
Q 48.09375 24.09375 48.09375 16.796875 
Q 48.09375 9.40625 42.40625 4.09375 
Q 36.296875 -1.40625 25.796875 -1.40625 
Q 11.203125 -1.40625 4.5 7 
L 3.203125 20.5 
L 5 20.5 
Q 8.296875 13.203125 14 9.703125 
Q 19.703125 6.203125 25.40625 6.203125 
Q 31.703125 6.203125 35.453125 8.84375 
Q 39.203125 11.5 39.203125 15.796875 
Q 39.203125 20.296875 36.203125 23.296875 
Q 33.203125 26.296875 26.40625 29.09375 
Q 15.5 33.5 10.796875 38.25 
Q 6.09375 43 6.09375 50.09375 
Q 6.09375 58 11.59375 62.796875 
Q 17.09375 67.59375 25.703125 67.59375 
Q 38.09375 67.59375 44.90625 59.59375 
z
" id="STIXGeneral-Regular-120242"/>
      <path d="M 58.59375 17 
L 63.703125 11.90625 
Q 53.40625 -1.40625 36.40625 -1.40625 
Q 20.703125 -1.40625 11.703125 8.25 
Q 2.703125 17.90625 2.703125 33.296875 
Q 2.703125 48.09375 12.046875 57.84375 
Q 21.40625 67.59375 36.296875 67.59375 
Q 43.796875 67.59375 50.6875 64.640625 
Q 57.59375 61.703125 61.703125 55.40625 
L 61.703125 45.296875 
L 59.796875 45.296875 
Q 56.5 53.296875 50.140625 56.640625 
Q 43.796875 60 36.40625 60 
Q 25.296875 60 18.4375 52.453125 
Q 11.59375 44.90625 11.59375 33.5 
Q 11.59375 21.09375 18.296875 13.640625 
Q 25 6.203125 36.703125 6.203125 
Q 49 6.203125 58.59375 17 
z
" id="STIXGeneral-Regular-120226"/>
      <path id="DejaVuSans-32"/>
      <path d="M 25.390625 72.90625 
L 33.6875 72.90625 
L 8.296875 -9.28125 
L 0 -9.28125 
z
" id="DejaVuSans-47"/>
      <path d="M 44.390625 34.1875 
Q 47.5625 33.109375 50.5625 29.59375 
Q 53.5625 26.078125 56.59375 19.921875 
L 66.609375 0 
L 56 0 
L 46.6875 18.703125 
Q 43.0625 26.03125 39.671875 28.421875 
Q 36.28125 30.8125 30.421875 30.8125 
L 19.671875 30.8125 
L 19.671875 0 
L 9.8125 0 
L 9.8125 72.90625 
L 32.078125 72.90625 
Q 44.578125 72.90625 50.734375 67.671875 
Q 56.890625 62.453125 56.890625 51.90625 
Q 56.890625 45.015625 53.6875 40.46875 
Q 50.484375 35.9375 44.390625 34.1875 
z
M 19.671875 64.796875 
L 19.671875 38.921875 
L 32.078125 38.921875 
Q 39.203125 38.921875 42.84375 42.21875 
Q 46.484375 45.515625 46.484375 51.90625 
Q 46.484375 58.296875 42.84375 61.546875 
Q 39.203125 64.796875 32.078125 64.796875 
z
" id="DejaVuSans-82"/>
      <path d="M 7.40625 66.203125 
L 27.90625 66.203125 
Q 51.09375 66.203125 51.09375 49.90625 
Q 51.09375 40.796875 41.90625 36.59375 
Q 54.703125 32.5 54.703125 19.296875 
Q 54.703125 14.09375 51.796875 9.59375 
Q 48.90625 5.09375 44.09375 2.59375 
Q 38.90625 0 31.40625 0 
L 7.40625 0 
z
M 16.09375 39.40625 
L 25.09375 39.40625 
Q 33.90625 39.40625 38.046875 41.953125 
Q 42.203125 44.5 42.203125 49.90625 
Q 42.203125 54.5 39.046875 56.640625 
Q 35.90625 58.796875 29.09375 58.796875 
L 16.09375 58.796875 
z
M 16.09375 7.40625 
L 28.703125 7.40625 
Q 37.40625 7.40625 41.59375 10.953125 
Q 45.796875 14.5 45.796875 20.203125 
Q 45.796875 23.796875 43.84375 26.546875 
Q 41.90625 29.296875 38.5 30.40625 
Q 34.40625 31.703125 24 31.703125 
L 16.09375 31.703125 
z
" id="STIXGeneral-Regular-120225"/>
      <path d="M 43 1.296875 
L 35.90625 -1.09375 
L 35 -0.59375 
L 34.796875 5.90625 
Q 31.90625 2.703125 27.75 0.84375 
Q 23.59375 -1 19.703125 -1 
Q 13.703125 -1 9 3.5 
Q 6.296875 7 6.296875 13.09375 
L 6.296875 45.296875 
L 14.203125 45.296875 
L 14.203125 14.90625 
Q 14.203125 6.09375 22.40625 6.09375 
Q 25.203125 6.09375 29.09375 9.046875 
Q 33 12 34.5 16.09375 
L 34.5 45.296875 
L 42.40625 45.296875 
L 42.40625 12.796875 
Q 42.40625 6.203125 43 1.296875 
z
" id="STIXGeneral-Regular-120270"/>
      <path d="M 14.40625 0 
L 6.09375 0 
L 6.09375 66 
L 13.5 68.40625 
L 14.40625 67.90625 
z
" id="STIXGeneral-Regular-120261"/>
      <path d="M 45.203125 0 
L 34.90625 0 
L 14.203125 20.703125 
L 14.203125 0 
L 6.296875 0 
L 6.296875 66 
L 13.296875 68.40625 
L 14.203125 67.90625 
L 14.203125 30.296875 
L 34 45.296875 
L 44.40625 45.296875 
L 44.40625 43.90625 
L 19.796875 25.5 
z
" id="STIXGeneral-Regular-120260"/>
     </defs>
     <g transform="translate(175.672323 23.773168)scale(0.09 -0.09)">
      <use transform="translate(0 0.78125)" xlink:href="#DejaVuSans-81"/>
      <use transform="translate(79.503633 -12.807812)scale(0.7)" xlink:href="#STIXGeneral-Regular-120242"/>
      <use transform="translate(117.373626 -12.807812)scale(0.7)" xlink:href="#STIXGeneral-Regular-120226"/>
      <use transform="translate(166.608464 0.78125)" xlink:href="#DejaVuSans-32"/>
      <use transform="translate(198.395573 0.78125)" xlink:href="#DejaVuSans-47"/>
      <use transform="translate(232.086979 0.78125)" xlink:href="#DejaVuSans-32"/>
      <use transform="translate(263.874089 0.78125)" xlink:href="#DejaVuSans-82"/>
      <use transform="translate(334.149206 -12.807812)scale(0.7)" xlink:href="#STIXGeneral-Regular-120225"/>
      <use transform="translate(376.429202 -12.807812)scale(0.7)" xlink:href="#STIXGeneral-Regular-120270"/>
      <use transform="translate(410.799195 -12.807812)scale(0.7)" xlink:href="#STIXGeneral-Regular-120261"/>
      <use transform="translate(425.149185 -12.807812)scale(0.7)" xlink:href="#STIXGeneral-Regular-120260"/>
     </g>
    </g>
    <g id="line2d_11">
     <path d="M 150.472323 33.833481 
L 168.472323 33.833481 
" style="fill:none;stroke:#eeb92e;stroke-linecap:square;stroke-width:1.1;"/>
    </g>
    <g id="line2d_12"/>
    <g id="text_8">
     <!-- Q$\rm _{SS}$ / R$\rm _{SS}$ -->
     <g transform="translate(175.672323 36.983481)scale(0.09 -0.09)">
      <use transform="translate(0 0.78125)" xlink:href="#DejaVuSans-81"/>
      <use transform="translate(79.503633 -12.807812)scale(0.7)" xlink:href="#STIXGeneral-Regular-120242"/>
      <use transform="translate(117.373626 -12.807812)scale(0.7)" xlink:href="#STIXGeneral-Regular-120242"/>
      <use transform="translate(157.508464 0.78125)" xlink:href="#DejaVuSans-32"/>
      <use transform="translate(189.295573 0.78125)" xlink:href="#DejaVuSans-47"/>
      <use transform="translate(222.986979 0.78125)" xlink:href="#DejaVuSans-32"/>
      <use transform="translate(254.774089 0.78125)" xlink:href="#DejaVuSans-82"/>
      <use transform="translate(325.049206 -12.807812)scale(0.7)" xlink:href="#STIXGeneral-Regular-120242"/>
      <use transform="translate(362.9192 -12.807812)scale(0.7)" xlink:href="#STIXGeneral-Regular-120242"/>
     </g>
    </g>
   </g>
  </g>
  <g id="axes_2">
   <g id="patch_8">
    <path d="M 43.755 201.59048 
L 225.172323 201.59048 
L 225.172323 105.212527 
L 43.755 105.212527 
z
" style="fill:#ffffff;"/>
   </g>
   <g id="matplotlib.axis_3">
    <g id="xtick_1">
     <g id="line2d_13">
      <defs>
       <path d="M 0 0 
L 0 3.5 
" id="meccf99f052" style="stroke:#000000;stroke-width:0.8;"/>
      </defs>
      <g>
       <use style="stroke:#000000;stroke-width:0.8;" x="79.488715" xlink:href="#meccf99f052" y="201.59048"/>
      </g>
     </g>
     <g id="text_9">
      <!-- $\mathdefault{10^{-2}}$ -->
      <defs>
       <path d="M 10.59375 35.5 
L 73.1875 35.5 
L 73.1875 27.203125 
L 10.59375 27.203125 
z
" id="DejaVuSans-8722"/>
      </defs>
      <g transform="translate(70.088715 214.66923)scale(0.08 -0.08)">
       <use transform="translate(0 0.765625)" xlink:href="#DejaVuSans-49"/>
       <use transform="translate(63.623047 0.765625)" xlink:href="#DejaVuSans-48"/>
       <use transform="translate(128.203125 39.046875)scale(0.7)" xlink:href="#DejaVuSans-8722"/>
       <use transform="translate(186.855469 39.046875)scale(0.7)" xlink:href="#DejaVuSans-50"/>
      </g>
     </g>
    </g>
    <g id="xtick_2">
     <g id="line2d_14">
      <g>
       <use style="stroke:#000000;stroke-width:0.8;" x="134.463661" xlink:href="#meccf99f052" y="201.59048"/>
      </g>
     </g>
     <g id="text_10">
      <!-- $\mathdefault{10^{0}}$ -->
      <g transform="translate(127.423661 214.66923)scale(0.08 -0.08)">
       <use transform="translate(0 0.765625)" xlink:href="#DejaVuSans-49"/>
       <use transform="translate(63.623047 0.765625)" xlink:href="#DejaVuSans-48"/>
       <use transform="translate(128.203125 39.046875)scale(0.7)" xlink:href="#DejaVuSans-48"/>
      </g>
     </g>
    </g>
    <g id="xtick_3">
     <g id="line2d_15">
      <g>
       <use style="stroke:#000000;stroke-width:0.8;" x="189.438608" xlink:href="#meccf99f052" y="201.59048"/>
      </g>
     </g>
     <g id="text_11">
      <!-- $\mathdefault{10^{2}}$ -->
      <g transform="translate(182.398608 214.66923)scale(0.08 -0.08)">
       <use transform="translate(0 0.765625)" xlink:href="#DejaVuSans-49"/>
       <use transform="translate(63.623047 0.765625)" xlink:href="#DejaVuSans-48"/>
       <use transform="translate(128.203125 39.046875)scale(0.7)" xlink:href="#DejaVuSans-50"/>
      </g>
     </g>
    </g>
    <g id="text_12">
     <!-- $\omega$ [rad $\cdot$ s$^{-1}$] -->
     <defs>
      <path d="M 26.859375 -1.421875 
Q 6.59375 -1.421875 6.59375 27.59375 
Q 6.59375 39.0625 14.15625 54.6875 
L 23.828125 54.6875 
Q 16.84375 39.0625 16.84375 27.34375 
Q 16.84375 6.203125 27.6875 6.203125 
Q 37.59375 6.203125 37.59375 32.46875 
L 45.90625 32.46875 
Q 45.90625 6.203125 55.8125 6.203125 
Q 66.65625 6.203125 66.65625 27.34375 
Q 66.65625 39.0625 59.671875 54.6875 
L 69.34375 54.6875 
Q 76.90625 39.0625 76.90625 27.59375 
Q 76.90625 -1.421875 56.640625 -1.421875 
Q 43.359375 -1.421875 41.75 13.1875 
Q 39.75 -1.421875 26.859375 -1.421875 
z
" id="DejaVuSans-969"/>
      <path d="M 8.59375 75.984375 
L 29.296875 75.984375 
L 29.296875 69 
L 17.578125 69 
L 17.578125 -6.203125 
L 29.296875 -6.203125 
L 29.296875 -13.1875 
L 8.59375 -13.1875 
z
" id="DejaVuSans-91"/>
      <path d="M 41.109375 46.296875 
Q 39.59375 47.171875 37.8125 47.578125 
Q 36.03125 48 33.890625 48 
Q 26.265625 48 22.1875 43.046875 
Q 18.109375 38.09375 18.109375 28.8125 
L 18.109375 0 
L 9.078125 0 
L 9.078125 54.6875 
L 18.109375 54.6875 
L 18.109375 46.1875 
Q 20.953125 51.171875 25.484375 53.578125 
Q 30.03125 56 36.53125 56 
Q 37.453125 56 38.578125 55.875 
Q 39.703125 55.765625 41.0625 55.515625 
z
" id="DejaVuSans-114"/>
      <path d="M 34.28125 27.484375 
Q 23.390625 27.484375 19.1875 25 
Q 14.984375 22.515625 14.984375 16.5 
Q 14.984375 11.71875 18.140625 8.90625 
Q 21.296875 6.109375 26.703125 6.109375 
Q 34.1875 6.109375 38.703125 11.40625 
Q 43.21875 16.703125 43.21875 25.484375 
L 43.21875 27.484375 
z
M 52.203125 31.203125 
L 52.203125 0 
L 43.21875 0 
L 43.21875 8.296875 
Q 40.140625 3.328125 35.546875 0.953125 
Q 30.953125 -1.421875 24.3125 -1.421875 
Q 15.921875 -1.421875 10.953125 3.296875 
Q 6 8.015625 6 15.921875 
Q 6 25.140625 12.171875 29.828125 
Q 18.359375 34.515625 30.609375 34.515625 
L 43.21875 34.515625 
L 43.21875 35.40625 
Q 43.21875 41.609375 39.140625 45 
Q 35.0625 48.390625 27.6875 48.390625 
Q 23 48.390625 18.546875 47.265625 
Q 14.109375 46.140625 10.015625 43.890625 
L 10.015625 52.203125 
Q 14.9375 54.109375 19.578125 55.046875 
Q 24.21875 56 28.609375 56 
Q 40.484375 56 46.34375 49.84375 
Q 52.203125 43.703125 52.203125 31.203125 
z
" id="DejaVuSans-97"/>
      <path d="M 45.40625 46.390625 
L 45.40625 75.984375 
L 54.390625 75.984375 
L 54.390625 0 
L 45.40625 0 
L 45.40625 8.203125 
Q 42.578125 3.328125 38.25 0.953125 
Q 33.9375 -1.421875 27.875 -1.421875 
Q 17.96875 -1.421875 11.734375 6.484375 
Q 5.515625 14.40625 5.515625 27.296875 
Q 5.515625 40.1875 11.734375 48.09375 
Q 17.96875 56 27.875 56 
Q 33.9375 56 38.25 53.625 
Q 42.578125 51.265625 45.40625 46.390625 
z
M 14.796875 27.296875 
Q 14.796875 17.390625 18.875 11.75 
Q 22.953125 6.109375 30.078125 6.109375 
Q 37.203125 6.109375 41.296875 11.75 
Q 45.40625 17.390625 45.40625 27.296875 
Q 45.40625 37.203125 41.296875 42.84375 
Q 37.203125 48.484375 30.078125 48.484375 
Q 22.953125 48.484375 18.875 42.84375 
Q 14.796875 37.203125 14.796875 27.296875 
z
" id="DejaVuSans-100"/>
      <path d="M 10.6875 40.921875 
L 21 40.921875 
L 21 28.515625 
L 10.6875 28.515625 
z
" id="DejaVuSans-8901"/>
      <path d="M 44.28125 53.078125 
L 44.28125 44.578125 
Q 40.484375 46.53125 36.375 47.5 
Q 32.28125 48.484375 27.875 48.484375 
Q 21.1875 48.484375 17.84375 46.4375 
Q 14.5 44.390625 14.5 40.28125 
Q 14.5 37.15625 16.890625 35.375 
Q 19.28125 33.59375 26.515625 31.984375 
L 29.59375 31.296875 
Q 39.15625 29.25 43.1875 25.515625 
Q 47.21875 21.78125 47.21875 15.09375 
Q 47.21875 7.46875 41.1875 3.015625 
Q 35.15625 -1.421875 24.609375 -1.421875 
Q 20.21875 -1.421875 15.453125 -0.5625 
Q 10.6875 0.296875 5.421875 2 
L 5.421875 11.28125 
Q 10.40625 8.6875 15.234375 7.390625 
Q 20.0625 6.109375 24.8125 6.109375 
Q 31.15625 6.109375 34.5625 8.28125 
Q 37.984375 10.453125 37.984375 14.40625 
Q 37.984375 18.0625 35.515625 20.015625 
Q 33.0625 21.96875 24.703125 23.78125 
L 21.578125 24.515625 
Q 13.234375 26.265625 9.515625 29.90625 
Q 5.8125 33.546875 5.8125 39.890625 
Q 5.8125 47.609375 11.28125 51.796875 
Q 16.75 56 26.8125 56 
Q 31.78125 56 36.171875 55.265625 
Q 40.578125 54.546875 44.28125 53.078125 
z
" id="DejaVuSans-115"/>
      <path d="M 30.421875 75.984375 
L 30.421875 -13.1875 
L 9.71875 -13.1875 
L 9.71875 -6.203125 
L 21.390625 -6.203125 
L 21.390625 69 
L 9.71875 69 
L 9.71875 75.984375 
z
" id="DejaVuSans-93"/>
     </defs>
     <g transform="translate(109.903661 226.98923)scale(0.08 -0.08)">
      <use transform="translate(0 0.684375)" xlink:href="#DejaVuSans-969"/>
      <use transform="translate(83.740234 0.684375)" xlink:href="#DejaVuSans-32"/>
      <use transform="translate(115.527344 0.684375)" xlink:href="#DejaVuSans-91"/>
      <use transform="translate(154.541016 0.684375)" xlink:href="#DejaVuSans-114"/>
      <use transform="translate(195.654297 0.684375)" xlink:href="#DejaVuSans-97"/>
      <use transform="translate(256.933594 0.684375)" xlink:href="#DejaVuSans-100"/>
      <use transform="translate(320.410156 0.684375)" xlink:href="#DejaVuSans-32"/>
      <use transform="translate(352.197266 0.684375)" xlink:href="#DejaVuSans-8901"/>
      <use transform="translate(383.984375 0.684375)" xlink:href="#DejaVuSans-32"/>
      <use transform="translate(415.771484 0.684375)" xlink:href="#DejaVuSans-115"/>
      <use transform="translate(468.828125 38.965625)scale(0.7)" xlink:href="#DejaVuSans-8722"/>
      <use transform="translate(527.480469 38.965625)scale(0.7)" xlink:href="#DejaVuSans-49"/>
      <use transform="translate(574.750977 0.684375)" xlink:href="#DejaVuSans-93"/>
     </g>
    </g>
   </g>
   <g id="matplotlib.axis_4">
    <g id="ytick_6">
     <g id="line2d_16">
      <g>
       <use style="stroke:#000000;stroke-width:0.8;" x="43.755" xlink:href="#m74c054f3f8" y="197.300422"/>
      </g>
     </g>
     <g id="text_13">
      <!-- 0.0 -->
      <defs>
       <path d="M 10.6875 12.40625 
L 21 12.40625 
L 21 0 
L 10.6875 0 
z
" id="DejaVuSans-46"/>
      </defs>
      <g transform="translate(24.0325 200.339797)scale(0.08 -0.08)">
       <use xlink:href="#DejaVuSans-48"/>
       <use x="63.623047" xlink:href="#DejaVuSans-46"/>
       <use x="95.410156" xlink:href="#DejaVuSans-48"/>
      </g>
     </g>
    </g>
    <g id="ytick_7">
     <g id="line2d_17">
      <g>
       <use style="stroke:#000000;stroke-width:0.8;" x="43.755" xlink:href="#m74c054f3f8" y="179.046524"/>
      </g>
     </g>
     <g id="text_14">
      <!-- 2.5 -->
      <defs>
       <path d="M 10.796875 72.90625 
L 49.515625 72.90625 
L 49.515625 64.59375 
L 19.828125 64.59375 
L 19.828125 46.734375 
Q 21.96875 47.46875 24.109375 47.828125 
Q 26.265625 48.1875 28.421875 48.1875 
Q 40.625 48.1875 47.75 41.5 
Q 54.890625 34.8125 54.890625 23.390625 
Q 54.890625 11.625 47.5625 5.09375 
Q 40.234375 -1.421875 26.90625 -1.421875 
Q 22.3125 -1.421875 17.546875 -0.640625 
Q 12.796875 0.140625 7.71875 1.703125 
L 7.71875 11.625 
Q 12.109375 9.234375 16.796875 8.0625 
Q 21.484375 6.890625 26.703125 6.890625 
Q 35.15625 6.890625 40.078125 11.328125 
Q 45.015625 15.765625 45.015625 23.390625 
Q 45.015625 31 40.078125 35.4375 
Q 35.15625 39.890625 26.703125 39.890625 
Q 22.75 39.890625 18.8125 39.015625 
Q 14.890625 38.140625 10.796875 36.28125 
z
" id="DejaVuSans-53"/>
      </defs>
      <g transform="translate(24.0325 182.085899)scale(0.08 -0.08)">
       <use xlink:href="#DejaVuSans-50"/>
       <use x="63.623047" xlink:href="#DejaVuSans-46"/>
       <use x="95.410156" xlink:href="#DejaVuSans-53"/>
      </g>
     </g>
    </g>
    <g id="ytick_8">
     <g id="line2d_18">
      <g>
       <use style="stroke:#000000;stroke-width:0.8;" x="43.755" xlink:href="#m74c054f3f8" y="160.792627"/>
      </g>
     </g>
     <g id="text_15">
      <!-- 5.0 -->
      <g transform="translate(24.0325 163.832002)scale(0.08 -0.08)">
       <use xlink:href="#DejaVuSans-53"/>
       <use x="63.623047" xlink:href="#DejaVuSans-46"/>
       <use x="95.410156" xlink:href="#DejaVuSans-48"/>
      </g>
     </g>
    </g>
    <g id="ytick_9">
     <g id="line2d_19">
      <g>
       <use style="stroke:#000000;stroke-width:0.8;" x="43.755" xlink:href="#m74c054f3f8" y="142.53873"/>
      </g>
     </g>
     <g id="text_16">
      <!-- 7.5 -->
      <defs>
       <path d="M 8.203125 72.90625 
L 55.078125 72.90625 
L 55.078125 68.703125 
L 28.609375 0 
L 18.3125 0 
L 43.21875 64.59375 
L 8.203125 64.59375 
z
" id="DejaVuSans-55"/>
      </defs>
      <g transform="translate(24.0325 145.578105)scale(0.08 -0.08)">
       <use xlink:href="#DejaVuSans-55"/>
       <use x="63.623047" xlink:href="#DejaVuSans-46"/>
       <use x="95.410156" xlink:href="#DejaVuSans-53"/>
      </g>
     </g>
    </g>
    <g id="ytick_10">
     <g id="line2d_20">
      <g>
       <use style="stroke:#000000;stroke-width:0.8;" x="43.755" xlink:href="#m74c054f3f8" y="124.284833"/>
      </g>
     </g>
     <g id="text_17">
      <!-- 10.0 -->
      <g transform="translate(18.9425 127.324208)scale(0.08 -0.08)">
       <use xlink:href="#DejaVuSans-49"/>
       <use x="63.623047" xlink:href="#DejaVuSans-48"/>
       <use x="127.246094" xlink:href="#DejaVuSans-46"/>
       <use x="159.033203" xlink:href="#DejaVuSans-48"/>
      </g>
     </g>
    </g>
    <g id="ytick_11">
     <g id="line2d_21">
      <g>
       <use style="stroke:#000000;stroke-width:0.8;" x="43.755" xlink:href="#m74c054f3f8" y="106.030935"/>
      </g>
     </g>
     <g id="text_18">
      <!-- 12.5 -->
      <g transform="translate(18.9425 109.07031)scale(0.08 -0.08)">
       <use xlink:href="#DejaVuSans-49"/>
       <use x="63.623047" xlink:href="#DejaVuSans-50"/>
       <use x="127.246094" xlink:href="#DejaVuSans-46"/>
       <use x="159.033203" xlink:href="#DejaVuSans-53"/>
      </g>
     </g>
    </g>
    <g id="text_19">
     <!-- Re(Z) -->
     <defs>
      <path d="M 56.203125 29.59375 
L 56.203125 25.203125 
L 14.890625 25.203125 
Q 15.484375 15.921875 20.484375 11.0625 
Q 25.484375 6.203125 34.421875 6.203125 
Q 39.59375 6.203125 44.453125 7.46875 
Q 49.3125 8.734375 54.109375 11.28125 
L 54.109375 2.78125 
Q 49.265625 0.734375 44.1875 -0.34375 
Q 39.109375 -1.421875 33.890625 -1.421875 
Q 20.796875 -1.421875 13.15625 6.1875 
Q 5.515625 13.8125 5.515625 26.8125 
Q 5.515625 40.234375 12.765625 48.109375 
Q 20.015625 56 32.328125 56 
Q 43.359375 56 49.78125 48.890625 
Q 56.203125 41.796875 56.203125 29.59375 
z
M 47.21875 32.234375 
Q 47.125 39.59375 43.09375 43.984375 
Q 39.0625 48.390625 32.421875 48.390625 
Q 24.90625 48.390625 20.390625 44.140625 
Q 15.875 39.890625 15.1875 32.171875 
z
" id="DejaVuSans-101"/>
     </defs>
     <g transform="translate(13.27875 164.500879)rotate(-90)scale(0.08 -0.08)">
      <use xlink:href="#DejaVuSans-82"/>
      <use x="69.419922" xlink:href="#DejaVuSans-101"/>
      <use x="130.943359" xlink:href="#DejaVuSans-40"/>
      <use x="169.957031" xlink:href="#DejaVuSans-90"/>
      <use x="238.462891" xlink:href="#DejaVuSans-41"/>
     </g>
    </g>
   </g>
   <g id="line2d_22">
    <path clip-path="url(#p0111f8c0af)" d="M 52.001242 109.593343 
L 69.405371 109.810768 
L 79.350587 110.128383 
L 86.809499 110.583062 
L 91.782108 111.074278 
L 95.925948 111.66772 
L 99.24102 112.316281 
L 102.556092 113.177983 
L 105.042396 114.007491 
L 107.5287 115.036624 
L 110.015004 116.311607 
L 112.501308 117.885481 
L 114.987613 119.816044 
L 117.473917 122.161437 
L 119.960221 124.972658 
L 122.446525 128.282858 
L 124.932829 132.094461 
L 127.419133 136.36694 
L 130.734205 142.616921 
L 139.021886 158.708897 
L 141.50819 162.995329 
L 143.994494 166.829758 
L 146.480798 170.173994 
L 148.967102 173.032557 
L 151.453406 175.440536 
L 153.93971 177.45099 
L 156.426014 179.124632 
L 158.912318 180.522761 
L 161.398623 181.703247 
L 164.713695 183.029053 
L 169.686303 184.704371 
L 178.802751 187.672572 
L 183.775359 189.544934 
L 192.891808 193.065193 
L 196.20688 194.106238 
L 199.521952 194.938603 
L 202.837024 195.567955 
L 206.980864 196.116817 
L 211.953473 196.524907 
L 216.926081 196.761454 
L 216.926081 196.761454 
" style="fill:none;stroke:#0370b8;stroke-linecap:square;"/>
   </g>
   <g id="line2d_23">
    <path clip-path="url(#p0111f8c0af)" d="M 52.001242 182.697395 
L 143.165726 182.805583 
L 154.768478 183.021124 
L 161.398623 183.339017 
L 166.371231 183.791761 
L 170.515071 184.41043 
L 173.830143 185.131384 
L 177.145215 186.100612 
L 180.460287 187.332024 
L 184.604128 189.170208 
L 192.06304 192.590745 
L 195.378112 193.836002 
L 198.693184 194.819712 
L 202.008256 195.55337 
L 205.323328 196.079215 
L 209.467169 196.519661 
L 215.268545 196.876011 
L 216.926081 196.941937 
L 216.926081 196.941937 
" style="fill:none;stroke:#d56339;stroke-linecap:square;stroke-width:1.1;"/>
   </g>
   <g id="line2d_24">
    <path clip-path="url(#p0111f8c0af)" d="M 52.001242 124.37559 
L 70.234139 124.600293 
L 80.179355 124.918239 
L 87.638267 125.369605 
L 93.439644 125.954387 
L 97.583484 126.575347 
L 100.898556 127.250369 
L 104.213628 128.142109 
L 106.699932 128.995646 
L 109.186236 130.048668 
L 111.67254 131.345138 
L 114.158845 132.934574 
L 116.645149 134.86965 
L 119.131453 137.201583 
L 121.617757 139.97278 
L 124.104061 143.20685 
L 126.590365 146.897219 
L 129.076669 150.997114 
L 132.391741 156.936181 
L 139.850654 170.58814 
L 142.336958 174.688035 
L 144.823262 178.378404 
L 147.309566 181.612474 
L 149.79587 184.383671 
L 152.282174 186.715604 
L 154.768478 188.65068 
L 157.254782 190.240116 
L 159.741086 191.536586 
L 162.227391 192.589609 
L 165.542463 193.690005 
L 168.857535 194.521554 
L 173.001375 195.283817 
L 177.973983 195.914715 
L 183.775359 196.395395 
L 191.234272 196.76928 
L 201.179488 197.034743 
L 216.926081 197.209664 
L 216.926081 197.209664 
" style="fill:none;stroke:#eeb92e;stroke-linecap:square;stroke-width:1.1;"/>
   </g>
   <g id="patch_9">
    <path d="M 43.755 201.59048 
L 43.755 105.212527 
" style="fill:none;stroke:#000000;stroke-linecap:square;stroke-linejoin:miter;stroke-width:0.8;"/>
   </g>
   <g id="patch_10">
    <path d="M 225.172323 201.59048 
L 225.172323 105.212527 
" style="fill:none;stroke:#000000;stroke-linecap:square;stroke-linejoin:miter;stroke-width:0.8;"/>
   </g>
   <g id="patch_11">
    <path d="M 43.755 201.59048 
L 225.172323 201.59048 
" style="fill:none;stroke:#000000;stroke-linecap:square;stroke-linejoin:miter;stroke-width:0.8;"/>
   </g>
   <g id="patch_12">
    <path d="M 43.755 105.212527 
L 225.172323 105.212527 
" style="fill:none;stroke:#000000;stroke-linecap:square;stroke-linejoin:miter;stroke-width:0.8;"/>
   </g>
  </g>
  <g id="axes_3">
   <g id="patch_13">
    <path d="M 270.526654 134.298188 
L 451.943976 134.298188 
L 451.943976 76.126867 
L 270.526654 76.126867 
z
" style="fill:#ffffff;"/>
   </g>
   <g id="matplotlib.axis_5">
    <g id="xtick_4">
     <g id="line2d_25">
      <g>
       <use style="stroke:#000000;stroke-width:0.8;" x="277.753151" xlink:href="#meccf99f052" y="134.298188"/>
      </g>
     </g>
     <g id="text_20">
      <!-- 0 -->
      <g transform="translate(275.208151 147.376938)scale(0.08 -0.08)">
       <use xlink:href="#DejaVuSans-48"/>
      </g>
     </g>
    </g>
    <g id="xtick_5">
     <g id="line2d_26">
      <g>
       <use style="stroke:#000000;stroke-width:0.8;" x="305.382715" xlink:href="#meccf99f052" y="134.298188"/>
      </g>
     </g>
     <g id="text_21">
      <!-- 2 -->
      <g transform="translate(302.837715 147.376938)scale(0.08 -0.08)">
       <use xlink:href="#DejaVuSans-50"/>
      </g>
     </g>
    </g>
    <g id="xtick_6">
     <g id="line2d_27">
      <g>
       <use style="stroke:#000000;stroke-width:0.8;" x="333.012279" xlink:href="#meccf99f052" y="134.298188"/>
      </g>
     </g>
     <g id="text_22">
      <!-- 4 -->
      <g transform="translate(330.467279 147.376938)scale(0.08 -0.08)">
       <use xlink:href="#DejaVuSans-52"/>
      </g>
     </g>
    </g>
    <g id="xtick_7">
     <g id="line2d_28">
      <g>
       <use style="stroke:#000000;stroke-width:0.8;" x="360.641842" xlink:href="#meccf99f052" y="134.298188"/>
      </g>
     </g>
     <g id="text_23">
      <!-- 6 -->
      <defs>
       <path d="M 33.015625 40.375 
Q 26.375 40.375 22.484375 35.828125 
Q 18.609375 31.296875 18.609375 23.390625 
Q 18.609375 15.53125 22.484375 10.953125 
Q 26.375 6.390625 33.015625 6.390625 
Q 39.65625 6.390625 43.53125 10.953125 
Q 47.40625 15.53125 47.40625 23.390625 
Q 47.40625 31.296875 43.53125 35.828125 
Q 39.65625 40.375 33.015625 40.375 
z
M 52.59375 71.296875 
L 52.59375 62.3125 
Q 48.875 64.0625 45.09375 64.984375 
Q 41.3125 65.921875 37.59375 65.921875 
Q 27.828125 65.921875 22.671875 59.328125 
Q 17.53125 52.734375 16.796875 39.40625 
Q 19.671875 43.65625 24.015625 45.921875 
Q 28.375 48.1875 33.59375 48.1875 
Q 44.578125 48.1875 50.953125 41.515625 
Q 57.328125 34.859375 57.328125 23.390625 
Q 57.328125 12.15625 50.6875 5.359375 
Q 44.046875 -1.421875 33.015625 -1.421875 
Q 20.359375 -1.421875 13.671875 8.265625 
Q 6.984375 17.96875 6.984375 36.375 
Q 6.984375 53.65625 15.1875 63.9375 
Q 23.390625 74.21875 37.203125 74.21875 
Q 40.921875 74.21875 44.703125 73.484375 
Q 48.484375 72.75 52.59375 71.296875 
z
" id="DejaVuSans-54"/>
      </defs>
      <g transform="translate(358.096842 147.376938)scale(0.08 -0.08)">
       <use xlink:href="#DejaVuSans-54"/>
      </g>
     </g>
    </g>
    <g id="xtick_8">
     <g id="line2d_29">
      <g>
       <use style="stroke:#000000;stroke-width:0.8;" x="388.271406" xlink:href="#meccf99f052" y="134.298188"/>
      </g>
     </g>
     <g id="text_24">
      <!-- 8 -->
      <defs>
       <path d="M 31.78125 34.625 
Q 24.75 34.625 20.71875 30.859375 
Q 16.703125 27.09375 16.703125 20.515625 
Q 16.703125 13.921875 20.71875 10.15625 
Q 24.75 6.390625 31.78125 6.390625 
Q 38.8125 6.390625 42.859375 10.171875 
Q 46.921875 13.96875 46.921875 20.515625 
Q 46.921875 27.09375 42.890625 30.859375 
Q 38.875 34.625 31.78125 34.625 
z
M 21.921875 38.8125 
Q 15.578125 40.375 12.03125 44.71875 
Q 8.5 49.078125 8.5 55.328125 
Q 8.5 64.0625 14.71875 69.140625 
Q 20.953125 74.21875 31.78125 74.21875 
Q 42.671875 74.21875 48.875 69.140625 
Q 55.078125 64.0625 55.078125 55.328125 
Q 55.078125 49.078125 51.53125 44.71875 
Q 48 40.375 41.703125 38.8125 
Q 48.828125 37.15625 52.796875 32.3125 
Q 56.78125 27.484375 56.78125 20.515625 
Q 56.78125 9.90625 50.3125 4.234375 
Q 43.84375 -1.421875 31.78125 -1.421875 
Q 19.734375 -1.421875 13.25 4.234375 
Q 6.78125 9.90625 6.78125 20.515625 
Q 6.78125 27.484375 10.78125 32.3125 
Q 14.796875 37.15625 21.921875 38.8125 
z
M 18.3125 54.390625 
Q 18.3125 48.734375 21.84375 45.5625 
Q 25.390625 42.390625 31.78125 42.390625 
Q 38.140625 42.390625 41.71875 45.5625 
Q 45.3125 48.734375 45.3125 54.390625 
Q 45.3125 60.0625 41.71875 63.234375 
Q 38.140625 66.40625 31.78125 66.40625 
Q 25.390625 66.40625 21.84375 63.234375 
Q 18.3125 60.0625 18.3125 54.390625 
z
" id="DejaVuSans-56"/>
      </defs>
      <g transform="translate(385.726406 147.376938)scale(0.08 -0.08)">
       <use xlink:href="#DejaVuSans-56"/>
      </g>
     </g>
    </g>
    <g id="xtick_9">
     <g id="line2d_30">
      <g>
       <use style="stroke:#000000;stroke-width:0.8;" x="415.900969" xlink:href="#meccf99f052" y="134.298188"/>
      </g>
     </g>
     <g id="text_25">
      <!-- 10 -->
      <g transform="translate(410.810969 147.376938)scale(0.08 -0.08)">
       <use xlink:href="#DejaVuSans-49"/>
       <use x="63.623047" xlink:href="#DejaVuSans-48"/>
      </g>
     </g>
    </g>
    <g id="xtick_10">
     <g id="line2d_31">
      <g>
       <use style="stroke:#000000;stroke-width:0.8;" x="443.530533" xlink:href="#meccf99f052" y="134.298188"/>
      </g>
     </g>
     <g id="text_26">
      <!-- 12 -->
      <g transform="translate(438.440533 147.376938)scale(0.08 -0.08)">
       <use xlink:href="#DejaVuSans-49"/>
       <use x="63.623047" xlink:href="#DejaVuSans-50"/>
      </g>
     </g>
    </g>
    <g id="text_27">
     <!-- Re(Z) -->
     <g transform="translate(350.13594 159.119438)scale(0.08 -0.08)">
      <use xlink:href="#DejaVuSans-82"/>
      <use x="69.419922" xlink:href="#DejaVuSans-101"/>
      <use x="130.943359" xlink:href="#DejaVuSans-40"/>
      <use x="169.957031" xlink:href="#DejaVuSans-90"/>
      <use x="238.462891" xlink:href="#DejaVuSans-41"/>
     </g>
    </g>
   </g>
   <g id="matplotlib.axis_6">
    <g id="ytick_12">
     <g id="line2d_32">
      <g>
       <use style="stroke:#000000;stroke-width:0.8;" x="270.526654" xlink:href="#m74c054f3f8" y="132.214884"/>
      </g>
     </g>
     <g id="text_28">
      <!-- 0 -->
      <g transform="translate(258.436654 135.254259)scale(0.08 -0.08)">
       <use xlink:href="#DejaVuSans-48"/>
      </g>
     </g>
    </g>
    <g id="ytick_13">
     <g id="line2d_33">
      <g>
       <use style="stroke:#000000;stroke-width:0.8;" x="270.526654" xlink:href="#m74c054f3f8" y="104.58532"/>
      </g>
     </g>
     <g id="text_29">
      <!-- 2 -->
      <g transform="translate(258.436654 107.624695)scale(0.08 -0.08)">
       <use xlink:href="#DejaVuSans-50"/>
      </g>
     </g>
    </g>
    <g id="ytick_14">
     <g id="line2d_34">
      <g>
       <use style="stroke:#000000;stroke-width:0.8;" x="270.526654" xlink:href="#m74c054f3f8" y="76.955756"/>
      </g>
     </g>
     <g id="text_30">
      <!-- 4 -->
      <g transform="translate(258.436654 79.995131)scale(0.08 -0.08)">
       <use xlink:href="#DejaVuSans-52"/>
      </g>
     </g>
    </g>
    <g id="text_31">
     <!-- -Im(Z) -->
     <g transform="translate(252.772904 117.593152)rotate(-90)scale(0.08 -0.08)">
      <use xlink:href="#DejaVuSans-45"/>
      <use x="36.083984" xlink:href="#DejaVuSans-73"/>
      <use x="65.576172" xlink:href="#DejaVuSans-109"/>
      <use x="162.988281" xlink:href="#DejaVuSans-40"/>
      <use x="202.001953" xlink:href="#DejaVuSans-90"/>
      <use x="270.507812" xlink:href="#DejaVuSans-41"/>
     </g>
    </g>
   </g>
   <g id="line2d_35">
    <path clip-path="url(#pbdf8e0bf23)" d="M 443.697734 131.654037 
L 442.363223 127.827027 
L 440.895759 124.226063 
L 439.202571 120.617212 
L 437.367813 117.182473 
L 435.346027 113.826114 
L 433.398874 110.92491 
L 430.986566 107.690482 
L 428.008747 104.14117 
L 425.655512 101.622306 
L 422.969294 99.007734 
L 419.918501 96.330043 
L 416.475309 93.631596 
L 412.618477 90.964781 
L 408.336578 88.391394 
L 403.631352 85.980905 
L 398.520767 83.807426 
L 393.041237 81.94539 
L 390.179772 81.153214 
L 387.24841 80.464223 
L 384.256934 79.885358 
L 381.216074 79.422531 
L 378.13736 79.080477 
L 375.032942 78.862626 
L 371.915395 78.771018 
L 368.797499 78.806239 
L 365.692018 78.96741 
L 362.61148 79.252205 
L 359.567961 79.656913 
L 356.572889 80.176537 
L 353.63687 80.804918 
L 347.979472 82.35844 
L 342.659478 84.251162 
L 337.721567 86.409179 
L 333.191392 88.756585 
L 329.077216 91.220253 
L 325.372634 93.733413 
L 322.059811 96.23793 
L 319.112751 98.685376 
L 315.308908 102.16761 
L 311.208222 106.325044 
L 303.642803 114.319771 
L 302.085538 115.648126 
L 300.597998 116.664432 
L 299.11623 117.414649 
L 297.586439 117.95634 
L 295.407004 118.475853 
L 290.548494 119.52457 
L 288.064696 120.36272 
L 286.314582 121.175087 
L 284.734257 122.117036 
L 283.365194 123.139597 
L 281.889822 124.533092 
L 280.787102 125.859409 
L 279.833402 127.31801 
L 279.043367 128.91282 
L 278.772895 129.603513 
L 278.772895 129.603513 
" style="fill:none;stroke:#0370b8;stroke-linecap:square;"/>
   </g>
   <g id="line2d_36">
    <path clip-path="url(#pbdf8e0bf23)" d="M 298.613929 117.615188 
L 297.058514 118.10226 
L 294.24655 118.701753 
L 290.548494 119.52457 
L 288.064696 120.36272 
L 286.314582 121.175087 
L 284.734257 122.117036 
L 283.365194 123.139597 
L 281.889822 124.533092 
L 280.787102 125.859409 
L 279.833402 127.31801 
L 279.043367 128.91282 
L 278.772895 129.603513 
L 278.772895 129.603513 
" style="fill:none;stroke:#d56339;stroke-linecap:square;stroke-width:1.1;"/>
   </g>
   <g id="line2d_37">
    <path clip-path="url(#pbdf8e0bf23)" d="M 443.697734 131.654037 
L 442.363223 127.827027 
L 440.895759 124.226063 
L 439.202571 120.617212 
L 437.367813 117.182473 
L 435.346027 113.826114 
L 433.398874 110.92491 
L 430.986566 107.690482 
L 428.008747 104.14117 
L 425.655512 101.622306 
L 422.969294 99.007734 
L 419.918501 96.330043 
L 416.475309 93.631596 
L 412.618477 90.964781 
L 408.336578 88.391394 
L 403.631352 85.980905 
L 398.520767 83.807426 
L 393.041237 81.94539 
L 390.179772 81.153214 
L 387.24841 80.464223 
L 384.256934 79.885358 
L 381.216074 79.422531 
L 378.13736 79.080477 
L 375.032942 78.862626 
L 371.915395 78.771018 
L 368.797499 78.806239 
L 365.692018 78.96741 
L 362.61148 79.252205 
L 359.567961 79.656913 
L 356.572889 80.176537 
L 353.63687 80.804918 
L 347.979472 82.35844 
L 342.659478 84.251162 
L 337.721567 86.409179 
L 333.191392 88.756585 
L 329.077216 91.220253 
L 325.372634 93.733413 
L 322.059811 96.23793 
L 319.112751 98.685376 
L 315.308908 102.16761 
L 311.208222 106.325044 
L 303.642803 114.319771 
L 302.085538 115.648126 
L 300.597998 116.664432 
L 299.11623 117.414649 
L 299.11623 117.414649 
" style="fill:none;stroke:#eeb92e;stroke-linecap:square;stroke-width:1.1;"/>
   </g>
   <g id="patch_14">
    <path d="M 270.526654 134.298188 
L 270.526654 76.126867 
" style="fill:none;stroke:#000000;stroke-linecap:square;stroke-linejoin:miter;stroke-width:0.8;"/>
   </g>
   <g id="patch_15">
    <path d="M 451.943976 134.298188 
L 451.943976 76.126867 
" style="fill:none;stroke:#000000;stroke-linecap:square;stroke-linejoin:miter;stroke-width:0.8;"/>
   </g>
   <g id="patch_16">
    <path d="M 270.526654 134.298188 
L 451.943976 134.298188 
" style="fill:none;stroke:#000000;stroke-linecap:square;stroke-linejoin:miter;stroke-width:0.8;"/>
   </g>
   <g id="patch_17">
    <path d="M 270.526654 76.126867 
L 451.943976 76.126867 
" style="fill:none;stroke:#000000;stroke-linecap:square;stroke-linejoin:miter;stroke-width:0.8;"/>
   </g>
  </g>
 </g>
 <defs>
  <clipPath id="p63fdb2d73b">
   <rect height="96.377953" width="181.417323" x="43.755" y="8.834575"/>
  </clipPath>
  <clipPath id="p0111f8c0af">
   <rect height="96.377953" width="181.417323" x="43.755" y="105.212527"/>
  </clipPath>
  <clipPath id="pbdf8e0bf23">
   <rect height="58.171321" width="181.417323" x="270.526654" y="76.126867"/>
  </clipPath>
 </defs>
</svg>
