<?xml version="1.0" encoding="utf-8" standalone="no"?>
<!DOCTYPE svg PUBLIC "-//W3C//DTD SVG 1.1//EN"
  "http://www.w3.org/Graphics/SVG/1.1/DTD/svg11.dtd">
<!-- Created with matplotlib (https://matplotlib.org/) -->
<svg height="235.4443pt" version="1.1" viewBox="0 0 451.511476 235.4443" width="451.511476pt" xmlns="http://www.w3.org/2000/svg" xmlns:xlink="http://www.w3.org/1999/xlink">
 <defs>
  <style type="text/css">
*{stroke-linecap:butt;stroke-linejoin:round;}
  </style>
 </defs>
 <g id="figure_1">
  <g id="patch_1">
   <path d="M 0 235.4443 
L 451.511476 235.4443 
L 451.511476 0 
L 0 0 
z
" style="fill:#ffffff;"/>
  </g>
  <g id="axes_1">
   <g id="patch_2">
    <path d="M 36.1225 104.803847 
L 217.539823 104.803847 
L 217.539823 8.425894 
L 36.1225 8.425894 
z
" style="fill:#ffffff;"/>
   </g>
   <g id="matplotlib.axis_1"/>
   <g id="matplotlib.axis_2">
    <g id="ytick_1">
     <g id="line2d_1">
      <defs>
       <path d="M 0 0 
L -3.5 0 
" id="m34efbbb680" style="stroke:#000000;stroke-width:0.8;"/>
      </defs>
      <g>
       <use style="stroke:#000000;stroke-width:0.8;" x="36.1225" xlink:href="#m34efbbb680" y="100.43009"/>
      </g>
     </g>
     <g id="text_1">
      <!-- 0 -->
      <defs>
       <path d="M 31.78125 66.40625 
Q 24.171875 66.40625 20.328125 58.90625 
Q 16.5 51.421875 16.5 36.375 
Q 16.5 21.390625 20.328125 13.890625 
Q 24.171875 6.390625 31.78125 6.390625 
Q 39.453125 6.390625 43.28125 13.890625 
Q 47.125 21.390625 47.125 36.375 
Q 47.125 51.421875 43.28125 58.90625 
Q 39.453125 66.40625 31.78125 66.40625 
z
M 31.78125 74.21875 
Q 44.046875 74.21875 50.515625 64.515625 
Q 56.984375 54.828125 56.984375 36.375 
Q 56.984375 17.96875 50.515625 8.265625 
Q 44.046875 -1.421875 31.78125 -1.421875 
Q 19.53125 -1.421875 13.0625 8.265625 
Q 6.59375 17.96875 6.59375 36.375 
Q 6.59375 54.828125 13.0625 64.515625 
Q 19.53125 74.21875 31.78125 74.21875 
z
" id="DejaVuSans-48"/>
      </defs>
      <g transform="translate(24.0325 103.469465)scale(0.08 -0.08)">
       <use xlink:href="#DejaVuSans-48"/>
      </g>
     </g>
    </g>
    <g id="ytick_2">
     <g id="line2d_2">
      <g>
       <use style="stroke:#000000;stroke-width:0.8;" x="36.1225" xlink:href="#m34efbbb680" y="77.882411"/>
      </g>
     </g>
     <g id="text_2">
      <!-- 5 -->
      <defs>
       <path d="M 10.796875 72.90625 
L 49.515625 72.90625 
L 49.515625 64.59375 
L 19.828125 64.59375 
L 19.828125 46.734375 
Q 21.96875 47.46875 24.109375 47.828125 
Q 26.265625 48.1875 28.421875 48.1875 
Q 40.625 48.1875 47.75 41.5 
Q 54.890625 34.8125 54.890625 23.390625 
Q 54.890625 11.625 47.5625 5.09375 
Q 40.234375 -1.421875 26.90625 -1.421875 
Q 22.3125 -1.421875 17.546875 -0.640625 
Q 12.796875 0.140625 7.71875 1.703125 
L 7.71875 11.625 
Q 12.109375 9.234375 16.796875 8.0625 
Q 21.484375 6.890625 26.703125 6.890625 
Q 35.15625 6.890625 40.078125 11.328125 
Q 45.015625 15.765625 45.015625 23.390625 
Q 45.015625 31 40.078125 35.4375 
Q 35.15625 39.890625 26.703125 39.890625 
Q 22.75 39.890625 18.8125 39.015625 
Q 14.890625 38.140625 10.796875 36.28125 
z
" id="DejaVuSans-53"/>
      </defs>
      <g transform="translate(24.0325 80.921786)scale(0.08 -0.08)">
       <use xlink:href="#DejaVuSans-53"/>
      </g>
     </g>
    </g>
    <g id="ytick_3">
     <g id="line2d_3">
      <g>
       <use style="stroke:#000000;stroke-width:0.8;" x="36.1225" xlink:href="#m34efbbb680" y="55.334732"/>
      </g>
     </g>
     <g id="text_3">
      <!-- 10 -->
      <defs>
       <path d="M 12.40625 8.296875 
L 28.515625 8.296875 
L 28.515625 63.921875 
L 10.984375 60.40625 
L 10.984375 69.390625 
L 28.421875 72.90625 
L 38.28125 72.90625 
L 38.28125 8.296875 
L 54.390625 8.296875 
L 54.390625 0 
L 12.40625 0 
z
" id="DejaVuSans-49"/>
      </defs>
      <g transform="translate(18.9425 58.374107)scale(0.08 -0.08)">
       <use xlink:href="#DejaVuSans-49"/>
       <use x="63.623047" xlink:href="#DejaVuSans-48"/>
      </g>
     </g>
    </g>
    <g id="ytick_4">
     <g id="line2d_4">
      <g>
       <use style="stroke:#000000;stroke-width:0.8;" x="36.1225" xlink:href="#m34efbbb680" y="32.787054"/>
      </g>
     </g>
     <g id="text_4">
      <!-- 15 -->
      <g transform="translate(18.9425 35.826429)scale(0.08 -0.08)">
       <use xlink:href="#DejaVuSans-49"/>
       <use x="63.623047" xlink:href="#DejaVuSans-53"/>
      </g>
     </g>
    </g>
    <g id="ytick_5">
     <g id="line2d_5">
      <g>
       <use style="stroke:#000000;stroke-width:0.8;" x="36.1225" xlink:href="#m34efbbb680" y="10.239375"/>
      </g>
     </g>
     <g id="text_5">
      <!-- 20 -->
      <defs>
       <path d="M 19.1875 8.296875 
L 53.609375 8.296875 
L 53.609375 0 
L 7.328125 0 
L 7.328125 8.296875 
Q 12.9375 14.109375 22.625 23.890625 
Q 32.328125 33.6875 34.8125 36.53125 
Q 39.546875 41.84375 41.421875 45.53125 
Q 43.3125 49.21875 43.3125 52.78125 
Q 43.3125 58.59375 39.234375 62.25 
Q 35.15625 65.921875 28.609375 65.921875 
Q 23.96875 65.921875 18.8125 64.3125 
Q 13.671875 62.703125 7.8125 59.421875 
L 7.8125 69.390625 
Q 13.765625 71.78125 18.9375 73 
Q 24.125 74.21875 28.421875 74.21875 
Q 39.75 74.21875 46.484375 68.546875 
Q 53.21875 62.890625 53.21875 53.421875 
Q 53.21875 48.921875 51.53125 44.890625 
Q 49.859375 40.875 45.40625 35.40625 
Q 44.1875 33.984375 37.640625 27.21875 
Q 31.109375 20.453125 19.1875 8.296875 
z
" id="DejaVuSans-50"/>
      </defs>
      <g transform="translate(18.9425 13.27875)scale(0.08 -0.08)">
       <use xlink:href="#DejaVuSans-50"/>
       <use x="63.623047" xlink:href="#DejaVuSans-48"/>
      </g>
     </g>
    </g>
    <g id="text_6">
     <!-- -Im(Z) -->
     <defs>
      <path d="M 4.890625 31.390625 
L 31.203125 31.390625 
L 31.203125 23.390625 
L 4.890625 23.390625 
z
" id="DejaVuSans-45"/>
      <path d="M 9.8125 72.90625 
L 19.671875 72.90625 
L 19.671875 0 
L 9.8125 0 
z
" id="DejaVuSans-73"/>
      <path d="M 52 44.1875 
Q 55.375 50.25 60.0625 53.125 
Q 64.75 56 71.09375 56 
Q 79.640625 56 84.28125 50.015625 
Q 88.921875 44.046875 88.921875 33.015625 
L 88.921875 0 
L 79.890625 0 
L 79.890625 32.71875 
Q 79.890625 40.578125 77.09375 44.375 
Q 74.3125 48.1875 68.609375 48.1875 
Q 61.625 48.1875 57.5625 43.546875 
Q 53.515625 38.921875 53.515625 30.90625 
L 53.515625 0 
L 44.484375 0 
L 44.484375 32.71875 
Q 44.484375 40.625 41.703125 44.40625 
Q 38.921875 48.1875 33.109375 48.1875 
Q 26.21875 48.1875 22.15625 43.53125 
Q 18.109375 38.875 18.109375 30.90625 
L 18.109375 0 
L 9.078125 0 
L 9.078125 54.6875 
L 18.109375 54.6875 
L 18.109375 46.1875 
Q 21.1875 51.21875 25.484375 53.609375 
Q 29.78125 56 35.6875 56 
Q 41.65625 56 45.828125 52.96875 
Q 50 49.953125 52 44.1875 
z
" id="DejaVuSans-109"/>
      <path d="M 31 75.875 
Q 24.46875 64.65625 21.28125 53.65625 
Q 18.109375 42.671875 18.109375 31.390625 
Q 18.109375 20.125 21.3125 9.0625 
Q 24.515625 -2 31 -13.1875 
L 23.1875 -13.1875 
Q 15.875 -1.703125 12.234375 9.375 
Q 8.59375 20.453125 8.59375 31.390625 
Q 8.59375 42.28125 12.203125 53.3125 
Q 15.828125 64.359375 23.1875 75.875 
z
" id="DejaVuSans-40"/>
      <path d="M 5.609375 72.90625 
L 62.890625 72.90625 
L 62.890625 65.375 
L 16.796875 8.296875 
L 64.015625 8.296875 
L 64.015625 0 
L 4.5 0 
L 4.5 7.515625 
L 50.59375 64.59375 
L 5.609375 64.59375 
z
" id="DejaVuSans-90"/>
      <path d="M 8.015625 75.875 
L 15.828125 75.875 
Q 23.140625 64.359375 26.78125 53.3125 
Q 30.421875 42.28125 30.421875 31.390625 
Q 30.421875 20.453125 26.78125 9.375 
Q 23.140625 -1.703125 15.828125 -13.1875 
L 8.015625 -13.1875 
Q 14.5 -2 17.703125 9.0625 
Q 20.90625 20.125 20.90625 31.390625 
Q 20.90625 42.671875 17.703125 53.65625 
Q 14.5 64.65625 8.015625 75.875 
z
" id="DejaVuSans-41"/>
     </defs>
     <g transform="translate(13.27875 68.995496)rotate(-90)scale(0.08 -0.08)">
      <use xlink:href="#DejaVuSans-45"/>
      <use x="36.083984" xlink:href="#DejaVuSans-73"/>
      <use x="65.576172" xlink:href="#DejaVuSans-109"/>
      <use x="162.988281" xlink:href="#DejaVuSans-40"/>
      <use x="202.001953" xlink:href="#DejaVuSans-90"/>
      <use x="270.507812" xlink:href="#DejaVuSans-41"/>
     </g>
    </g>
   </g>
   <g id="line2d_6">
    <path clip-path="url(#p3a1835af30)" d="M 44.368742 97.506457 
L 48.512582 96.569171 
L 51.827654 95.609946 
L 55.142726 94.416438 
L 58.457799 92.933975 
L 60.944103 91.593379 
L 63.430407 90.021239 
L 65.916711 88.181259 
L 68.403015 86.033179 
L 70.889319 83.53323 
L 73.375623 80.635167 
L 75.861927 77.292194 
L 78.348231 73.460158 
L 80.834535 69.102529 
L 83.32084 64.19769 
L 85.807144 58.749031 
L 88.293448 52.797973 
L 91.60852 44.255099 
L 97.409896 28.987347 
L 99.8962 23.136598 
L 101.553736 19.759131 
L 103.211272 16.940934 
L 104.868808 14.790148 
L 105.697577 13.993153 
L 106.526345 13.393265 
L 107.355113 12.996527 
L 108.183881 12.80671 
L 109.012649 12.825204 
L 109.841417 13.050981 
L 110.670185 13.480619 
L 111.498953 14.108395 
L 112.327721 14.92643 
L 113.985257 17.092251 
L 115.642793 19.880637 
L 117.300329 23.176072 
L 119.786633 28.79841 
L 124.759241 41.036344 
L 128.074313 48.912215 
L 130.560618 54.312064 
L 133.046922 59.148301 
L 135.533226 63.365333 
L 137.190762 65.8241 
L 138.848298 68.003854 
L 140.505834 69.912666 
L 142.16337 71.562635 
L 143.820906 72.969501 
L 145.478442 74.152524 
L 147.135978 75.134582 
L 149.622282 76.290242 
L 152.108586 77.160896 
L 161.225035 79.942877 
L 163.711339 81.065002 
L 166.197643 82.425423 
L 169.512715 84.532873 
L 178.629164 90.605719 
L 181.944236 92.471471 
L 185.259308 94.056701 
L 188.57438 95.367556 
L 191.889452 96.431621 
L 195.204524 97.284541 
L 199.348364 98.108424 
L 204.320973 98.823339 
L 209.293581 99.320848 
L 209.293581 99.320848 
" style="fill:none;stroke:#0370b8;stroke-linecap:square;"/>
   </g>
   <g id="line2d_7">
    <path clip-path="url(#p3a1835af30)" d="M 44.368742 100.423031 
L 83.32084 100.29713 
L 97.409896 100.046179 
L 106.526345 99.668938 
L 113.156489 99.180305 
L 118.129097 98.620689 
L 122.272937 97.972181 
L 126.416777 97.100886 
L 129.73185 96.199491 
L 133.046922 95.076056 
L 136.361994 93.694429 
L 139.677066 92.029058 
L 142.992138 90.081927 
L 147.135978 87.344694 
L 152.108586 84.050391 
L 154.594891 82.680273 
L 156.252427 81.969693 
L 157.909963 81.468651 
L 159.567499 81.20746 
L 161.225035 81.202657 
L 162.882571 81.454552 
L 164.540107 81.947178 
L 166.197643 82.650664 
L 168.683947 84.013155 
L 171.999019 86.170555 
L 177.800396 90.043453 
L 181.115468 91.99549 
L 184.43054 93.666216 
L 187.745612 95.052919 
L 191.060684 96.180822 
L 194.375756 97.085984 
L 198.519596 97.961047 
L 202.663437 98.612431 
L 207.636045 99.174568 
L 209.293581 99.32071 
L 209.293581 99.32071 
" style="fill:none;stroke:#d56339;stroke-linecap:square;stroke-width:1.1;"/>
   </g>
   <g id="line2d_8">
    <path clip-path="url(#p3a1835af30)" d="M 44.368742 97.757993 
L 48.512582 96.911768 
L 51.827654 96.048235 
L 55.142726 94.976586 
L 58.457799 93.648927 
L 60.944103 92.450968 
L 63.430407 91.048697 
L 65.916711 89.410419 
L 68.403015 87.500938 
L 70.889319 85.281876 
L 73.375623 82.712444 
L 75.861927 79.750891 
L 78.348231 76.356941 
L 80.834535 72.495608 
L 83.32084 68.142833 
L 85.807144 63.293374 
L 88.293448 57.971178 
L 91.60852 50.260883 
L 99.8962 30.447228 
L 101.553736 27.054942 
L 103.211272 24.09833 
L 104.868808 21.683946 
L 106.526345 19.905814 
L 107.355113 19.279279 
L 108.183881 18.837301 
L 109.012649 18.584687 
L 109.841417 18.524208 
L 110.670185 18.656531 
L 111.498953 18.9802 
L 112.327721 19.491672 
L 113.156489 20.185412 
L 113.985257 21.054031 
L 115.642793 23.278227 
L 117.300329 26.075874 
L 118.957865 29.343449 
L 121.444169 34.884403 
L 125.588009 44.949605 
L 129.73185 54.908136 
L 133.046922 62.218512 
L 135.533226 67.169956 
L 138.01953 71.626918 
L 140.505834 75.589478 
L 142.992138 79.078496 
L 145.478442 82.127209 
L 147.964746 84.775157 
L 150.45105 87.064023 
L 152.937355 89.034947 
L 155.423659 90.72689 
L 157.909963 92.175753 
L 160.396267 93.413973 
L 163.711339 94.78672 
L 167.026411 95.895107 
L 170.341483 96.788455 
L 174.485323 97.664078 
L 179.457932 98.443317 
L 185.259308 99.080735 
L 191.889452 99.563571 
L 200.177133 99.932308 
L 209.293581 100.159695 
L 209.293581 100.159695 
" style="fill:none;stroke:#eeb92e;stroke-linecap:square;stroke-width:1.1;"/>
   </g>
   <g id="patch_3">
    <path d="M 36.1225 104.803847 
L 36.1225 8.425894 
" style="fill:none;stroke:#000000;stroke-linecap:square;stroke-linejoin:miter;stroke-width:0.8;"/>
   </g>
   <g id="patch_4">
    <path d="M 217.539823 104.803847 
L 217.539823 8.425894 
" style="fill:none;stroke:#000000;stroke-linecap:square;stroke-linejoin:miter;stroke-width:0.8;"/>
   </g>
   <g id="patch_5">
    <path d="M 36.1225 104.803847 
L 217.539823 104.803847 
" style="fill:none;stroke:#000000;stroke-linecap:square;stroke-linejoin:miter;stroke-width:0.8;"/>
   </g>
   <g id="patch_6">
    <path d="M 36.1225 8.425894 
L 217.539823 8.425894 
" style="fill:none;stroke:#000000;stroke-linecap:square;stroke-linejoin:miter;stroke-width:0.8;"/>
   </g>
   <g id="legend_1">
    <g id="patch_7">
     <path d="M 141.039823 42.046519 
L 211.239823 42.046519 
Q 213.039823 42.046519 213.039823 40.246519 
L 213.039823 14.725894 
Q 213.039823 12.925894 211.239823 12.925894 
L 141.039823 12.925894 
Q 139.239823 12.925894 139.239823 14.725894 
L 139.239823 40.246519 
Q 139.239823 42.046519 141.039823 42.046519 
z
" style="fill:#ffffff;opacity:0.8;stroke:#cccccc;stroke-linejoin:miter;"/>
    </g>
    <g id="line2d_9">
     <path d="M 142.839823 20.214488 
L 160.839823 20.214488 
" style="fill:none;stroke:#d56339;stroke-linecap:square;stroke-width:1.1;"/>
    </g>
    <g id="line2d_10"/>
    <g id="text_7">
     <!-- Q$\rm _{SC}$ / R$\rm _{Bulk}$ -->
     <defs>
      <path d="M 39.40625 66.21875 
Q 28.65625 66.21875 22.328125 58.203125 
Q 16.015625 50.203125 16.015625 36.375 
Q 16.015625 22.609375 22.328125 14.59375 
Q 28.65625 6.59375 39.40625 6.59375 
Q 50.140625 6.59375 56.421875 14.59375 
Q 62.703125 22.609375 62.703125 36.375 
Q 62.703125 50.203125 56.421875 58.203125 
Q 50.140625 66.21875 39.40625 66.21875 
z
M 53.21875 1.3125 
L 66.21875 -12.890625 
L 54.296875 -12.890625 
L 43.5 -1.21875 
Q 41.890625 -1.3125 41.03125 -1.359375 
Q 40.1875 -1.421875 39.40625 -1.421875 
Q 24.03125 -1.421875 14.8125 8.859375 
Q 5.609375 19.140625 5.609375 36.375 
Q 5.609375 53.65625 14.8125 63.9375 
Q 24.03125 74.21875 39.40625 74.21875 
Q 54.734375 74.21875 63.90625 63.9375 
Q 73.09375 53.65625 73.09375 36.375 
Q 73.09375 23.6875 67.984375 14.640625 
Q 62.890625 5.609375 53.21875 1.3125 
z
" id="DejaVuSans-81"/>
      <path d="M 44.90625 47.703125 
L 43 47.703125 
Q 40.59375 53.703125 35.796875 56.84375 
Q 31 60 25.203125 60 
Q 20.59375 60 17.59375 57.203125 
Q 14.59375 54.40625 14.59375 50.5 
Q 14.59375 43.5 28.703125 37.796875 
Q 39.40625 33.59375 43.75 28.84375 
Q 48.09375 24.09375 48.09375 16.796875 
Q 48.09375 9.40625 42.40625 4.09375 
Q 36.296875 -1.40625 25.796875 -1.40625 
Q 11.203125 -1.40625 4.5 7 
L 3.203125 20.5 
L 5 20.5 
Q 8.296875 13.203125 14 9.703125 
Q 19.703125 6.203125 25.40625 6.203125 
Q 31.703125 6.203125 35.453125 8.84375 
Q 39.203125 11.5 39.203125 15.796875 
Q 39.203125 20.296875 36.203125 23.296875 
Q 33.203125 26.296875 26.40625 29.09375 
Q 15.5 33.5 10.796875 38.25 
Q 6.09375 43 6.09375 50.09375 
Q 6.09375 58 11.59375 62.796875 
Q 17.09375 67.59375 25.703125 67.59375 
Q 38.09375 67.59375 44.90625 59.59375 
z
" id="STIXGeneral-Regular-120242"/>
      <path d="M 58.59375 17 
L 63.703125 11.90625 
Q 53.40625 -1.40625 36.40625 -1.40625 
Q 20.703125 -1.40625 11.703125 8.25 
Q 2.703125 17.90625 2.703125 33.296875 
Q 2.703125 48.09375 12.046875 57.84375 
Q 21.40625 67.59375 36.296875 67.59375 
Q 43.796875 67.59375 50.6875 64.640625 
Q 57.59375 61.703125 61.703125 55.40625 
L 61.703125 45.296875 
L 59.796875 45.296875 
Q 56.5 53.296875 50.140625 56.640625 
Q 43.796875 60 36.40625 60 
Q 25.296875 60 18.4375 52.453125 
Q 11.59375 44.90625 11.59375 33.5 
Q 11.59375 21.09375 18.296875 13.640625 
Q 25 6.203125 36.703125 6.203125 
Q 49 6.203125 58.59375 17 
z
" id="STIXGeneral-Regular-120226"/>
      <path id="DejaVuSans-32"/>
      <path d="M 25.390625 72.90625 
L 33.6875 72.90625 
L 8.296875 -9.28125 
L 0 -9.28125 
z
" id="DejaVuSans-47"/>
      <path d="M 44.390625 34.1875 
Q 47.5625 33.109375 50.5625 29.59375 
Q 53.5625 26.078125 56.59375 19.921875 
L 66.609375 0 
L 56 0 
L 46.6875 18.703125 
Q 43.0625 26.03125 39.671875 28.421875 
Q 36.28125 30.8125 30.421875 30.8125 
L 19.671875 30.8125 
L 19.671875 0 
L 9.8125 0 
L 9.8125 72.90625 
L 32.078125 72.90625 
Q 44.578125 72.90625 50.734375 67.671875 
Q 56.890625 62.453125 56.890625 51.90625 
Q 56.890625 45.015625 53.6875 40.46875 
Q 50.484375 35.9375 44.390625 34.1875 
z
M 19.671875 64.796875 
L 19.671875 38.921875 
L 32.078125 38.921875 
Q 39.203125 38.921875 42.84375 42.21875 
Q 46.484375 45.515625 46.484375 51.90625 
Q 46.484375 58.296875 42.84375 61.546875 
Q 39.203125 64.796875 32.078125 64.796875 
z
" id="DejaVuSans-82"/>
      <path d="M 7.40625 66.203125 
L 27.90625 66.203125 
Q 51.09375 66.203125 51.09375 49.90625 
Q 51.09375 40.796875 41.90625 36.59375 
Q 54.703125 32.5 54.703125 19.296875 
Q 54.703125 14.09375 51.796875 9.59375 
Q 48.90625 5.09375 44.09375 2.59375 
Q 38.90625 0 31.40625 0 
L 7.40625 0 
z
M 16.09375 39.40625 
L 25.09375 39.40625 
Q 33.90625 39.40625 38.046875 41.953125 
Q 42.203125 44.5 42.203125 49.90625 
Q 42.203125 54.5 39.046875 56.640625 
Q 35.90625 58.796875 29.09375 58.796875 
L 16.09375 58.796875 
z
M 16.09375 7.40625 
L 28.703125 7.40625 
Q 37.40625 7.40625 41.59375 10.953125 
Q 45.796875 14.5 45.796875 20.203125 
Q 45.796875 23.796875 43.84375 26.546875 
Q 41.90625 29.296875 38.5 30.40625 
Q 34.40625 31.703125 24 31.703125 
L 16.09375 31.703125 
z
" id="STIXGeneral-Regular-120225"/>
      <path d="M 43 1.296875 
L 35.90625 -1.09375 
L 35 -0.59375 
L 34.796875 5.90625 
Q 31.90625 2.703125 27.75 0.84375 
Q 23.59375 -1 19.703125 -1 
Q 13.703125 -1 9 3.5 
Q 6.296875 7 6.296875 13.09375 
L 6.296875 45.296875 
L 14.203125 45.296875 
L 14.203125 14.90625 
Q 14.203125 6.09375 22.40625 6.09375 
Q 25.203125 6.09375 29.09375 9.046875 
Q 33 12 34.5 16.09375 
L 34.5 45.296875 
L 42.40625 45.296875 
L 42.40625 12.796875 
Q 42.40625 6.203125 43 1.296875 
z
" id="STIXGeneral-Regular-120270"/>
      <path d="M 14.40625 0 
L 6.09375 0 
L 6.09375 66 
L 13.5 68.40625 
L 14.40625 67.90625 
z
" id="STIXGeneral-Regular-120261"/>
      <path d="M 45.203125 0 
L 34.90625 0 
L 14.203125 20.703125 
L 14.203125 0 
L 6.296875 0 
L 6.296875 66 
L 13.296875 68.40625 
L 14.203125 67.90625 
L 14.203125 30.296875 
L 34 45.296875 
L 44.40625 45.296875 
L 44.40625 43.90625 
L 19.796875 25.5 
z
" id="STIXGeneral-Regular-120260"/>
     </defs>
     <g transform="translate(168.039823 23.364488)scale(0.09 -0.09)">
      <use transform="translate(0 0.78125)" xlink:href="#DejaVuSans-81"/>
      <use transform="translate(79.503633 -12.807812)scale(0.7)" xlink:href="#STIXGeneral-Regular-120242"/>
      <use transform="translate(117.373626 -12.807812)scale(0.7)" xlink:href="#STIXGeneral-Regular-120226"/>
      <use transform="translate(166.608464 0.78125)" xlink:href="#DejaVuSans-32"/>
      <use transform="translate(198.395573 0.78125)" xlink:href="#DejaVuSans-47"/>
      <use transform="translate(232.086979 0.78125)" xlink:href="#DejaVuSans-32"/>
      <use transform="translate(263.874089 0.78125)" xlink:href="#DejaVuSans-82"/>
      <use transform="translate(334.149206 -12.807812)scale(0.7)" xlink:href="#STIXGeneral-Regular-120225"/>
      <use transform="translate(376.429202 -12.807812)scale(0.7)" xlink:href="#STIXGeneral-Regular-120270"/>
      <use transform="translate(410.799195 -12.807812)scale(0.7)" xlink:href="#STIXGeneral-Regular-120261"/>
      <use transform="translate(425.149185 -12.807812)scale(0.7)" xlink:href="#STIXGeneral-Regular-120260"/>
     </g>
    </g>
    <g id="line2d_11">
     <path d="M 142.839823 33.4248 
L 160.839823 33.4248 
" style="fill:none;stroke:#eeb92e;stroke-linecap:square;stroke-width:1.1;"/>
    </g>
    <g id="line2d_12"/>
    <g id="text_8">
     <!-- Q$\rm _{SS}$ / R$\rm _{SS}$ -->
     <g transform="translate(168.039823 36.5748)scale(0.09 -0.09)">
      <use transform="translate(0 0.78125)" xlink:href="#DejaVuSans-81"/>
      <use transform="translate(79.503633 -12.807812)scale(0.7)" xlink:href="#STIXGeneral-Regular-120242"/>
      <use transform="translate(117.373626 -12.807812)scale(0.7)" xlink:href="#STIXGeneral-Regular-120242"/>
      <use transform="translate(157.508464 0.78125)" xlink:href="#DejaVuSans-32"/>
      <use transform="translate(189.295573 0.78125)" xlink:href="#DejaVuSans-47"/>
      <use transform="translate(222.986979 0.78125)" xlink:href="#DejaVuSans-32"/>
      <use transform="translate(254.774089 0.78125)" xlink:href="#DejaVuSans-82"/>
      <use transform="translate(325.049206 -12.807812)scale(0.7)" xlink:href="#STIXGeneral-Regular-120242"/>
      <use transform="translate(362.9192 -12.807812)scale(0.7)" xlink:href="#STIXGeneral-Regular-120242"/>
     </g>
    </g>
   </g>
  </g>
  <g id="axes_2">
   <g id="patch_8">
    <path d="M 36.1225 201.1818 
L 217.539823 201.1818 
L 217.539823 104.803847 
L 36.1225 104.803847 
z
" style="fill:#ffffff;"/>
   </g>
   <g id="matplotlib.axis_3">
    <g id="xtick_1">
     <g id="line2d_13">
      <defs>
       <path d="M 0 0 
L 0 3.5 
" id="m5bb0cb3cb4" style="stroke:#000000;stroke-width:0.8;"/>
      </defs>
      <g>
       <use style="stroke:#000000;stroke-width:0.8;" x="71.856215" xlink:href="#m5bb0cb3cb4" y="201.1818"/>
      </g>
     </g>
     <g id="text_9">
      <!-- $\mathdefault{10^{-1}}$ -->
      <defs>
       <path d="M 10.59375 35.5 
L 73.1875 35.5 
L 73.1875 27.203125 
L 10.59375 27.203125 
z
" id="DejaVuSans-8722"/>
      </defs>
      <g transform="translate(62.456215 214.26055)scale(0.08 -0.08)">
       <use transform="translate(0 0.684375)" xlink:href="#DejaVuSans-49"/>
       <use transform="translate(63.623047 0.684375)" xlink:href="#DejaVuSans-48"/>
       <use transform="translate(128.203125 38.965625)scale(0.7)" xlink:href="#DejaVuSans-8722"/>
       <use transform="translate(186.855469 38.965625)scale(0.7)" xlink:href="#DejaVuSans-49"/>
      </g>
     </g>
    </g>
    <g id="xtick_2">
     <g id="line2d_14">
      <g>
       <use style="stroke:#000000;stroke-width:0.8;" x="126.831161" xlink:href="#m5bb0cb3cb4" y="201.1818"/>
      </g>
     </g>
     <g id="text_10">
      <!-- $\mathdefault{10^{1}}$ -->
      <g transform="translate(119.791161 214.26055)scale(0.08 -0.08)">
       <use transform="translate(0 0.684375)" xlink:href="#DejaVuSans-49"/>
       <use transform="translate(63.623047 0.684375)" xlink:href="#DejaVuSans-48"/>
       <use transform="translate(128.203125 38.965625)scale(0.7)" xlink:href="#DejaVuSans-49"/>
      </g>
     </g>
    </g>
    <g id="xtick_3">
     <g id="line2d_15">
      <g>
       <use style="stroke:#000000;stroke-width:0.8;" x="181.806108" xlink:href="#m5bb0cb3cb4" y="201.1818"/>
      </g>
     </g>
     <g id="text_11">
      <!-- $\mathdefault{10^{3}}$ -->
      <defs>
       <path d="M 40.578125 39.3125 
Q 47.65625 37.796875 51.625 33 
Q 55.609375 28.21875 55.609375 21.1875 
Q 55.609375 10.40625 48.1875 4.484375 
Q 40.765625 -1.421875 27.09375 -1.421875 
Q 22.515625 -1.421875 17.65625 -0.515625 
Q 12.796875 0.390625 7.625 2.203125 
L 7.625 11.71875 
Q 11.71875 9.328125 16.59375 8.109375 
Q 21.484375 6.890625 26.8125 6.890625 
Q 36.078125 6.890625 40.9375 10.546875 
Q 45.796875 14.203125 45.796875 21.1875 
Q 45.796875 27.640625 41.28125 31.265625 
Q 36.765625 34.90625 28.71875 34.90625 
L 20.21875 34.90625 
L 20.21875 43.015625 
L 29.109375 43.015625 
Q 36.375 43.015625 40.234375 45.921875 
Q 44.09375 48.828125 44.09375 54.296875 
Q 44.09375 59.90625 40.109375 62.90625 
Q 36.140625 65.921875 28.71875 65.921875 
Q 24.65625 65.921875 20.015625 65.03125 
Q 15.375 64.15625 9.8125 62.3125 
L 9.8125 71.09375 
Q 15.4375 72.65625 20.34375 73.4375 
Q 25.25 74.21875 29.59375 74.21875 
Q 40.828125 74.21875 47.359375 69.109375 
Q 53.90625 64.015625 53.90625 55.328125 
Q 53.90625 49.265625 50.4375 45.09375 
Q 46.96875 40.921875 40.578125 39.3125 
z
" id="DejaVuSans-51"/>
      </defs>
      <g transform="translate(174.766108 214.26055)scale(0.08 -0.08)">
       <use transform="translate(0 0.765625)" xlink:href="#DejaVuSans-49"/>
       <use transform="translate(63.623047 0.765625)" xlink:href="#DejaVuSans-48"/>
       <use transform="translate(128.203125 39.046875)scale(0.7)" xlink:href="#DejaVuSans-51"/>
      </g>
     </g>
    </g>
    <g id="text_12">
     <!-- $\omega$ [rad $\cdot$ s$^{-1}$] -->
     <defs>
      <path d="M 26.859375 -1.421875 
Q 6.59375 -1.421875 6.59375 27.59375 
Q 6.59375 39.0625 14.15625 54.6875 
L 23.828125 54.6875 
Q 16.84375 39.0625 16.84375 27.34375 
Q 16.84375 6.203125 27.6875 6.203125 
Q 37.59375 6.203125 37.59375 32.46875 
L 45.90625 32.46875 
Q 45.90625 6.203125 55.8125 6.203125 
Q 66.65625 6.203125 66.65625 27.34375 
Q 66.65625 39.0625 59.671875 54.6875 
L 69.34375 54.6875 
Q 76.90625 39.0625 76.90625 27.59375 
Q 76.90625 -1.421875 56.640625 -1.421875 
Q 43.359375 -1.421875 41.75 13.1875 
Q 39.75 -1.421875 26.859375 -1.421875 
z
" id="DejaVuSans-969"/>
      <path d="M 8.59375 75.984375 
L 29.296875 75.984375 
L 29.296875 69 
L 17.578125 69 
L 17.578125 -6.203125 
L 29.296875 -6.203125 
L 29.296875 -13.1875 
L 8.59375 -13.1875 
z
" id="DejaVuSans-91"/>
      <path d="M 41.109375 46.296875 
Q 39.59375 47.171875 37.8125 47.578125 
Q 36.03125 48 33.890625 48 
Q 26.265625 48 22.1875 43.046875 
Q 18.109375 38.09375 18.109375 28.8125 
L 18.109375 0 
L 9.078125 0 
L 9.078125 54.6875 
L 18.109375 54.6875 
L 18.109375 46.1875 
Q 20.953125 51.171875 25.484375 53.578125 
Q 30.03125 56 36.53125 56 
Q 37.453125 56 38.578125 55.875 
Q 39.703125 55.765625 41.0625 55.515625 
z
" id="DejaVuSans-114"/>
      <path d="M 34.28125 27.484375 
Q 23.390625 27.484375 19.1875 25 
Q 14.984375 22.515625 14.984375 16.5 
Q 14.984375 11.71875 18.140625 8.90625 
Q 21.296875 6.109375 26.703125 6.109375 
Q 34.1875 6.109375 38.703125 11.40625 
Q 43.21875 16.703125 43.21875 25.484375 
L 43.21875 27.484375 
z
M 52.203125 31.203125 
L 52.203125 0 
L 43.21875 0 
L 43.21875 8.296875 
Q 40.140625 3.328125 35.546875 0.953125 
Q 30.953125 -1.421875 24.3125 -1.421875 
Q 15.921875 -1.421875 10.953125 3.296875 
Q 6 8.015625 6 15.921875 
Q 6 25.140625 12.171875 29.828125 
Q 18.359375 34.515625 30.609375 34.515625 
L 43.21875 34.515625 
L 43.21875 35.40625 
Q 43.21875 41.609375 39.140625 45 
Q 35.0625 48.390625 27.6875 48.390625 
Q 23 48.390625 18.546875 47.265625 
Q 14.109375 46.140625 10.015625 43.890625 
L 10.015625 52.203125 
Q 14.9375 54.109375 19.578125 55.046875 
Q 24.21875 56 28.609375 56 
Q 40.484375 56 46.34375 49.84375 
Q 52.203125 43.703125 52.203125 31.203125 
z
" id="DejaVuSans-97"/>
      <path d="M 45.40625 46.390625 
L 45.40625 75.984375 
L 54.390625 75.984375 
L 54.390625 0 
L 45.40625 0 
L 45.40625 8.203125 
Q 42.578125 3.328125 38.25 0.953125 
Q 33.9375 -1.421875 27.875 -1.421875 
Q 17.96875 -1.421875 11.734375 6.484375 
Q 5.515625 14.40625 5.515625 27.296875 
Q 5.515625 40.1875 11.734375 48.09375 
Q 17.96875 56 27.875 56 
Q 33.9375 56 38.25 53.625 
Q 42.578125 51.265625 45.40625 46.390625 
z
M 14.796875 27.296875 
Q 14.796875 17.390625 18.875 11.75 
Q 22.953125 6.109375 30.078125 6.109375 
Q 37.203125 6.109375 41.296875 11.75 
Q 45.40625 17.390625 45.40625 27.296875 
Q 45.40625 37.203125 41.296875 42.84375 
Q 37.203125 48.484375 30.078125 48.484375 
Q 22.953125 48.484375 18.875 42.84375 
Q 14.796875 37.203125 14.796875 27.296875 
z
" id="DejaVuSans-100"/>
      <path d="M 10.6875 40.921875 
L 21 40.921875 
L 21 28.515625 
L 10.6875 28.515625 
z
" id="DejaVuSans-8901"/>
      <path d="M 44.28125 53.078125 
L 44.28125 44.578125 
Q 40.484375 46.53125 36.375 47.5 
Q 32.28125 48.484375 27.875 48.484375 
Q 21.1875 48.484375 17.84375 46.4375 
Q 14.5 44.390625 14.5 40.28125 
Q 14.5 37.15625 16.890625 35.375 
Q 19.28125 33.59375 26.515625 31.984375 
L 29.59375 31.296875 
Q 39.15625 29.25 43.1875 25.515625 
Q 47.21875 21.78125 47.21875 15.09375 
Q 47.21875 7.46875 41.1875 3.015625 
Q 35.15625 -1.421875 24.609375 -1.421875 
Q 20.21875 -1.421875 15.453125 -0.5625 
Q 10.6875 0.296875 5.421875 2 
L 5.421875 11.28125 
Q 10.40625 8.6875 15.234375 7.390625 
Q 20.0625 6.109375 24.8125 6.109375 
Q 31.15625 6.109375 34.5625 8.28125 
Q 37.984375 10.453125 37.984375 14.40625 
Q 37.984375 18.0625 35.515625 20.015625 
Q 33.0625 21.96875 24.703125 23.78125 
L 21.578125 24.515625 
Q 13.234375 26.265625 9.515625 29.90625 
Q 5.8125 33.546875 5.8125 39.890625 
Q 5.8125 47.609375 11.28125 51.796875 
Q 16.75 56 26.8125 56 
Q 31.78125 56 36.171875 55.265625 
Q 40.578125 54.546875 44.28125 53.078125 
z
" id="DejaVuSans-115"/>
      <path d="M 30.421875 75.984375 
L 30.421875 -13.1875 
L 9.71875 -13.1875 
L 9.71875 -6.203125 
L 21.390625 -6.203125 
L 21.390625 69 
L 9.71875 69 
L 9.71875 75.984375 
z
" id="DejaVuSans-93"/>
     </defs>
     <g transform="translate(102.271161 226.58055)scale(0.08 -0.08)">
      <use transform="translate(0 0.684375)" xlink:href="#DejaVuSans-969"/>
      <use transform="translate(83.740234 0.684375)" xlink:href="#DejaVuSans-32"/>
      <use transform="translate(115.527344 0.684375)" xlink:href="#DejaVuSans-91"/>
      <use transform="translate(154.541016 0.684375)" xlink:href="#DejaVuSans-114"/>
      <use transform="translate(195.654297 0.684375)" xlink:href="#DejaVuSans-97"/>
      <use transform="translate(256.933594 0.684375)" xlink:href="#DejaVuSans-100"/>
      <use transform="translate(320.410156 0.684375)" xlink:href="#DejaVuSans-32"/>
      <use transform="translate(352.197266 0.684375)" xlink:href="#DejaVuSans-8901"/>
      <use transform="translate(383.984375 0.684375)" xlink:href="#DejaVuSans-32"/>
      <use transform="translate(415.771484 0.684375)" xlink:href="#DejaVuSans-115"/>
      <use transform="translate(468.828125 38.965625)scale(0.7)" xlink:href="#DejaVuSans-8722"/>
      <use transform="translate(527.480469 38.965625)scale(0.7)" xlink:href="#DejaVuSans-49"/>
      <use transform="translate(574.750977 0.684375)" xlink:href="#DejaVuSans-93"/>
     </g>
    </g>
   </g>
   <g id="matplotlib.axis_4">
    <g id="ytick_6">
     <g id="line2d_16">
      <g>
       <use style="stroke:#000000;stroke-width:0.8;" x="36.1225" xlink:href="#m34efbbb680" y="196.829647"/>
      </g>
     </g>
     <g id="text_13">
      <!-- 0 -->
      <g transform="translate(24.0325 199.869022)scale(0.08 -0.08)">
       <use xlink:href="#DejaVuSans-48"/>
      </g>
     </g>
    </g>
    <g id="ytick_7">
     <g id="line2d_17">
      <g>
       <use style="stroke:#000000;stroke-width:0.8;" x="36.1225" xlink:href="#m34efbbb680" y="167.524109"/>
      </g>
     </g>
     <g id="text_14">
      <!-- 20 -->
      <g transform="translate(18.9425 170.563484)scale(0.08 -0.08)">
       <use xlink:href="#DejaVuSans-50"/>
       <use x="63.623047" xlink:href="#DejaVuSans-48"/>
      </g>
     </g>
    </g>
    <g id="ytick_8">
     <g id="line2d_18">
      <g>
       <use style="stroke:#000000;stroke-width:0.8;" x="36.1225" xlink:href="#m34efbbb680" y="138.21857"/>
      </g>
     </g>
     <g id="text_15">
      <!-- 40 -->
      <defs>
       <path d="M 37.796875 64.3125 
L 12.890625 25.390625 
L 37.796875 25.390625 
z
M 35.203125 72.90625 
L 47.609375 72.90625 
L 47.609375 25.390625 
L 58.015625 25.390625 
L 58.015625 17.1875 
L 47.609375 17.1875 
L 47.609375 0 
L 37.796875 0 
L 37.796875 17.1875 
L 4.890625 17.1875 
L 4.890625 26.703125 
z
" id="DejaVuSans-52"/>
      </defs>
      <g transform="translate(18.9425 141.257945)scale(0.08 -0.08)">
       <use xlink:href="#DejaVuSans-52"/>
       <use x="63.623047" xlink:href="#DejaVuSans-48"/>
      </g>
     </g>
    </g>
    <g id="ytick_9">
     <g id="line2d_19">
      <g>
       <use style="stroke:#000000;stroke-width:0.8;" x="36.1225" xlink:href="#m34efbbb680" y="108.913031"/>
      </g>
     </g>
     <g id="text_16">
      <!-- 60 -->
      <defs>
       <path d="M 33.015625 40.375 
Q 26.375 40.375 22.484375 35.828125 
Q 18.609375 31.296875 18.609375 23.390625 
Q 18.609375 15.53125 22.484375 10.953125 
Q 26.375 6.390625 33.015625 6.390625 
Q 39.65625 6.390625 43.53125 10.953125 
Q 47.40625 15.53125 47.40625 23.390625 
Q 47.40625 31.296875 43.53125 35.828125 
Q 39.65625 40.375 33.015625 40.375 
z
M 52.59375 71.296875 
L 52.59375 62.3125 
Q 48.875 64.0625 45.09375 64.984375 
Q 41.3125 65.921875 37.59375 65.921875 
Q 27.828125 65.921875 22.671875 59.328125 
Q 17.53125 52.734375 16.796875 39.40625 
Q 19.671875 43.65625 24.015625 45.921875 
Q 28.375 48.1875 33.59375 48.1875 
Q 44.578125 48.1875 50.953125 41.515625 
Q 57.328125 34.859375 57.328125 23.390625 
Q 57.328125 12.15625 50.6875 5.359375 
Q 44.046875 -1.421875 33.015625 -1.421875 
Q 20.359375 -1.421875 13.671875 8.265625 
Q 6.984375 17.96875 6.984375 36.375 
Q 6.984375 53.65625 15.1875 63.9375 
Q 23.390625 74.21875 37.203125 74.21875 
Q 40.921875 74.21875 44.703125 73.484375 
Q 48.484375 72.75 52.59375 71.296875 
z
" id="DejaVuSans-54"/>
      </defs>
      <g transform="translate(18.9425 111.952406)scale(0.08 -0.08)">
       <use xlink:href="#DejaVuSans-54"/>
       <use x="63.623047" xlink:href="#DejaVuSans-48"/>
      </g>
     </g>
    </g>
    <g id="text_17">
     <!-- Re(Z) -->
     <defs>
      <path d="M 56.203125 29.59375 
L 56.203125 25.203125 
L 14.890625 25.203125 
Q 15.484375 15.921875 20.484375 11.0625 
Q 25.484375 6.203125 34.421875 6.203125 
Q 39.59375 6.203125 44.453125 7.46875 
Q 49.3125 8.734375 54.109375 11.28125 
L 54.109375 2.78125 
Q 49.265625 0.734375 44.1875 -0.34375 
Q 39.109375 -1.421875 33.890625 -1.421875 
Q 20.796875 -1.421875 13.15625 6.1875 
Q 5.515625 13.8125 5.515625 26.8125 
Q 5.515625 40.234375 12.765625 48.109375 
Q 20.015625 56 32.328125 56 
Q 43.359375 56 49.78125 48.890625 
Q 56.203125 41.796875 56.203125 29.59375 
z
M 47.21875 32.234375 
Q 47.125 39.59375 43.09375 43.984375 
Q 39.0625 48.390625 32.421875 48.390625 
Q 24.90625 48.390625 20.390625 44.140625 
Q 15.875 39.890625 15.1875 32.171875 
z
" id="DejaVuSans-101"/>
     </defs>
     <g transform="translate(13.27875 163.914698)rotate(-90)scale(0.08 -0.08)">
      <use xlink:href="#DejaVuSans-82"/>
      <use x="64.982422" xlink:href="#DejaVuSans-101"/>
      <use x="126.505859" xlink:href="#DejaVuSans-40"/>
      <use x="165.519531" xlink:href="#DejaVuSans-90"/>
      <use x="234.025391" xlink:href="#DejaVuSans-41"/>
     </g>
    </g>
   </g>
   <g id="line2d_20">
    <path clip-path="url(#pb579dbc0a4)" d="M 44.368742 109.184663 
L 54.313958 109.498952 
L 61.772871 109.94888 
L 67.574247 110.536889 
L 71.718087 111.166335 
L 75.033159 111.85544 
L 78.348231 112.772207 
L 80.834535 113.655411 
L 83.32084 114.751447 
L 85.807144 116.10896 
L 88.293448 117.783151 
L 90.779752 119.833144 
L 92.437288 121.437419 
L 94.094824 123.249764 
L 96.581128 126.382897 
L 99.067432 130.026095 
L 101.553736 134.156985 
L 104.04004 138.704413 
L 108.183881 146.859923 
L 113.156489 156.621074 
L 115.642793 161.100006 
L 118.129097 165.151374 
L 120.615401 168.717527 
L 123.101705 171.787805 
L 125.588009 174.387526 
L 128.074313 176.564967 
L 130.560618 178.379818 
L 133.046922 179.894736 
L 135.533226 181.170175 
L 138.848298 182.593761 
L 142.992138 184.089746 
L 156.252427 188.636926 
L 167.855179 193.046974 
L 171.170251 194.027973 
L 174.485323 194.801028 
L 178.629164 195.49729 
L 182.773004 195.95664 
L 188.57438 196.335973 
L 196.033292 196.574684 
L 208.464813 196.72194 
L 209.293581 196.726792 
L 209.293581 196.726792 
" style="fill:none;stroke:#0370b8;stroke-linecap:square;"/>
   </g>
   <g id="line2d_21">
    <path clip-path="url(#pb579dbc0a4)" d="M 44.368742 182.177242 
L 117.300329 182.286114 
L 128.903082 182.503777 
L 135.533226 182.824924 
L 140.505834 183.282291 
L 144.649674 183.907058 
L 147.964746 184.63468 
L 151.279818 185.612022 
L 154.594891 186.852246 
L 158.738731 188.700364 
L 166.197643 192.128999 
L 169.512715 193.373893 
L 172.827787 194.356119 
L 176.142859 195.088025 
L 179.457932 195.612313 
L 183.601772 196.051303 
L 189.403148 196.406434 
L 197.690828 196.642589 
L 209.293581 196.763387 
L 209.293581 196.763387 
" style="fill:none;stroke:#d56339;stroke-linecap:square;stroke-width:1.1;"/>
   </g>
   <g id="line2d_22">
    <path clip-path="url(#pb579dbc0a4)" d="M 44.368742 123.859375 
L 55.142726 124.18973 
L 62.601639 124.633746 
L 68.403015 125.208532 
L 72.546855 125.818494 
L 75.861927 126.481286 
L 79.176999 127.356653 
L 81.663304 128.194459 
L 84.149608 129.228186 
L 86.635912 130.501292 
L 89.122216 132.062962 
L 91.60852 133.965891 
L 94.094824 136.261918 
L 96.581128 138.994947 
L 99.067432 142.191167 
L 101.553736 145.847671 
L 104.04004 149.922087 
L 107.355113 155.84765 
L 115.642793 171.000058 
L 118.129097 175.026349 
L 120.615401 178.627055 
L 123.101705 181.765151 
L 125.588009 184.441964 
L 128.074313 186.68649 
L 130.560618 188.544102 
L 133.046922 190.067072 
L 135.533226 191.307847 
L 138.01953 192.314983 
L 141.334602 193.367216 
L 144.649674 194.162583 
L 148.793514 194.89221 
L 153.766123 195.496822 
L 159.567499 195.958181 
L 167.026411 196.317648 
L 177.800396 196.587519 
L 194.375756 196.751315 
L 209.293581 196.800984 
L 209.293581 196.800984 
" style="fill:none;stroke:#eeb92e;stroke-linecap:square;stroke-width:1.1;"/>
   </g>
   <g id="patch_9">
    <path d="M 36.1225 201.1818 
L 36.1225 104.803847 
" style="fill:none;stroke:#000000;stroke-linecap:square;stroke-linejoin:miter;stroke-width:0.8;"/>
   </g>
   <g id="patch_10">
    <path d="M 217.539823 201.1818 
L 217.539823 104.803847 
" style="fill:none;stroke:#000000;stroke-linecap:square;stroke-linejoin:miter;stroke-width:0.8;"/>
   </g>
   <g id="patch_11">
    <path d="M 36.1225 201.1818 
L 217.539823 201.1818 
" style="fill:none;stroke:#000000;stroke-linecap:square;stroke-linejoin:miter;stroke-width:0.8;"/>
   </g>
   <g id="patch_12">
    <path d="M 36.1225 104.803847 
L 217.539823 104.803847 
" style="fill:none;stroke:#000000;stroke-linecap:square;stroke-linejoin:miter;stroke-width:0.8;"/>
   </g>
  </g>
  <g id="axes_3">
   <g id="patch_13">
    <path d="M 262.894154 133.931575 
L 444.311476 133.931575 
L 444.311476 75.676118 
L 262.894154 75.676118 
z
" style="fill:#ffffff;"/>
   </g>
   <g id="matplotlib.axis_5">
    <g id="xtick_4">
     <g id="line2d_23">
      <g>
       <use style="stroke:#000000;stroke-width:0.8;" x="270.946621" xlink:href="#m5bb0cb3cb4" y="133.931575"/>
      </g>
     </g>
     <g id="text_18">
      <!-- 0 -->
      <g transform="translate(268.401621 147.010325)scale(0.08 -0.08)">
       <use xlink:href="#DejaVuSans-48"/>
      </g>
     </g>
    </g>
    <g id="xtick_5">
     <g id="line2d_24">
      <g>
       <use style="stroke:#000000;stroke-width:0.8;" x="298.55168" xlink:href="#m5bb0cb3cb4" y="133.931575"/>
      </g>
     </g>
     <g id="text_19">
      <!-- 10 -->
      <g transform="translate(293.46168 147.010325)scale(0.08 -0.08)">
       <use xlink:href="#DejaVuSans-49"/>
       <use x="63.623047" xlink:href="#DejaVuSans-48"/>
      </g>
     </g>
    </g>
    <g id="xtick_6">
     <g id="line2d_25">
      <g>
       <use style="stroke:#000000;stroke-width:0.8;" x="326.156739" xlink:href="#m5bb0cb3cb4" y="133.931575"/>
      </g>
     </g>
     <g id="text_20">
      <!-- 20 -->
      <g transform="translate(321.066739 147.010325)scale(0.08 -0.08)">
       <use xlink:href="#DejaVuSans-50"/>
       <use x="63.623047" xlink:href="#DejaVuSans-48"/>
      </g>
     </g>
    </g>
    <g id="xtick_7">
     <g id="line2d_26">
      <g>
       <use style="stroke:#000000;stroke-width:0.8;" x="353.761798" xlink:href="#m5bb0cb3cb4" y="133.931575"/>
      </g>
     </g>
     <g id="text_21">
      <!-- 30 -->
      <g transform="translate(348.671798 147.010325)scale(0.08 -0.08)">
       <use xlink:href="#DejaVuSans-51"/>
       <use x="63.623047" xlink:href="#DejaVuSans-48"/>
      </g>
     </g>
    </g>
    <g id="xtick_8">
     <g id="line2d_27">
      <g>
       <use style="stroke:#000000;stroke-width:0.8;" x="381.366857" xlink:href="#m5bb0cb3cb4" y="133.931575"/>
      </g>
     </g>
     <g id="text_22">
      <!-- 40 -->
      <g transform="translate(376.276857 147.010325)scale(0.08 -0.08)">
       <use xlink:href="#DejaVuSans-52"/>
       <use x="63.623047" xlink:href="#DejaVuSans-48"/>
      </g>
     </g>
    </g>
    <g id="xtick_9">
     <g id="line2d_28">
      <g>
       <use style="stroke:#000000;stroke-width:0.8;" x="408.971916" xlink:href="#m5bb0cb3cb4" y="133.931575"/>
      </g>
     </g>
     <g id="text_23">
      <!-- 50 -->
      <g transform="translate(403.881916 147.010325)scale(0.08 -0.08)">
       <use xlink:href="#DejaVuSans-53"/>
       <use x="63.623047" xlink:href="#DejaVuSans-48"/>
      </g>
     </g>
    </g>
    <g id="xtick_10">
     <g id="line2d_29">
      <g>
       <use style="stroke:#000000;stroke-width:0.8;" x="436.576975" xlink:href="#m5bb0cb3cb4" y="133.931575"/>
      </g>
     </g>
     <g id="text_24">
      <!-- 60 -->
      <g transform="translate(431.486975 147.010325)scale(0.08 -0.08)">
       <use xlink:href="#DejaVuSans-54"/>
       <use x="63.623047" xlink:href="#DejaVuSans-48"/>
      </g>
     </g>
    </g>
    <g id="text_25">
     <!-- Re(Z) -->
     <g transform="translate(342.68094 158.752825)scale(0.08 -0.08)">
      <use xlink:href="#DejaVuSans-82"/>
      <use x="64.982422" xlink:href="#DejaVuSans-101"/>
      <use x="126.505859" xlink:href="#DejaVuSans-40"/>
      <use x="165.519531" xlink:href="#DejaVuSans-90"/>
      <use x="234.025391" xlink:href="#DejaVuSans-41"/>
     </g>
    </g>
   </g>
   <g id="matplotlib.axis_6">
    <g id="ytick_10">
     <g id="line2d_30">
      <g>
       <use style="stroke:#000000;stroke-width:0.8;" x="262.894154" xlink:href="#m34efbbb680" y="131.962621"/>
      </g>
     </g>
     <g id="text_26">
      <!-- 0 -->
      <g transform="translate(250.804154 135.001996)scale(0.08 -0.08)">
       <use xlink:href="#DejaVuSans-48"/>
      </g>
     </g>
    </g>
    <g id="ytick_11">
     <g id="line2d_31">
      <g>
       <use style="stroke:#000000;stroke-width:0.8;" x="262.894154" xlink:href="#m34efbbb680" y="104.357562"/>
      </g>
     </g>
     <g id="text_27">
      <!-- 10 -->
      <g transform="translate(245.714154 107.396937)scale(0.08 -0.08)">
       <use xlink:href="#DejaVuSans-49"/>
       <use x="63.623047" xlink:href="#DejaVuSans-48"/>
      </g>
     </g>
    </g>
    <g id="ytick_12">
     <g id="line2d_32">
      <g>
       <use style="stroke:#000000;stroke-width:0.8;" x="262.894154" xlink:href="#m34efbbb680" y="76.752503"/>
      </g>
     </g>
     <g id="text_28">
      <!-- 20 -->
      <g transform="translate(245.714154 79.791878)scale(0.08 -0.08)">
       <use xlink:href="#DejaVuSans-50"/>
       <use x="63.623047" xlink:href="#DejaVuSans-48"/>
      </g>
     </g>
    </g>
    <g id="text_29">
     <!-- -Im(Z) -->
     <g transform="translate(240.050404 117.184472)rotate(-90)scale(0.08 -0.08)">
      <use xlink:href="#DejaVuSans-45"/>
      <use x="36.083984" xlink:href="#DejaVuSans-73"/>
      <use x="65.576172" xlink:href="#DejaVuSans-109"/>
      <use x="162.988281" xlink:href="#DejaVuSans-40"/>
      <use x="202.001953" xlink:href="#DejaVuSans-90"/>
      <use x="270.507812" xlink:href="#DejaVuSans-41"/>
     </g>
    </g>
   </g>
   <g id="line2d_33">
    <path clip-path="url(#p00fc77b5f2)" d="M 436.065234 130.172924 
L 434.62549 126.249242 
L 433.091983 122.664768 
L 431.393498 119.194709 
L 429.306487 115.453016 
L 427.003079 111.82217 
L 424.784852 108.707514 
L 422.040562 105.265383 
L 419.866127 102.804688 
L 417.376995 100.23221 
L 414.540189 97.57518 
L 411.325068 94.870242 
L 407.705849 92.164086 
L 403.664651 89.513389 
L 399.194849 86.98377 
L 394.304402 84.64752 
L 389.018673 82.580009 
L 386.240721 81.670255 
L 383.38216 80.854853 
L 380.451554 80.141797 
L 377.458563 79.538252 
L 374.413825 79.050373 
L 371.328816 78.683152 
L 368.215673 78.44029 
L 365.086995 78.324094 
L 361.955629 78.335415 
L 358.834448 78.473624 
L 355.736121 78.736626 
L 352.6729 79.120918 
L 349.656414 79.621677 
L 346.697492 80.232886 
L 340.99077 81.757526 
L 335.618379 83.628928 
L 330.626849 85.773047 
L 326.043447 88.11339 
L 321.877714 90.575931 
L 318.124156 93.092828 
L 314.765481 95.604824 
L 311.775917 98.062415 
L 307.914468 101.562816 
L 303.746861 105.746228 
L 296.025644 113.805691 
L 294.425486 115.15266 
L 292.893066 116.191843 
L 291.365017 116.972476 
L 289.78982 117.55566 
L 286.975122 118.289207 
L 283.310121 119.224784 
L 280.858877 120.10831 
L 279.133353 120.94109 
L 277.575236 121.894334 
L 275.824006 123.271277 
L 274.463718 124.655982 
L 273.252473 126.249669 
L 272.339054 127.834758 
L 271.631859 129.514964 
L 271.140395 131.2836 
L 271.140395 131.2836 
" style="fill:none;stroke:#0370b8;stroke-linecap:square;"/>
   </g>
   <g id="line2d_34">
    <path clip-path="url(#p00fc77b5f2)" d="M 290.847312 117.185448 
L 288.695393 117.870136 
L 282.071929 119.63383 
L 280.268609 120.370373 
L 278.592856 121.247447 
L 277.100795 122.231162 
L 275.44793 123.621263 
L 274.18122 124.990792 
L 273.064945 126.540588 
L 272.128554 128.277003 
L 271.461022 130.037078 
L 271.140395 131.2836 
L 271.140395 131.2836 
" style="fill:none;stroke:#d56339;stroke-linecap:square;stroke-width:1.1;"/>
   </g>
   <g id="line2d_35">
    <path clip-path="url(#p00fc77b5f2)" d="M 436.065234 130.172924 
L 434.62549 126.249242 
L 433.091983 122.664768 
L 431.393498 119.194709 
L 429.306487 115.453016 
L 427.003079 111.82217 
L 424.784852 108.707514 
L 422.040562 105.265383 
L 419.866127 102.804688 
L 417.376995 100.23221 
L 414.540189 97.57518 
L 411.325068 94.870242 
L 407.705849 92.164086 
L 403.664651 89.513389 
L 399.194849 86.98377 
L 394.304402 84.64752 
L 389.018673 82.580009 
L 386.240721 81.670255 
L 383.38216 80.854853 
L 380.451554 80.141797 
L 377.458563 79.538252 
L 374.413825 79.050373 
L 371.328816 78.683152 
L 368.215673 78.44029 
L 365.086995 78.324094 
L 361.955629 78.335415 
L 358.834448 78.473624 
L 355.736121 78.736626 
L 352.6729 79.120918 
L 349.656414 79.621677 
L 346.697492 80.232886 
L 340.99077 81.757526 
L 335.618379 83.628928 
L 330.626849 85.773047 
L 326.043447 88.11339 
L 321.877714 90.575931 
L 318.124156 93.092828 
L 314.765481 95.604824 
L 311.775917 98.062415 
L 307.914468 101.562816 
L 303.746861 105.746228 
L 296.025644 113.805691 
L 294.425486 115.15266 
L 292.893066 116.191843 
L 291.365017 116.972476 
L 291.365017 116.972476 
" style="fill:none;stroke:#eeb92e;stroke-linecap:square;stroke-width:1.1;"/>
   </g>
   <g id="patch_14">
    <path d="M 262.894154 133.931575 
L 262.894154 75.676118 
" style="fill:none;stroke:#000000;stroke-linecap:square;stroke-linejoin:miter;stroke-width:0.8;"/>
   </g>
   <g id="patch_15">
    <path d="M 444.311476 133.931575 
L 444.311476 75.676118 
" style="fill:none;stroke:#000000;stroke-linecap:square;stroke-linejoin:miter;stroke-width:0.8;"/>
   </g>
   <g id="patch_16">
    <path d="M 262.894154 133.931575 
L 444.311476 133.931575 
" style="fill:none;stroke:#000000;stroke-linecap:square;stroke-linejoin:miter;stroke-width:0.8;"/>
   </g>
   <g id="patch_17">
    <path d="M 262.894154 75.676118 
L 444.311476 75.676118 
" style="fill:none;stroke:#000000;stroke-linecap:square;stroke-linejoin:miter;stroke-width:0.8;"/>
   </g>
  </g>
 </g>
 <defs>
  <clipPath id="p3a1835af30">
   <rect height="96.377953" width="181.417323" x="36.1225" y="8.425894"/>
  </clipPath>
  <clipPath id="pb579dbc0a4">
   <rect height="96.377953" width="181.417323" x="36.1225" y="104.803847"/>
  </clipPath>
  <clipPath id="p00fc77b5f2">
   <rect height="58.255457" width="181.417323" x="262.894154" y="75.676118"/>
  </clipPath>
 </defs>
</svg>
