<?xml version="1.0" encoding="utf-8" standalone="no"?>
<!DOCTYPE svg PUBLIC "-//W3C//DTD SVG 1.1//EN"
  "http://www.w3.org/Graphics/SVG/1.1/DTD/svg11.dtd">
<!-- Created with matplotlib (https://matplotlib.org/) -->
<svg height="234.218406pt" version="1.1" viewBox="0 0 466.512543 234.218406" width="466.512543pt" xmlns="http://www.w3.org/2000/svg" xmlns:xlink="http://www.w3.org/1999/xlink">
 <defs>
  <style type="text/css">
*{stroke-linecap:butt;stroke-linejoin:round;}
  </style>
 </defs>
 <g id="figure_1">
  <g id="patch_1">
   <path d="M 0 234.218406 
L 466.512543 234.218406 
L 466.512543 0 
L 0 0 
z
" style="fill:#ffffff;"/>
  </g>
  <g id="axes_1">
   <g id="patch_2">
    <path d="M 50.45875 103.577953 
L 231.876073 103.577953 
L 231.876073 7.2 
L 50.45875 7.2 
z
" style="fill:#ffffff;"/>
   </g>
   <g id="matplotlib.axis_1">
    <g id="xtick_1">
     <g id="line2d_1">
      <defs>
       <path d="M 0 0 
L 0 2 
" id="mac2adcb412" style="stroke:#000000;stroke-width:0.6;"/>
      </defs>
      <g>
       <use style="stroke:#000000;stroke-width:0.6;" x="51.387318" xlink:href="#mac2adcb412" y="103.577953"/>
      </g>
     </g>
    </g>
    <g id="xtick_2">
     <g id="line2d_2">
      <g>
       <use style="stroke:#000000;stroke-width:0.6;" x="53.595556" xlink:href="#mac2adcb412" y="103.577953"/>
      </g>
     </g>
    </g>
    <g id="xtick_3">
     <g id="line2d_3">
      <g>
       <use style="stroke:#000000;stroke-width:0.6;" x="55.508418" xlink:href="#mac2adcb412" y="103.577953"/>
      </g>
     </g>
    </g>
    <g id="xtick_4">
     <g id="line2d_4">
      <g>
       <use style="stroke:#000000;stroke-width:0.6;" x="57.195683" xlink:href="#mac2adcb412" y="103.577953"/>
      </g>
     </g>
    </g>
    <g id="xtick_5">
     <g id="line2d_5">
      <g>
       <use style="stroke:#000000;stroke-width:0.6;" x="68.634457" xlink:href="#mac2adcb412" y="103.577953"/>
      </g>
     </g>
    </g>
    <g id="xtick_6">
     <g id="line2d_6">
      <g>
       <use style="stroke:#000000;stroke-width:0.6;" x="74.442821" xlink:href="#mac2adcb412" y="103.577953"/>
      </g>
     </g>
    </g>
    <g id="xtick_7">
     <g id="line2d_7">
      <g>
       <use style="stroke:#000000;stroke-width:0.6;" x="78.563921" xlink:href="#mac2adcb412" y="103.577953"/>
      </g>
     </g>
    </g>
    <g id="xtick_8">
     <g id="line2d_8">
      <g>
       <use style="stroke:#000000;stroke-width:0.6;" x="81.760495" xlink:href="#mac2adcb412" y="103.577953"/>
      </g>
     </g>
    </g>
    <g id="xtick_9">
     <g id="line2d_9">
      <g>
       <use style="stroke:#000000;stroke-width:0.6;" x="84.372286" xlink:href="#mac2adcb412" y="103.577953"/>
      </g>
     </g>
    </g>
    <g id="xtick_10">
     <g id="line2d_10">
      <g>
       <use style="stroke:#000000;stroke-width:0.6;" x="86.580524" xlink:href="#mac2adcb412" y="103.577953"/>
      </g>
     </g>
    </g>
    <g id="xtick_11">
     <g id="line2d_11">
      <g>
       <use style="stroke:#000000;stroke-width:0.6;" x="88.493386" xlink:href="#mac2adcb412" y="103.577953"/>
      </g>
     </g>
    </g>
    <g id="xtick_12">
     <g id="line2d_12">
      <g>
       <use style="stroke:#000000;stroke-width:0.6;" x="90.18065" xlink:href="#mac2adcb412" y="103.577953"/>
      </g>
     </g>
    </g>
    <g id="xtick_13">
     <g id="line2d_13">
      <g>
       <use style="stroke:#000000;stroke-width:0.6;" x="101.619424" xlink:href="#mac2adcb412" y="103.577953"/>
      </g>
     </g>
    </g>
    <g id="xtick_14">
     <g id="line2d_14">
      <g>
       <use style="stroke:#000000;stroke-width:0.6;" x="107.427789" xlink:href="#mac2adcb412" y="103.577953"/>
      </g>
     </g>
    </g>
    <g id="xtick_15">
     <g id="line2d_15">
      <g>
       <use style="stroke:#000000;stroke-width:0.6;" x="111.548889" xlink:href="#mac2adcb412" y="103.577953"/>
      </g>
     </g>
    </g>
    <g id="xtick_16">
     <g id="line2d_16">
      <g>
       <use style="stroke:#000000;stroke-width:0.6;" x="114.745463" xlink:href="#mac2adcb412" y="103.577953"/>
      </g>
     </g>
    </g>
    <g id="xtick_17">
     <g id="line2d_17">
      <g>
       <use style="stroke:#000000;stroke-width:0.6;" x="117.357254" xlink:href="#mac2adcb412" y="103.577953"/>
      </g>
     </g>
    </g>
    <g id="xtick_18">
     <g id="line2d_18">
      <g>
       <use style="stroke:#000000;stroke-width:0.6;" x="119.565491" xlink:href="#mac2adcb412" y="103.577953"/>
      </g>
     </g>
    </g>
    <g id="xtick_19">
     <g id="line2d_19">
      <g>
       <use style="stroke:#000000;stroke-width:0.6;" x="121.478354" xlink:href="#mac2adcb412" y="103.577953"/>
      </g>
     </g>
    </g>
    <g id="xtick_20">
     <g id="line2d_20">
      <g>
       <use style="stroke:#000000;stroke-width:0.6;" x="123.165618" xlink:href="#mac2adcb412" y="103.577953"/>
      </g>
     </g>
    </g>
    <g id="xtick_21">
     <g id="line2d_21">
      <g>
       <use style="stroke:#000000;stroke-width:0.6;" x="134.604392" xlink:href="#mac2adcb412" y="103.577953"/>
      </g>
     </g>
    </g>
    <g id="xtick_22">
     <g id="line2d_22">
      <g>
       <use style="stroke:#000000;stroke-width:0.6;" x="140.412757" xlink:href="#mac2adcb412" y="103.577953"/>
      </g>
     </g>
    </g>
    <g id="xtick_23">
     <g id="line2d_23">
      <g>
       <use style="stroke:#000000;stroke-width:0.6;" x="144.533857" xlink:href="#mac2adcb412" y="103.577953"/>
      </g>
     </g>
    </g>
    <g id="xtick_24">
     <g id="line2d_24">
      <g>
       <use style="stroke:#000000;stroke-width:0.6;" x="147.730431" xlink:href="#mac2adcb412" y="103.577953"/>
      </g>
     </g>
    </g>
    <g id="xtick_25">
     <g id="line2d_25">
      <g>
       <use style="stroke:#000000;stroke-width:0.6;" x="150.342221" xlink:href="#mac2adcb412" y="103.577953"/>
      </g>
     </g>
    </g>
    <g id="xtick_26">
     <g id="line2d_26">
      <g>
       <use style="stroke:#000000;stroke-width:0.6;" x="152.550459" xlink:href="#mac2adcb412" y="103.577953"/>
      </g>
     </g>
    </g>
    <g id="xtick_27">
     <g id="line2d_27">
      <g>
       <use style="stroke:#000000;stroke-width:0.6;" x="154.463322" xlink:href="#mac2adcb412" y="103.577953"/>
      </g>
     </g>
    </g>
    <g id="xtick_28">
     <g id="line2d_28">
      <g>
       <use style="stroke:#000000;stroke-width:0.6;" x="156.150586" xlink:href="#mac2adcb412" y="103.577953"/>
      </g>
     </g>
    </g>
    <g id="xtick_29">
     <g id="line2d_29">
      <g>
       <use style="stroke:#000000;stroke-width:0.6;" x="167.58936" xlink:href="#mac2adcb412" y="103.577953"/>
      </g>
     </g>
    </g>
    <g id="xtick_30">
     <g id="line2d_30">
      <g>
       <use style="stroke:#000000;stroke-width:0.6;" x="173.397725" xlink:href="#mac2adcb412" y="103.577953"/>
      </g>
     </g>
    </g>
    <g id="xtick_31">
     <g id="line2d_31">
      <g>
       <use style="stroke:#000000;stroke-width:0.6;" x="177.518825" xlink:href="#mac2adcb412" y="103.577953"/>
      </g>
     </g>
    </g>
    <g id="xtick_32">
     <g id="line2d_32">
      <g>
       <use style="stroke:#000000;stroke-width:0.6;" x="180.715398" xlink:href="#mac2adcb412" y="103.577953"/>
      </g>
     </g>
    </g>
    <g id="xtick_33">
     <g id="line2d_33">
      <g>
       <use style="stroke:#000000;stroke-width:0.6;" x="183.327189" xlink:href="#mac2adcb412" y="103.577953"/>
      </g>
     </g>
    </g>
    <g id="xtick_34">
     <g id="line2d_34">
      <g>
       <use style="stroke:#000000;stroke-width:0.6;" x="185.535427" xlink:href="#mac2adcb412" y="103.577953"/>
      </g>
     </g>
    </g>
    <g id="xtick_35">
     <g id="line2d_35">
      <g>
       <use style="stroke:#000000;stroke-width:0.6;" x="187.448289" xlink:href="#mac2adcb412" y="103.577953"/>
      </g>
     </g>
    </g>
    <g id="xtick_36">
     <g id="line2d_36">
      <g>
       <use style="stroke:#000000;stroke-width:0.6;" x="189.135554" xlink:href="#mac2adcb412" y="103.577953"/>
      </g>
     </g>
    </g>
    <g id="xtick_37">
     <g id="line2d_37">
      <g>
       <use style="stroke:#000000;stroke-width:0.6;" x="200.574328" xlink:href="#mac2adcb412" y="103.577953"/>
      </g>
     </g>
    </g>
    <g id="xtick_38">
     <g id="line2d_38">
      <g>
       <use style="stroke:#000000;stroke-width:0.6;" x="206.382692" xlink:href="#mac2adcb412" y="103.577953"/>
      </g>
     </g>
    </g>
    <g id="xtick_39">
     <g id="line2d_39">
      <g>
       <use style="stroke:#000000;stroke-width:0.6;" x="210.503793" xlink:href="#mac2adcb412" y="103.577953"/>
      </g>
     </g>
    </g>
    <g id="xtick_40">
     <g id="line2d_40">
      <g>
       <use style="stroke:#000000;stroke-width:0.6;" x="213.700366" xlink:href="#mac2adcb412" y="103.577953"/>
      </g>
     </g>
    </g>
    <g id="xtick_41">
     <g id="line2d_41">
      <g>
       <use style="stroke:#000000;stroke-width:0.6;" x="216.312157" xlink:href="#mac2adcb412" y="103.577953"/>
      </g>
     </g>
    </g>
    <g id="xtick_42">
     <g id="line2d_42">
      <g>
       <use style="stroke:#000000;stroke-width:0.6;" x="218.520395" xlink:href="#mac2adcb412" y="103.577953"/>
      </g>
     </g>
    </g>
    <g id="xtick_43">
     <g id="line2d_43">
      <g>
       <use style="stroke:#000000;stroke-width:0.6;" x="220.433257" xlink:href="#mac2adcb412" y="103.577953"/>
      </g>
     </g>
    </g>
    <g id="xtick_44">
     <g id="line2d_44">
      <g>
       <use style="stroke:#000000;stroke-width:0.6;" x="222.120522" xlink:href="#mac2adcb412" y="103.577953"/>
      </g>
     </g>
    </g>
   </g>
   <g id="matplotlib.axis_2">
    <g id="ytick_1">
     <g id="line2d_45">
      <defs>
       <path d="M 0 0 
L -3.5 0 
" id="mee88c2f0f6" style="stroke:#000000;stroke-width:0.8;"/>
      </defs>
      <g>
       <use style="stroke:#000000;stroke-width:0.8;" x="50.45875" xlink:href="#mee88c2f0f6" y="99.212583"/>
      </g>
     </g>
     <g id="text_1">
      <!-- −0.15 -->
      <defs>
       <path d="M 10.59375 35.5 
L 73.1875 35.5 
L 73.1875 27.203125 
L 10.59375 27.203125 
z
" id="DejaVuSans-8722"/>
       <path d="M 31.78125 66.40625 
Q 24.171875 66.40625 20.328125 58.90625 
Q 16.5 51.421875 16.5 36.375 
Q 16.5 21.390625 20.328125 13.890625 
Q 24.171875 6.390625 31.78125 6.390625 
Q 39.453125 6.390625 43.28125 13.890625 
Q 47.125 21.390625 47.125 36.375 
Q 47.125 51.421875 43.28125 58.90625 
Q 39.453125 66.40625 31.78125 66.40625 
z
M 31.78125 74.21875 
Q 44.046875 74.21875 50.515625 64.515625 
Q 56.984375 54.828125 56.984375 36.375 
Q 56.984375 17.96875 50.515625 8.265625 
Q 44.046875 -1.421875 31.78125 -1.421875 
Q 19.53125 -1.421875 13.0625 8.265625 
Q 6.59375 17.96875 6.59375 36.375 
Q 6.59375 54.828125 13.0625 64.515625 
Q 19.53125 74.21875 31.78125 74.21875 
z
" id="DejaVuSans-48"/>
       <path d="M 10.6875 12.40625 
L 21 12.40625 
L 21 0 
L 10.6875 0 
z
" id="DejaVuSans-46"/>
       <path d="M 12.40625 8.296875 
L 28.515625 8.296875 
L 28.515625 63.921875 
L 10.984375 60.40625 
L 10.984375 69.390625 
L 28.421875 72.90625 
L 38.28125 72.90625 
L 38.28125 8.296875 
L 54.390625 8.296875 
L 54.390625 0 
L 12.40625 0 
z
" id="DejaVuSans-49"/>
       <path d="M 10.796875 72.90625 
L 49.515625 72.90625 
L 49.515625 64.59375 
L 19.828125 64.59375 
L 19.828125 46.734375 
Q 21.96875 47.46875 24.109375 47.828125 
Q 26.265625 48.1875 28.421875 48.1875 
Q 40.625 48.1875 47.75 41.5 
Q 54.890625 34.8125 54.890625 23.390625 
Q 54.890625 11.625 47.5625 5.09375 
Q 40.234375 -1.421875 26.90625 -1.421875 
Q 22.3125 -1.421875 17.546875 -0.640625 
Q 12.796875 0.140625 7.71875 1.703125 
L 7.71875 11.625 
Q 12.109375 9.234375 16.796875 8.0625 
Q 21.484375 6.890625 26.703125 6.890625 
Q 35.15625 6.890625 40.078125 11.328125 
Q 45.015625 15.765625 45.015625 23.390625 
Q 45.015625 31 40.078125 35.4375 
Q 35.15625 39.890625 26.703125 39.890625 
Q 22.75 39.890625 18.8125 39.015625 
Q 14.890625 38.140625 10.796875 36.28125 
z
" id="DejaVuSans-53"/>
      </defs>
      <g transform="translate(18.9425 102.251958)scale(0.08 -0.08)">
       <use xlink:href="#DejaVuSans-8722"/>
       <use x="83.789062" xlink:href="#DejaVuSans-48"/>
       <use x="147.412109" xlink:href="#DejaVuSans-46"/>
       <use x="179.199219" xlink:href="#DejaVuSans-49"/>
       <use x="242.822266" xlink:href="#DejaVuSans-53"/>
      </g>
     </g>
    </g>
    <g id="ytick_2">
     <g id="line2d_46">
      <g>
       <use style="stroke:#000000;stroke-width:0.8;" x="50.45875" xlink:href="#mee88c2f0f6" y="81.684527"/>
      </g>
     </g>
     <g id="text_2">
      <!-- −0.10 -->
      <g transform="translate(18.9425 84.723902)scale(0.08 -0.08)">
       <use xlink:href="#DejaVuSans-8722"/>
       <use x="83.789062" xlink:href="#DejaVuSans-48"/>
       <use x="147.412109" xlink:href="#DejaVuSans-46"/>
       <use x="179.199219" xlink:href="#DejaVuSans-49"/>
       <use x="242.822266" xlink:href="#DejaVuSans-48"/>
      </g>
     </g>
    </g>
    <g id="ytick_3">
     <g id="line2d_47">
      <g>
       <use style="stroke:#000000;stroke-width:0.8;" x="50.45875" xlink:href="#mee88c2f0f6" y="64.156471"/>
      </g>
     </g>
     <g id="text_3">
      <!-- −0.05 -->
      <g transform="translate(18.9425 67.195846)scale(0.08 -0.08)">
       <use xlink:href="#DejaVuSans-8722"/>
       <use x="83.789062" xlink:href="#DejaVuSans-48"/>
       <use x="147.412109" xlink:href="#DejaVuSans-46"/>
       <use x="179.199219" xlink:href="#DejaVuSans-48"/>
       <use x="242.822266" xlink:href="#DejaVuSans-53"/>
      </g>
     </g>
    </g>
    <g id="ytick_4">
     <g id="line2d_48">
      <g>
       <use style="stroke:#000000;stroke-width:0.8;" x="50.45875" xlink:href="#mee88c2f0f6" y="46.628414"/>
      </g>
     </g>
     <g id="text_4">
      <!-- 0.00 -->
      <g transform="translate(25.64625 49.667789)scale(0.08 -0.08)">
       <use xlink:href="#DejaVuSans-48"/>
       <use x="63.623047" xlink:href="#DejaVuSans-46"/>
       <use x="95.410156" xlink:href="#DejaVuSans-48"/>
       <use x="159.033203" xlink:href="#DejaVuSans-48"/>
      </g>
     </g>
    </g>
    <g id="ytick_5">
     <g id="line2d_49">
      <g>
       <use style="stroke:#000000;stroke-width:0.8;" x="50.45875" xlink:href="#mee88c2f0f6" y="29.100358"/>
      </g>
     </g>
     <g id="text_5">
      <!-- 0.05 -->
      <g transform="translate(25.64625 32.139733)scale(0.08 -0.08)">
       <use xlink:href="#DejaVuSans-48"/>
       <use x="63.623047" xlink:href="#DejaVuSans-46"/>
       <use x="95.410156" xlink:href="#DejaVuSans-48"/>
       <use x="159.033203" xlink:href="#DejaVuSans-53"/>
      </g>
     </g>
    </g>
    <g id="ytick_6">
     <g id="line2d_50">
      <g>
       <use style="stroke:#000000;stroke-width:0.8;" x="50.45875" xlink:href="#mee88c2f0f6" y="11.572302"/>
      </g>
     </g>
     <g id="text_6">
      <!-- 0.10 -->
      <g transform="translate(25.64625 14.611677)scale(0.08 -0.08)">
       <use xlink:href="#DejaVuSans-48"/>
       <use x="63.623047" xlink:href="#DejaVuSans-46"/>
       <use x="95.410156" xlink:href="#DejaVuSans-49"/>
       <use x="159.033203" xlink:href="#DejaVuSans-48"/>
      </g>
     </g>
    </g>
    <g id="text_7">
     <!-- -Im(Z) -->
     <defs>
      <path d="M 4.890625 31.390625 
L 31.203125 31.390625 
L 31.203125 23.390625 
L 4.890625 23.390625 
z
" id="DejaVuSans-45"/>
      <path d="M 9.8125 72.90625 
L 19.671875 72.90625 
L 19.671875 0 
L 9.8125 0 
z
" id="DejaVuSans-73"/>
      <path d="M 52 44.1875 
Q 55.375 50.25 60.0625 53.125 
Q 64.75 56 71.09375 56 
Q 79.640625 56 84.28125 50.015625 
Q 88.921875 44.046875 88.921875 33.015625 
L 88.921875 0 
L 79.890625 0 
L 79.890625 32.71875 
Q 79.890625 40.578125 77.09375 44.375 
Q 74.3125 48.1875 68.609375 48.1875 
Q 61.625 48.1875 57.5625 43.546875 
Q 53.515625 38.921875 53.515625 30.90625 
L 53.515625 0 
L 44.484375 0 
L 44.484375 32.71875 
Q 44.484375 40.625 41.703125 44.40625 
Q 38.921875 48.1875 33.109375 48.1875 
Q 26.21875 48.1875 22.15625 43.53125 
Q 18.109375 38.875 18.109375 30.90625 
L 18.109375 0 
L 9.078125 0 
L 9.078125 54.6875 
L 18.109375 54.6875 
L 18.109375 46.1875 
Q 21.1875 51.21875 25.484375 53.609375 
Q 29.78125 56 35.6875 56 
Q 41.65625 56 45.828125 52.96875 
Q 50 49.953125 52 44.1875 
z
" id="DejaVuSans-109"/>
      <path d="M 31 75.875 
Q 24.46875 64.65625 21.28125 53.65625 
Q 18.109375 42.671875 18.109375 31.390625 
Q 18.109375 20.125 21.3125 9.0625 
Q 24.515625 -2 31 -13.1875 
L 23.1875 -13.1875 
Q 15.875 -1.703125 12.234375 9.375 
Q 8.59375 20.453125 8.59375 31.390625 
Q 8.59375 42.28125 12.203125 53.3125 
Q 15.828125 64.359375 23.1875 75.875 
z
" id="DejaVuSans-40"/>
      <path d="M 5.609375 72.90625 
L 62.890625 72.90625 
L 62.890625 65.375 
L 16.796875 8.296875 
L 64.015625 8.296875 
L 64.015625 0 
L 4.5 0 
L 4.5 7.515625 
L 50.59375 64.59375 
L 5.609375 64.59375 
z
" id="DejaVuSans-90"/>
      <path d="M 8.015625 75.875 
L 15.828125 75.875 
Q 23.140625 64.359375 26.78125 53.3125 
Q 30.421875 42.28125 30.421875 31.390625 
Q 30.421875 20.453125 26.78125 9.375 
Q 23.140625 -1.703125 15.828125 -13.1875 
L 8.015625 -13.1875 
Q 14.5 -2 17.703125 9.0625 
Q 20.90625 20.125 20.90625 31.390625 
Q 20.90625 42.671875 17.703125 53.65625 
Q 14.5 64.65625 8.015625 75.875 
z
" id="DejaVuSans-41"/>
     </defs>
     <g transform="translate(13.27875 67.769601)rotate(-90)scale(0.08 -0.08)">
      <use xlink:href="#DejaVuSans-45"/>
      <use x="36.083984" xlink:href="#DejaVuSans-73"/>
      <use x="65.576172" xlink:href="#DejaVuSans-109"/>
      <use x="162.988281" xlink:href="#DejaVuSans-40"/>
      <use x="202.001953" xlink:href="#DejaVuSans-90"/>
      <use x="270.507812" xlink:href="#DejaVuSans-41"/>
     </g>
    </g>
   </g>
   <g id="line2d_51">
    <path clip-path="url(#pce7f484a10)" d="M 58.704992 45.437066 
L 64.506368 44.84331 
L 69.478976 44.105177 
L 73.622817 43.26432 
L 76.937889 42.397736 
L 80.252961 41.314808 
L 83.568033 39.968325 
L 86.054337 38.754937 
L 88.540641 37.34396 
L 91.026945 35.718693 
L 93.513249 33.871671 
L 96.828322 31.084853 
L 105.94477 22.958901 
L 107.602306 21.884482 
L 109.259842 21.132192 
L 110.917378 20.791521 
L 111.746146 20.801266 
L 112.574914 20.942814 
L 113.403682 21.22326 
L 114.23245 21.648055 
L 115.061218 22.22084 
L 115.889986 22.943353 
L 117.547522 24.834991 
L 119.205058 27.300063 
L 120.862595 30.291396 
L 122.520131 33.74525 
L 125.006435 39.635456 
L 127.492739 46.161605 
L 131.636579 57.854777 
L 136.609187 72.01032 
L 139.095491 78.522568 
L 140.753027 82.420768 
L 142.410563 85.828865 
L 144.0681 88.634545 
L 145.725636 90.742688 
L 146.554404 91.513433 
L 147.383172 92.088495 
L 148.21194 92.466219 
L 149.040708 92.647847 
L 149.869476 92.637506 
L 150.698244 92.442074 
L 151.527012 92.070948 
L 152.35578 91.535715 
L 154.013316 90.027834 
L 155.670852 88.039173 
L 157.328388 85.698236 
L 160.64346 80.442195 
L 165.616068 72.498318 
L 168.102373 68.910708 
L 170.588677 65.690413 
L 173.074981 62.854814 
L 175.561285 60.391599 
L 178.047589 58.272297 
L 180.533893 56.461225 
L 183.020197 54.920967 
L 185.506501 53.615471 
L 187.992805 52.511608 
L 191.307878 51.302887 
L 194.62295 50.340535 
L 198.76679 49.409963 
L 202.91063 48.712055 
L 207.883238 48.101317 
L 213.684614 47.61096 
L 221.143527 47.212198 
L 223.629831 47.119187 
L 223.629831 47.119187 
" style="fill:none;stroke:#0370b8;stroke-linecap:square;"/>
   </g>
   <g id="line2d_52">
    <path clip-path="url(#pce7f484a10)" d="M 58.704992 46.83875 
L 71.136512 47.129359 
L 79.424193 47.52177 
L 86.054337 48.047412 
L 91.026945 48.635917 
L 95.170785 49.308572 
L 99.314626 50.205813 
L 102.629698 51.134235 
L 105.94477 52.301334 
L 108.431074 53.368383 
L 110.917378 54.632138 
L 113.403682 56.126154 
L 115.889986 57.887875 
L 118.37629 59.957778 
L 120.862595 62.377416 
L 123.348899 65.185633 
L 125.835203 68.412037 
L 128.321507 72.06656 
L 130.807811 76.124153 
L 134.122883 82.011961 
L 139.095491 90.919526 
L 140.753027 93.537375 
L 142.410563 95.783893 
L 144.0681 97.539711 
L 144.896868 98.200388 
L 145.725636 98.701803 
L 146.554404 99.035881 
L 147.383172 99.197137 
L 148.21194 99.182892 
L 149.040708 98.993384 
L 149.869476 98.631755 
L 150.698244 98.103929 
L 151.527012 97.418374 
L 153.184548 95.618668 
L 154.842084 93.337511 
L 156.49962 90.694983 
L 159.814692 84.804559 
L 164.7873 75.895794 
L 167.273605 71.858511 
L 169.759909 68.226859 
L 172.246213 65.023523 
L 174.732517 62.237164 
L 177.218821 59.83745 
L 179.705125 57.785251 
L 182.191429 56.038998 
L 184.677733 54.558338 
L 187.164037 53.306025 
L 190.479109 51.934453 
L 193.794182 50.842261 
L 197.109254 49.973714 
L 201.253094 49.134524 
L 206.225702 48.400032 
L 212.027078 47.810255 
L 218.657223 47.372438 
L 223.629831 47.154243 
L 223.629831 47.154243 
" style="fill:none;stroke:#d56339;stroke-linecap:square;stroke-width:1.1;"/>
   </g>
   <g id="line2d_53">
    <path clip-path="url(#pce7f484a10)" d="M 58.704992 45.22673 
L 63.6776 44.645838 
L 67.82144 43.982439 
L 71.965281 43.098786 
L 75.280353 42.186374 
L 78.595425 41.042992 
L 81.910497 39.615008 
L 84.396801 38.32058 
L 86.883105 36.804033 
L 89.369409 35.038348 
L 91.855713 33.000649 
L 94.342017 30.678036 
L 96.828322 28.076436 
L 100.143394 24.243858 
L 106.773538 16.378475 
L 108.431074 14.722405 
L 110.08861 13.346429 
L 111.746146 12.326895 
L 113.403682 11.72552 
L 114.23245 11.594769 
L 115.061218 11.580816 
L 115.889986 11.683893 
L 117.547522 12.232412 
L 119.205058 13.205035 
L 120.862595 14.542395 
L 122.520131 16.169392 
L 125.006435 18.97493 
L 133.294115 28.762296 
L 135.780419 31.295066 
L 138.266723 33.544942 
L 140.753027 35.511807 
L 143.239332 37.211801 
L 145.725636 38.669299 
L 148.21194 39.911741 
L 151.527012 41.280989 
L 154.842084 42.376497 
L 158.157156 43.250282 
L 162.300996 44.096246 
L 167.273605 44.837714 
L 173.074981 45.433599 
L 179.705125 45.876147 
L 188.821573 46.230283 
L 201.253094 46.461246 
L 221.972295 46.589058 
L 223.629831 46.593358 
L 223.629831 46.593358 
" style="fill:none;stroke:#eeb92e;stroke-linecap:square;stroke-width:1.1;"/>
   </g>
   <g id="patch_3">
    <path d="M 50.45875 103.577953 
L 50.45875 7.2 
" style="fill:none;stroke:#000000;stroke-linecap:square;stroke-linejoin:miter;stroke-width:0.8;"/>
   </g>
   <g id="patch_4">
    <path d="M 231.876073 103.577953 
L 231.876073 7.2 
" style="fill:none;stroke:#000000;stroke-linecap:square;stroke-linejoin:miter;stroke-width:0.8;"/>
   </g>
   <g id="patch_5">
    <path d="M 50.45875 103.577953 
L 231.876073 103.577953 
" style="fill:none;stroke:#000000;stroke-linecap:square;stroke-linejoin:miter;stroke-width:0.8;"/>
   </g>
   <g id="patch_6">
    <path d="M 50.45875 7.2 
L 231.876073 7.2 
" style="fill:none;stroke:#000000;stroke-linecap:square;stroke-linejoin:miter;stroke-width:0.8;"/>
   </g>
   <g id="legend_1">
    <g id="patch_7">
     <path d="M 56.75875 99.077953 
L 106.25875 99.077953 
Q 108.05875 99.077953 108.05875 97.277953 
L 108.05875 62.987953 
Q 108.05875 61.187953 106.25875 61.187953 
L 56.75875 61.187953 
Q 54.95875 61.187953 54.95875 62.987953 
L 54.95875 97.277953 
Q 54.95875 99.077953 56.75875 99.077953 
z
" style="fill:#ffffff;opacity:0.8;stroke:#cccccc;stroke-linejoin:miter;"/>
    </g>
    <g id="line2d_54">
     <path d="M 58.55875 70.187953 
L 76.55875 70.187953 
" style="fill:none;stroke:#d56339;stroke-linecap:square;stroke-width:1.1;"/>
    </g>
    <g id="line2d_55"/>
    <g id="text_8">
     <!-- $\rm \frac{J_{e}}{i \omega \tau_{e} + 1}$ -->
     <defs>
      <path d="M 30.5 66.203125 
L 30.5 21.203125 
Q 30.5 10.59375 26.953125 4.59375 
Q 23.40625 -1.40625 14.296875 -1.40625 
Q 6.703125 -1.40625 1.203125 4.203125 
L 3.09375 11.796875 
L 4.796875 11.796875 
Q 6.796875 9.5 9.5 7.84375 
Q 12.203125 6.203125 14.59375 6.203125 
Q 17.09375 6.203125 18.6875 7.453125 
Q 20.296875 8.703125 20.890625 11.203125 
Q 21.5 13.703125 21.640625 15.59375 
Q 21.796875 17.5 21.796875 20.59375 
L 21.796875 66.203125 
z
" id="STIXGeneral-Regular-120233"/>
      <path d="M 36.203125 16.703125 
L 42.796875 13.203125 
Q 39 5.59375 34.59375 2.296875 
Q 30.203125 -1 23 -1 
Q 13.90625 -1 8.09375 5.25 
Q 2.296875 11.5 2.296875 22.59375 
Q 2.296875 34.203125 9.5 40.90625 
Q 15.203125 46.296875 23.796875 46.296875 
Q 31.703125 46.296875 36.390625 41.140625 
Q 41.09375 36 41.09375 27.703125 
L 41.09375 22.203125 
L 10.203125 22.203125 
Q 10.203125 14.59375 14.09375 10.34375 
Q 18 6.09375 23.796875 6.09375 
Q 31.703125 6.09375 36.203125 16.703125 
z
M 11.5 29.296875 
L 33 29.296875 
Q 32.703125 39.203125 23 39.203125 
Q 19 39.203125 15.703125 36.703125 
Q 12.40625 34.203125 11.5 29.296875 
z
" id="STIXGeneral-Regular-120254"/>
      <path d="M 15.59375 58.59375 
L 6.40625 58.59375 
L 6.40625 67.90625 
L 15.59375 67.90625 
z
M 15.203125 0 
L 6.90625 0 
L 6.90625 44 
L 14.296875 46.40625 
L 15.203125 45.90625 
z
" id="STIXGeneral-Regular-120258"/>
      <path d="M 42.203125 40 
L 45.203125 45.40625 
Q 51.40625 43.40625 55.453125 36.40625 
Q 59.5 29.40625 59.5 21.796875 
Q 59.5 9.296875 53.203125 3.203125 
Q 48.703125 -1 43 -1 
Q 39.296875 -1 36.140625 1.296875 
Q 33 3.59375 31.09375 7.703125 
Q 29.40625 3.59375 26.25 1.296875 
Q 23.09375 -1 19.40625 -1 
Q 12.90625 -1 8.796875 3.40625 
Q 2.90625 9.5 2.90625 21.796875 
Q 2.90625 29.40625 6.953125 36.40625 
Q 11 43.40625 17.203125 45.40625 
L 20.203125 40 
L 20.203125 38.59375 
Q 15.296875 36.203125 13.046875 31.453125 
Q 10.796875 26.703125 10.796875 21.296875 
Q 10.796875 13.296875 13.390625 9.6875 
Q 16 6.09375 19.40625 6.09375 
Q 22.40625 6.09375 24.84375 10.140625 
Q 27.296875 14.203125 27.296875 22.296875 
L 27.296875 32.5 
L 34.40625 35.5 
L 35.09375 34.796875 
L 35.09375 22.296875 
Q 35.09375 14.203125 37.546875 10.140625 
Q 40 6.09375 43 6.09375 
Q 46.40625 6.09375 49 9.6875 
Q 51.59375 13.296875 51.59375 21.296875 
Q 51.59375 26.703125 49.34375 31.453125 
Q 47.09375 36.203125 42.203125 38.59375 
z
" id="STIXNonUnicode-Regular-57774"/>
      <path d="M 41 38.203125 
L 25.90625 38.203125 
Q 25.296875 33.5 25.296875 17.59375 
Q 25.296875 14.703125 25.4375 12.796875 
Q 25.59375 10.90625 26.140625 9.59375 
Q 26.703125 8.296875 27.25 7.59375 
Q 27.796875 6.90625 29.140625 6.546875 
Q 30.5 6.203125 31.640625 6.140625 
Q 32.796875 6.09375 35.203125 6.09375 
L 35.203125 4.40625 
L 32.796875 -1 
Q 29.296875 -1 27 -0.546875 
Q 24.703125 -0.09375 22.25 1.25 
Q 19.796875 2.59375 18.59375 5.640625 
Q 17.40625 8.703125 17.40625 13.5 
Q 17.40625 29.09375 18.09375 38.203125 
L 15.5 38.203125 
Q 8.59375 38.203125 6.5 28.09375 
L 0.203125 30.5 
Q 2.203125 39.203125 6.453125 42.25 
Q 10.703125 45.296875 18.09375 45.296875 
L 41 45.296875 
z
" id="STIXNonUnicode-Regular-57769"/>
      <path d="M 63.59375 22 
L 37.5 22 
L 37.5 -4.09375 
L 30.90625 -4.09375 
L 30.90625 22 
L 4.796875 22 
L 4.796875 28.59375 
L 30.90625 28.59375 
L 30.90625 54.703125 
L 37.5 54.703125 
L 37.5 28.59375 
L 63.59375 28.59375 
z
" id="STIXGeneral-Regular-43"/>
      <path d="M 30.203125 0 
L 22.296875 0 
L 22.296875 57 
Q 20.09375 56 15.75 53.75 
Q 11.40625 51.5 10.796875 51.203125 
L 10.796875 58.5 
L 28.796875 67.703125 
L 30.203125 67.203125 
z
" id="STIXGeneral-Regular-120803"/>
     </defs>
     <g transform="translate(83.75875 73.337953)scale(0.09 -0.09)">
      <use transform="translate(83 48.657813)scale(0.7)" xlink:href="#STIXGeneral-Regular-120233"/>
      <use transform="translate(111.414878 39.145469)scale(0.49)" xlink:href="#STIXGeneral-Regular-120254"/>
      <use transform="translate(0 -40.128906)scale(0.7)" xlink:href="#STIXGeneral-Regular-120258"/>
      <use transform="translate(15.399989 -40.128906)scale(0.7)" xlink:href="#STIXNonUnicode-Regular-57774"/>
      <use transform="translate(59.079985 -40.128906)scale(0.7)" xlink:href="#STIXNonUnicode-Regular-57769"/>
      <use transform="translate(89.454865 -49.64125)scale(0.49)" xlink:href="#STIXGeneral-Regular-120254"/>
      <use transform="translate(123.380252 -40.128906)scale(0.7)" xlink:href="#STIXGeneral-Regular-43"/>
      <use transform="translate(181.91424 -40.128906)scale(0.7)" xlink:href="#STIXGeneral-Regular-120803"/>
      <path d="M 0 13.655469 
L 0 19.905469 
L 216.914229 19.905469 
L 216.914229 13.655469 
L 0 13.655469 
z
"/>
     </g>
    </g>
    <g id="line2d_56">
     <path d="M 58.55875 87.737953 
L 76.55875 87.737953 
" style="fill:none;stroke:#eeb92e;stroke-linecap:square;stroke-width:1.1;"/>
    </g>
    <g id="line2d_57"/>
    <g id="text_9">
     <!-- $\rm \frac{J_{r}}{i \omega \tau_{r} + 1}$ -->
     <defs>
      <path d="M 32.796875 37.703125 
L 30.796875 37.703125 
Q 29.796875 39.203125 26.90625 39.203125 
Q 22.59375 39.203125 19.25 35 
Q 15.90625 30.796875 14.203125 23.40625 
L 14.203125 0 
L 6.296875 0 
L 6.296875 44 
L 13.296875 46.40625 
L 14.203125 45.90625 
L 14.40625 39.5 
Q 19.203125 46.296875 27.09375 46.296875 
Q 30.796875 46.296875 32.796875 44.703125 
z
" id="STIXGeneral-Regular-120267"/>
     </defs>
     <g transform="translate(83.75875 90.887953)scale(0.09 -0.09)">
      <use transform="translate(83 47.657813)scale(0.7)" xlink:href="#STIXGeneral-Regular-120233"/>
      <use transform="translate(111.414878 38.145469)scale(0.49)" xlink:href="#STIXGeneral-Regular-120267"/>
      <use transform="translate(0 -40.638906)scale(0.7)" xlink:href="#STIXGeneral-Regular-120258"/>
      <use transform="translate(15.399989 -40.638906)scale(0.7)" xlink:href="#STIXNonUnicode-Regular-57774"/>
      <use transform="translate(59.079985 -40.638906)scale(0.7)" xlink:href="#STIXNonUnicode-Regular-57769"/>
      <use transform="translate(89.454865 -50.15125)scale(0.49)" xlink:href="#STIXGeneral-Regular-120267"/>
      <use transform="translate(118.08825 -40.638906)scale(0.7)" xlink:href="#STIXGeneral-Regular-43"/>
      <use transform="translate(176.622238 -40.638906)scale(0.7)" xlink:href="#STIXGeneral-Regular-120803"/>
      <path d="M 0 13.145469 
L 0 19.395469 
L 211.622228 19.395469 
L 211.622228 13.145469 
L 0 13.145469 
z
"/>
     </g>
    </g>
   </g>
  </g>
  <g id="axes_2">
   <g id="patch_8">
    <path d="M 50.45875 199.955906 
L 231.876073 199.955906 
L 231.876073 103.577953 
L 50.45875 103.577953 
z
" style="fill:#ffffff;"/>
   </g>
   <g id="matplotlib.axis_3">
    <g id="xtick_45">
     <g id="line2d_58">
      <defs>
       <path d="M 0 0 
L 0 3.5 
" id="me6ce9dfba1" style="stroke:#000000;stroke-width:0.8;"/>
      </defs>
      <g>
       <use style="stroke:#000000;stroke-width:0.8;" x="58.704992" xlink:href="#me6ce9dfba1" y="199.955906"/>
      </g>
     </g>
     <g id="text_10">
      <!-- $\mathdefault{10^{1}}$ -->
      <g transform="translate(51.664992 213.034656)scale(0.08 -0.08)">
       <use transform="translate(0 0.684375)" xlink:href="#DejaVuSans-49"/>
       <use transform="translate(63.623047 0.684375)" xlink:href="#DejaVuSans-48"/>
       <use transform="translate(128.203125 38.965625)scale(0.7)" xlink:href="#DejaVuSans-49"/>
      </g>
     </g>
    </g>
    <g id="xtick_46">
     <g id="line2d_59">
      <g>
       <use style="stroke:#000000;stroke-width:0.8;" x="91.68996" xlink:href="#me6ce9dfba1" y="199.955906"/>
      </g>
     </g>
     <g id="text_11">
      <!-- $\mathdefault{10^{2}}$ -->
      <defs>
       <path d="M 19.1875 8.296875 
L 53.609375 8.296875 
L 53.609375 0 
L 7.328125 0 
L 7.328125 8.296875 
Q 12.9375 14.109375 22.625 23.890625 
Q 32.328125 33.6875 34.8125 36.53125 
Q 39.546875 41.84375 41.421875 45.53125 
Q 43.3125 49.21875 43.3125 52.78125 
Q 43.3125 58.59375 39.234375 62.25 
Q 35.15625 65.921875 28.609375 65.921875 
Q 23.96875 65.921875 18.8125 64.3125 
Q 13.671875 62.703125 7.8125 59.421875 
L 7.8125 69.390625 
Q 13.765625 71.78125 18.9375 73 
Q 24.125 74.21875 28.421875 74.21875 
Q 39.75 74.21875 46.484375 68.546875 
Q 53.21875 62.890625 53.21875 53.421875 
Q 53.21875 48.921875 51.53125 44.890625 
Q 49.859375 40.875 45.40625 35.40625 
Q 44.1875 33.984375 37.640625 27.21875 
Q 31.109375 20.453125 19.1875 8.296875 
z
" id="DejaVuSans-50"/>
      </defs>
      <g transform="translate(84.64996 213.034656)scale(0.08 -0.08)">
       <use transform="translate(0 0.765625)" xlink:href="#DejaVuSans-49"/>
       <use transform="translate(63.623047 0.765625)" xlink:href="#DejaVuSans-48"/>
       <use transform="translate(128.203125 39.046875)scale(0.7)" xlink:href="#DejaVuSans-50"/>
      </g>
     </g>
    </g>
    <g id="xtick_47">
     <g id="line2d_60">
      <g>
       <use style="stroke:#000000;stroke-width:0.8;" x="124.674928" xlink:href="#me6ce9dfba1" y="199.955906"/>
      </g>
     </g>
     <g id="text_12">
      <!-- $\mathdefault{10^{3}}$ -->
      <defs>
       <path d="M 40.578125 39.3125 
Q 47.65625 37.796875 51.625 33 
Q 55.609375 28.21875 55.609375 21.1875 
Q 55.609375 10.40625 48.1875 4.484375 
Q 40.765625 -1.421875 27.09375 -1.421875 
Q 22.515625 -1.421875 17.65625 -0.515625 
Q 12.796875 0.390625 7.625 2.203125 
L 7.625 11.71875 
Q 11.71875 9.328125 16.59375 8.109375 
Q 21.484375 6.890625 26.8125 6.890625 
Q 36.078125 6.890625 40.9375 10.546875 
Q 45.796875 14.203125 45.796875 21.1875 
Q 45.796875 27.640625 41.28125 31.265625 
Q 36.765625 34.90625 28.71875 34.90625 
L 20.21875 34.90625 
L 20.21875 43.015625 
L 29.109375 43.015625 
Q 36.375 43.015625 40.234375 45.921875 
Q 44.09375 48.828125 44.09375 54.296875 
Q 44.09375 59.90625 40.109375 62.90625 
Q 36.140625 65.921875 28.71875 65.921875 
Q 24.65625 65.921875 20.015625 65.03125 
Q 15.375 64.15625 9.8125 62.3125 
L 9.8125 71.09375 
Q 15.4375 72.65625 20.34375 73.4375 
Q 25.25 74.21875 29.59375 74.21875 
Q 40.828125 74.21875 47.359375 69.109375 
Q 53.90625 64.015625 53.90625 55.328125 
Q 53.90625 49.265625 50.4375 45.09375 
Q 46.96875 40.921875 40.578125 39.3125 
z
" id="DejaVuSans-51"/>
      </defs>
      <g transform="translate(117.634928 213.034656)scale(0.08 -0.08)">
       <use transform="translate(0 0.765625)" xlink:href="#DejaVuSans-49"/>
       <use transform="translate(63.623047 0.765625)" xlink:href="#DejaVuSans-48"/>
       <use transform="translate(128.203125 39.046875)scale(0.7)" xlink:href="#DejaVuSans-51"/>
      </g>
     </g>
    </g>
    <g id="xtick_48">
     <g id="line2d_61">
      <g>
       <use style="stroke:#000000;stroke-width:0.8;" x="157.659895" xlink:href="#me6ce9dfba1" y="199.955906"/>
      </g>
     </g>
     <g id="text_13">
      <!-- $\mathdefault{10^{4}}$ -->
      <defs>
       <path d="M 37.796875 64.3125 
L 12.890625 25.390625 
L 37.796875 25.390625 
z
M 35.203125 72.90625 
L 47.609375 72.90625 
L 47.609375 25.390625 
L 58.015625 25.390625 
L 58.015625 17.1875 
L 47.609375 17.1875 
L 47.609375 0 
L 37.796875 0 
L 37.796875 17.1875 
L 4.890625 17.1875 
L 4.890625 26.703125 
z
" id="DejaVuSans-52"/>
      </defs>
      <g transform="translate(150.619895 213.034656)scale(0.08 -0.08)">
       <use transform="translate(0 0.684375)" xlink:href="#DejaVuSans-49"/>
       <use transform="translate(63.623047 0.684375)" xlink:href="#DejaVuSans-48"/>
       <use transform="translate(128.203125 38.965625)scale(0.7)" xlink:href="#DejaVuSans-52"/>
      </g>
     </g>
    </g>
    <g id="xtick_49">
     <g id="line2d_62">
      <g>
       <use style="stroke:#000000;stroke-width:0.8;" x="190.644863" xlink:href="#me6ce9dfba1" y="199.955906"/>
      </g>
     </g>
     <g id="text_14">
      <!-- $\mathdefault{10^{5}}$ -->
      <g transform="translate(183.604863 213.034656)scale(0.08 -0.08)">
       <use transform="translate(0 0.684375)" xlink:href="#DejaVuSans-49"/>
       <use transform="translate(63.623047 0.684375)" xlink:href="#DejaVuSans-48"/>
       <use transform="translate(128.203125 38.965625)scale(0.7)" xlink:href="#DejaVuSans-53"/>
      </g>
     </g>
    </g>
    <g id="xtick_50">
     <g id="line2d_63">
      <g>
       <use style="stroke:#000000;stroke-width:0.8;" x="223.629831" xlink:href="#me6ce9dfba1" y="199.955906"/>
      </g>
     </g>
     <g id="text_15">
      <!-- $\mathdefault{10^{6}}$ -->
      <defs>
       <path d="M 33.015625 40.375 
Q 26.375 40.375 22.484375 35.828125 
Q 18.609375 31.296875 18.609375 23.390625 
Q 18.609375 15.53125 22.484375 10.953125 
Q 26.375 6.390625 33.015625 6.390625 
Q 39.65625 6.390625 43.53125 10.953125 
Q 47.40625 15.53125 47.40625 23.390625 
Q 47.40625 31.296875 43.53125 35.828125 
Q 39.65625 40.375 33.015625 40.375 
z
M 52.59375 71.296875 
L 52.59375 62.3125 
Q 48.875 64.0625 45.09375 64.984375 
Q 41.3125 65.921875 37.59375 65.921875 
Q 27.828125 65.921875 22.671875 59.328125 
Q 17.53125 52.734375 16.796875 39.40625 
Q 19.671875 43.65625 24.015625 45.921875 
Q 28.375 48.1875 33.59375 48.1875 
Q 44.578125 48.1875 50.953125 41.515625 
Q 57.328125 34.859375 57.328125 23.390625 
Q 57.328125 12.15625 50.6875 5.359375 
Q 44.046875 -1.421875 33.015625 -1.421875 
Q 20.359375 -1.421875 13.671875 8.265625 
Q 6.984375 17.96875 6.984375 36.375 
Q 6.984375 53.65625 15.1875 63.9375 
Q 23.390625 74.21875 37.203125 74.21875 
Q 40.921875 74.21875 44.703125 73.484375 
Q 48.484375 72.75 52.59375 71.296875 
z
" id="DejaVuSans-54"/>
      </defs>
      <g transform="translate(216.589831 213.034656)scale(0.08 -0.08)">
       <use transform="translate(0 0.765625)" xlink:href="#DejaVuSans-49"/>
       <use transform="translate(63.623047 0.765625)" xlink:href="#DejaVuSans-48"/>
       <use transform="translate(128.203125 39.046875)scale(0.7)" xlink:href="#DejaVuSans-54"/>
      </g>
     </g>
    </g>
    <g id="xtick_51">
     <g id="line2d_64">
      <g>
       <use style="stroke:#000000;stroke-width:0.6;" x="51.387318" xlink:href="#mac2adcb412" y="199.955906"/>
      </g>
     </g>
    </g>
    <g id="xtick_52">
     <g id="line2d_65">
      <g>
       <use style="stroke:#000000;stroke-width:0.6;" x="53.595556" xlink:href="#mac2adcb412" y="199.955906"/>
      </g>
     </g>
    </g>
    <g id="xtick_53">
     <g id="line2d_66">
      <g>
       <use style="stroke:#000000;stroke-width:0.6;" x="55.508418" xlink:href="#mac2adcb412" y="199.955906"/>
      </g>
     </g>
    </g>
    <g id="xtick_54">
     <g id="line2d_67">
      <g>
       <use style="stroke:#000000;stroke-width:0.6;" x="57.195683" xlink:href="#mac2adcb412" y="199.955906"/>
      </g>
     </g>
    </g>
    <g id="xtick_55">
     <g id="line2d_68">
      <g>
       <use style="stroke:#000000;stroke-width:0.6;" x="68.634457" xlink:href="#mac2adcb412" y="199.955906"/>
      </g>
     </g>
    </g>
    <g id="xtick_56">
     <g id="line2d_69">
      <g>
       <use style="stroke:#000000;stroke-width:0.6;" x="74.442821" xlink:href="#mac2adcb412" y="199.955906"/>
      </g>
     </g>
    </g>
    <g id="xtick_57">
     <g id="line2d_70">
      <g>
       <use style="stroke:#000000;stroke-width:0.6;" x="78.563921" xlink:href="#mac2adcb412" y="199.955906"/>
      </g>
     </g>
    </g>
    <g id="xtick_58">
     <g id="line2d_71">
      <g>
       <use style="stroke:#000000;stroke-width:0.6;" x="81.760495" xlink:href="#mac2adcb412" y="199.955906"/>
      </g>
     </g>
    </g>
    <g id="xtick_59">
     <g id="line2d_72">
      <g>
       <use style="stroke:#000000;stroke-width:0.6;" x="84.372286" xlink:href="#mac2adcb412" y="199.955906"/>
      </g>
     </g>
    </g>
    <g id="xtick_60">
     <g id="line2d_73">
      <g>
       <use style="stroke:#000000;stroke-width:0.6;" x="86.580524" xlink:href="#mac2adcb412" y="199.955906"/>
      </g>
     </g>
    </g>
    <g id="xtick_61">
     <g id="line2d_74">
      <g>
       <use style="stroke:#000000;stroke-width:0.6;" x="88.493386" xlink:href="#mac2adcb412" y="199.955906"/>
      </g>
     </g>
    </g>
    <g id="xtick_62">
     <g id="line2d_75">
      <g>
       <use style="stroke:#000000;stroke-width:0.6;" x="90.18065" xlink:href="#mac2adcb412" y="199.955906"/>
      </g>
     </g>
    </g>
    <g id="xtick_63">
     <g id="line2d_76">
      <g>
       <use style="stroke:#000000;stroke-width:0.6;" x="101.619424" xlink:href="#mac2adcb412" y="199.955906"/>
      </g>
     </g>
    </g>
    <g id="xtick_64">
     <g id="line2d_77">
      <g>
       <use style="stroke:#000000;stroke-width:0.6;" x="107.427789" xlink:href="#mac2adcb412" y="199.955906"/>
      </g>
     </g>
    </g>
    <g id="xtick_65">
     <g id="line2d_78">
      <g>
       <use style="stroke:#000000;stroke-width:0.6;" x="111.548889" xlink:href="#mac2adcb412" y="199.955906"/>
      </g>
     </g>
    </g>
    <g id="xtick_66">
     <g id="line2d_79">
      <g>
       <use style="stroke:#000000;stroke-width:0.6;" x="114.745463" xlink:href="#mac2adcb412" y="199.955906"/>
      </g>
     </g>
    </g>
    <g id="xtick_67">
     <g id="line2d_80">
      <g>
       <use style="stroke:#000000;stroke-width:0.6;" x="117.357254" xlink:href="#mac2adcb412" y="199.955906"/>
      </g>
     </g>
    </g>
    <g id="xtick_68">
     <g id="line2d_81">
      <g>
       <use style="stroke:#000000;stroke-width:0.6;" x="119.565491" xlink:href="#mac2adcb412" y="199.955906"/>
      </g>
     </g>
    </g>
    <g id="xtick_69">
     <g id="line2d_82">
      <g>
       <use style="stroke:#000000;stroke-width:0.6;" x="121.478354" xlink:href="#mac2adcb412" y="199.955906"/>
      </g>
     </g>
    </g>
    <g id="xtick_70">
     <g id="line2d_83">
      <g>
       <use style="stroke:#000000;stroke-width:0.6;" x="123.165618" xlink:href="#mac2adcb412" y="199.955906"/>
      </g>
     </g>
    </g>
    <g id="xtick_71">
     <g id="line2d_84">
      <g>
       <use style="stroke:#000000;stroke-width:0.6;" x="134.604392" xlink:href="#mac2adcb412" y="199.955906"/>
      </g>
     </g>
    </g>
    <g id="xtick_72">
     <g id="line2d_85">
      <g>
       <use style="stroke:#000000;stroke-width:0.6;" x="140.412757" xlink:href="#mac2adcb412" y="199.955906"/>
      </g>
     </g>
    </g>
    <g id="xtick_73">
     <g id="line2d_86">
      <g>
       <use style="stroke:#000000;stroke-width:0.6;" x="144.533857" xlink:href="#mac2adcb412" y="199.955906"/>
      </g>
     </g>
    </g>
    <g id="xtick_74">
     <g id="line2d_87">
      <g>
       <use style="stroke:#000000;stroke-width:0.6;" x="147.730431" xlink:href="#mac2adcb412" y="199.955906"/>
      </g>
     </g>
    </g>
    <g id="xtick_75">
     <g id="line2d_88">
      <g>
       <use style="stroke:#000000;stroke-width:0.6;" x="150.342221" xlink:href="#mac2adcb412" y="199.955906"/>
      </g>
     </g>
    </g>
    <g id="xtick_76">
     <g id="line2d_89">
      <g>
       <use style="stroke:#000000;stroke-width:0.6;" x="152.550459" xlink:href="#mac2adcb412" y="199.955906"/>
      </g>
     </g>
    </g>
    <g id="xtick_77">
     <g id="line2d_90">
      <g>
       <use style="stroke:#000000;stroke-width:0.6;" x="154.463322" xlink:href="#mac2adcb412" y="199.955906"/>
      </g>
     </g>
    </g>
    <g id="xtick_78">
     <g id="line2d_91">
      <g>
       <use style="stroke:#000000;stroke-width:0.6;" x="156.150586" xlink:href="#mac2adcb412" y="199.955906"/>
      </g>
     </g>
    </g>
    <g id="xtick_79">
     <g id="line2d_92">
      <g>
       <use style="stroke:#000000;stroke-width:0.6;" x="167.58936" xlink:href="#mac2adcb412" y="199.955906"/>
      </g>
     </g>
    </g>
    <g id="xtick_80">
     <g id="line2d_93">
      <g>
       <use style="stroke:#000000;stroke-width:0.6;" x="173.397725" xlink:href="#mac2adcb412" y="199.955906"/>
      </g>
     </g>
    </g>
    <g id="xtick_81">
     <g id="line2d_94">
      <g>
       <use style="stroke:#000000;stroke-width:0.6;" x="177.518825" xlink:href="#mac2adcb412" y="199.955906"/>
      </g>
     </g>
    </g>
    <g id="xtick_82">
     <g id="line2d_95">
      <g>
       <use style="stroke:#000000;stroke-width:0.6;" x="180.715398" xlink:href="#mac2adcb412" y="199.955906"/>
      </g>
     </g>
    </g>
    <g id="xtick_83">
     <g id="line2d_96">
      <g>
       <use style="stroke:#000000;stroke-width:0.6;" x="183.327189" xlink:href="#mac2adcb412" y="199.955906"/>
      </g>
     </g>
    </g>
    <g id="xtick_84">
     <g id="line2d_97">
      <g>
       <use style="stroke:#000000;stroke-width:0.6;" x="185.535427" xlink:href="#mac2adcb412" y="199.955906"/>
      </g>
     </g>
    </g>
    <g id="xtick_85">
     <g id="line2d_98">
      <g>
       <use style="stroke:#000000;stroke-width:0.6;" x="187.448289" xlink:href="#mac2adcb412" y="199.955906"/>
      </g>
     </g>
    </g>
    <g id="xtick_86">
     <g id="line2d_99">
      <g>
       <use style="stroke:#000000;stroke-width:0.6;" x="189.135554" xlink:href="#mac2adcb412" y="199.955906"/>
      </g>
     </g>
    </g>
    <g id="xtick_87">
     <g id="line2d_100">
      <g>
       <use style="stroke:#000000;stroke-width:0.6;" x="200.574328" xlink:href="#mac2adcb412" y="199.955906"/>
      </g>
     </g>
    </g>
    <g id="xtick_88">
     <g id="line2d_101">
      <g>
       <use style="stroke:#000000;stroke-width:0.6;" x="206.382692" xlink:href="#mac2adcb412" y="199.955906"/>
      </g>
     </g>
    </g>
    <g id="xtick_89">
     <g id="line2d_102">
      <g>
       <use style="stroke:#000000;stroke-width:0.6;" x="210.503793" xlink:href="#mac2adcb412" y="199.955906"/>
      </g>
     </g>
    </g>
    <g id="xtick_90">
     <g id="line2d_103">
      <g>
       <use style="stroke:#000000;stroke-width:0.6;" x="213.700366" xlink:href="#mac2adcb412" y="199.955906"/>
      </g>
     </g>
    </g>
    <g id="xtick_91">
     <g id="line2d_104">
      <g>
       <use style="stroke:#000000;stroke-width:0.6;" x="216.312157" xlink:href="#mac2adcb412" y="199.955906"/>
      </g>
     </g>
    </g>
    <g id="xtick_92">
     <g id="line2d_105">
      <g>
       <use style="stroke:#000000;stroke-width:0.6;" x="218.520395" xlink:href="#mac2adcb412" y="199.955906"/>
      </g>
     </g>
    </g>
    <g id="xtick_93">
     <g id="line2d_106">
      <g>
       <use style="stroke:#000000;stroke-width:0.6;" x="220.433257" xlink:href="#mac2adcb412" y="199.955906"/>
      </g>
     </g>
    </g>
    <g id="xtick_94">
     <g id="line2d_107">
      <g>
       <use style="stroke:#000000;stroke-width:0.6;" x="222.120522" xlink:href="#mac2adcb412" y="199.955906"/>
      </g>
     </g>
    </g>
    <g id="text_16">
     <!-- $\omega$ [rad $\cdot$ s$^{-1}$] -->
     <defs>
      <path d="M 26.859375 -1.421875 
Q 6.59375 -1.421875 6.59375 27.59375 
Q 6.59375 39.0625 14.15625 54.6875 
L 23.828125 54.6875 
Q 16.84375 39.0625 16.84375 27.34375 
Q 16.84375 6.203125 27.6875 6.203125 
Q 37.59375 6.203125 37.59375 32.46875 
L 45.90625 32.46875 
Q 45.90625 6.203125 55.8125 6.203125 
Q 66.65625 6.203125 66.65625 27.34375 
Q 66.65625 39.0625 59.671875 54.6875 
L 69.34375 54.6875 
Q 76.90625 39.0625 76.90625 27.59375 
Q 76.90625 -1.421875 56.640625 -1.421875 
Q 43.359375 -1.421875 41.75 13.1875 
Q 39.75 -1.421875 26.859375 -1.421875 
z
" id="DejaVuSans-969"/>
      <path id="DejaVuSans-32"/>
      <path d="M 8.59375 75.984375 
L 29.296875 75.984375 
L 29.296875 69 
L 17.578125 69 
L 17.578125 -6.203125 
L 29.296875 -6.203125 
L 29.296875 -13.1875 
L 8.59375 -13.1875 
z
" id="DejaVuSans-91"/>
      <path d="M 41.109375 46.296875 
Q 39.59375 47.171875 37.8125 47.578125 
Q 36.03125 48 33.890625 48 
Q 26.265625 48 22.1875 43.046875 
Q 18.109375 38.09375 18.109375 28.8125 
L 18.109375 0 
L 9.078125 0 
L 9.078125 54.6875 
L 18.109375 54.6875 
L 18.109375 46.1875 
Q 20.953125 51.171875 25.484375 53.578125 
Q 30.03125 56 36.53125 56 
Q 37.453125 56 38.578125 55.875 
Q 39.703125 55.765625 41.0625 55.515625 
z
" id="DejaVuSans-114"/>
      <path d="M 34.28125 27.484375 
Q 23.390625 27.484375 19.1875 25 
Q 14.984375 22.515625 14.984375 16.5 
Q 14.984375 11.71875 18.140625 8.90625 
Q 21.296875 6.109375 26.703125 6.109375 
Q 34.1875 6.109375 38.703125 11.40625 
Q 43.21875 16.703125 43.21875 25.484375 
L 43.21875 27.484375 
z
M 52.203125 31.203125 
L 52.203125 0 
L 43.21875 0 
L 43.21875 8.296875 
Q 40.140625 3.328125 35.546875 0.953125 
Q 30.953125 -1.421875 24.3125 -1.421875 
Q 15.921875 -1.421875 10.953125 3.296875 
Q 6 8.015625 6 15.921875 
Q 6 25.140625 12.171875 29.828125 
Q 18.359375 34.515625 30.609375 34.515625 
L 43.21875 34.515625 
L 43.21875 35.40625 
Q 43.21875 41.609375 39.140625 45 
Q 35.0625 48.390625 27.6875 48.390625 
Q 23 48.390625 18.546875 47.265625 
Q 14.109375 46.140625 10.015625 43.890625 
L 10.015625 52.203125 
Q 14.9375 54.109375 19.578125 55.046875 
Q 24.21875 56 28.609375 56 
Q 40.484375 56 46.34375 49.84375 
Q 52.203125 43.703125 52.203125 31.203125 
z
" id="DejaVuSans-97"/>
      <path d="M 45.40625 46.390625 
L 45.40625 75.984375 
L 54.390625 75.984375 
L 54.390625 0 
L 45.40625 0 
L 45.40625 8.203125 
Q 42.578125 3.328125 38.25 0.953125 
Q 33.9375 -1.421875 27.875 -1.421875 
Q 17.96875 -1.421875 11.734375 6.484375 
Q 5.515625 14.40625 5.515625 27.296875 
Q 5.515625 40.1875 11.734375 48.09375 
Q 17.96875 56 27.875 56 
Q 33.9375 56 38.25 53.625 
Q 42.578125 51.265625 45.40625 46.390625 
z
M 14.796875 27.296875 
Q 14.796875 17.390625 18.875 11.75 
Q 22.953125 6.109375 30.078125 6.109375 
Q 37.203125 6.109375 41.296875 11.75 
Q 45.40625 17.390625 45.40625 27.296875 
Q 45.40625 37.203125 41.296875 42.84375 
Q 37.203125 48.484375 30.078125 48.484375 
Q 22.953125 48.484375 18.875 42.84375 
Q 14.796875 37.203125 14.796875 27.296875 
z
" id="DejaVuSans-100"/>
      <path d="M 10.6875 40.921875 
L 21 40.921875 
L 21 28.515625 
L 10.6875 28.515625 
z
" id="DejaVuSans-8901"/>
      <path d="M 44.28125 53.078125 
L 44.28125 44.578125 
Q 40.484375 46.53125 36.375 47.5 
Q 32.28125 48.484375 27.875 48.484375 
Q 21.1875 48.484375 17.84375 46.4375 
Q 14.5 44.390625 14.5 40.28125 
Q 14.5 37.15625 16.890625 35.375 
Q 19.28125 33.59375 26.515625 31.984375 
L 29.59375 31.296875 
Q 39.15625 29.25 43.1875 25.515625 
Q 47.21875 21.78125 47.21875 15.09375 
Q 47.21875 7.46875 41.1875 3.015625 
Q 35.15625 -1.421875 24.609375 -1.421875 
Q 20.21875 -1.421875 15.453125 -0.5625 
Q 10.6875 0.296875 5.421875 2 
L 5.421875 11.28125 
Q 10.40625 8.6875 15.234375 7.390625 
Q 20.0625 6.109375 24.8125 6.109375 
Q 31.15625 6.109375 34.5625 8.28125 
Q 37.984375 10.453125 37.984375 14.40625 
Q 37.984375 18.0625 35.515625 20.015625 
Q 33.0625 21.96875 24.703125 23.78125 
L 21.578125 24.515625 
Q 13.234375 26.265625 9.515625 29.90625 
Q 5.8125 33.546875 5.8125 39.890625 
Q 5.8125 47.609375 11.28125 51.796875 
Q 16.75 56 26.8125 56 
Q 31.78125 56 36.171875 55.265625 
Q 40.578125 54.546875 44.28125 53.078125 
z
" id="DejaVuSans-115"/>
      <path d="M 30.421875 75.984375 
L 30.421875 -13.1875 
L 9.71875 -13.1875 
L 9.71875 -6.203125 
L 21.390625 -6.203125 
L 21.390625 69 
L 9.71875 69 
L 9.71875 75.984375 
z
" id="DejaVuSans-93"/>
     </defs>
     <g transform="translate(116.607411 225.354656)scale(0.08 -0.08)">
      <use transform="translate(0 0.684375)" xlink:href="#DejaVuSans-969"/>
      <use transform="translate(83.740234 0.684375)" xlink:href="#DejaVuSans-32"/>
      <use transform="translate(115.527344 0.684375)" xlink:href="#DejaVuSans-91"/>
      <use transform="translate(154.541016 0.684375)" xlink:href="#DejaVuSans-114"/>
      <use transform="translate(195.654297 0.684375)" xlink:href="#DejaVuSans-97"/>
      <use transform="translate(256.933594 0.684375)" xlink:href="#DejaVuSans-100"/>
      <use transform="translate(320.410156 0.684375)" xlink:href="#DejaVuSans-32"/>
      <use transform="translate(352.197266 0.684375)" xlink:href="#DejaVuSans-8901"/>
      <use transform="translate(383.984375 0.684375)" xlink:href="#DejaVuSans-32"/>
      <use transform="translate(415.771484 0.684375)" xlink:href="#DejaVuSans-115"/>
      <use transform="translate(468.828125 38.965625)scale(0.7)" xlink:href="#DejaVuSans-8722"/>
      <use transform="translate(527.480469 38.965625)scale(0.7)" xlink:href="#DejaVuSans-49"/>
      <use transform="translate(574.750977 0.684375)" xlink:href="#DejaVuSans-93"/>
     </g>
    </g>
   </g>
   <g id="matplotlib.axis_4">
    <g id="ytick_7">
     <g id="line2d_108">
      <g>
       <use style="stroke:#000000;stroke-width:0.8;" x="50.45875" xlink:href="#mee88c2f0f6" y="195.5753"/>
      </g>
     </g>
     <g id="text_17">
      <!-- −0.3 -->
      <g transform="translate(24.0325 198.614675)scale(0.08 -0.08)">
       <use xlink:href="#DejaVuSans-8722"/>
       <use x="83.789062" xlink:href="#DejaVuSans-48"/>
       <use x="147.412109" xlink:href="#DejaVuSans-46"/>
       <use x="179.199219" xlink:href="#DejaVuSans-51"/>
      </g>
     </g>
    </g>
    <g id="ytick_8">
     <g id="line2d_109">
      <g>
       <use style="stroke:#000000;stroke-width:0.8;" x="50.45875" xlink:href="#mee88c2f0f6" y="178.049191"/>
      </g>
     </g>
     <g id="text_18">
      <!-- −0.2 -->
      <g transform="translate(24.0325 181.088566)scale(0.08 -0.08)">
       <use xlink:href="#DejaVuSans-8722"/>
       <use x="83.789062" xlink:href="#DejaVuSans-48"/>
       <use x="147.412109" xlink:href="#DejaVuSans-46"/>
       <use x="179.199219" xlink:href="#DejaVuSans-50"/>
      </g>
     </g>
    </g>
    <g id="ytick_9">
     <g id="line2d_110">
      <g>
       <use style="stroke:#000000;stroke-width:0.8;" x="50.45875" xlink:href="#mee88c2f0f6" y="160.523081"/>
      </g>
     </g>
     <g id="text_19">
      <!-- −0.1 -->
      <g transform="translate(24.0325 163.562456)scale(0.08 -0.08)">
       <use xlink:href="#DejaVuSans-8722"/>
       <use x="83.789062" xlink:href="#DejaVuSans-48"/>
       <use x="147.412109" xlink:href="#DejaVuSans-46"/>
       <use x="179.199219" xlink:href="#DejaVuSans-49"/>
      </g>
     </g>
    </g>
    <g id="ytick_10">
     <g id="line2d_111">
      <g>
       <use style="stroke:#000000;stroke-width:0.8;" x="50.45875" xlink:href="#mee88c2f0f6" y="142.996972"/>
      </g>
     </g>
     <g id="text_20">
      <!-- 0.0 -->
      <g transform="translate(30.73625 146.036347)scale(0.08 -0.08)">
       <use xlink:href="#DejaVuSans-48"/>
       <use x="63.623047" xlink:href="#DejaVuSans-46"/>
       <use x="95.410156" xlink:href="#DejaVuSans-48"/>
      </g>
     </g>
    </g>
    <g id="ytick_11">
     <g id="line2d_112">
      <g>
       <use style="stroke:#000000;stroke-width:0.8;" x="50.45875" xlink:href="#mee88c2f0f6" y="125.470863"/>
      </g>
     </g>
     <g id="text_21">
      <!-- 0.1 -->
      <g transform="translate(30.73625 128.510238)scale(0.08 -0.08)">
       <use xlink:href="#DejaVuSans-48"/>
       <use x="63.623047" xlink:href="#DejaVuSans-46"/>
       <use x="95.410156" xlink:href="#DejaVuSans-49"/>
      </g>
     </g>
    </g>
    <g id="ytick_12">
     <g id="line2d_113">
      <g>
       <use style="stroke:#000000;stroke-width:0.8;" x="50.45875" xlink:href="#mee88c2f0f6" y="107.944754"/>
      </g>
     </g>
     <g id="text_22">
      <!-- 0.2 -->
      <g transform="translate(30.73625 110.984129)scale(0.08 -0.08)">
       <use xlink:href="#DejaVuSans-48"/>
       <use x="63.623047" xlink:href="#DejaVuSans-46"/>
       <use x="95.410156" xlink:href="#DejaVuSans-50"/>
      </g>
     </g>
    </g>
    <g id="text_23">
     <!-- Re(Z) -->
     <defs>
      <path d="M 44.390625 34.1875 
Q 47.5625 33.109375 50.5625 29.59375 
Q 53.5625 26.078125 56.59375 19.921875 
L 66.609375 0 
L 56 0 
L 46.6875 18.703125 
Q 43.0625 26.03125 39.671875 28.421875 
Q 36.28125 30.8125 30.421875 30.8125 
L 19.671875 30.8125 
L 19.671875 0 
L 9.8125 0 
L 9.8125 72.90625 
L 32.078125 72.90625 
Q 44.578125 72.90625 50.734375 67.671875 
Q 56.890625 62.453125 56.890625 51.90625 
Q 56.890625 45.015625 53.6875 40.46875 
Q 50.484375 35.9375 44.390625 34.1875 
z
M 19.671875 64.796875 
L 19.671875 38.921875 
L 32.078125 38.921875 
Q 39.203125 38.921875 42.84375 42.21875 
Q 46.484375 45.515625 46.484375 51.90625 
Q 46.484375 58.296875 42.84375 61.546875 
Q 39.203125 64.796875 32.078125 64.796875 
z
" id="DejaVuSans-82"/>
      <path d="M 56.203125 29.59375 
L 56.203125 25.203125 
L 14.890625 25.203125 
Q 15.484375 15.921875 20.484375 11.0625 
Q 25.484375 6.203125 34.421875 6.203125 
Q 39.59375 6.203125 44.453125 7.46875 
Q 49.3125 8.734375 54.109375 11.28125 
L 54.109375 2.78125 
Q 49.265625 0.734375 44.1875 -0.34375 
Q 39.109375 -1.421875 33.890625 -1.421875 
Q 20.796875 -1.421875 13.15625 6.1875 
Q 5.515625 13.8125 5.515625 26.8125 
Q 5.515625 40.234375 12.765625 48.109375 
Q 20.015625 56 32.328125 56 
Q 43.359375 56 49.78125 48.890625 
Q 56.203125 41.796875 56.203125 29.59375 
z
M 47.21875 32.234375 
Q 47.125 39.59375 43.09375 43.984375 
Q 39.0625 48.390625 32.421875 48.390625 
Q 24.90625 48.390625 20.390625 44.140625 
Q 15.875 39.890625 15.1875 32.171875 
z
" id="DejaVuSans-101"/>
     </defs>
     <g transform="translate(18.36875 162.866304)rotate(-90)scale(0.08 -0.08)">
      <use xlink:href="#DejaVuSans-82"/>
      <use x="69.419922" xlink:href="#DejaVuSans-101"/>
      <use x="130.943359" xlink:href="#DejaVuSans-40"/>
      <use x="169.957031" xlink:href="#DejaVuSans-90"/>
      <use x="238.462891" xlink:href="#DejaVuSans-41"/>
     </g>
    </g>
   </g>
   <g id="line2d_114">
    <path clip-path="url(#p69c479ad11)" d="M 58.704992 160.536886 
L 76.109121 160.679213 
L 83.568033 160.961724 
L 88.540641 161.39012 
L 91.855713 161.88005 
L 95.170785 162.629183 
L 97.65709 163.428368 
L 100.143394 164.492854 
L 102.629698 165.879617 
L 105.116002 167.634672 
L 107.602306 169.775552 
L 110.08861 172.271326 
L 113.403682 175.979999 
L 117.547522 180.668119 
L 120.033827 183.162868 
L 121.691363 184.58735 
L 123.348899 185.777355 
L 125.006435 186.706641 
L 126.663971 187.356976 
L 128.321507 187.715586 
L 129.979043 187.772599 
L 131.636579 187.519076 
L 133.294115 186.946057 
L 134.951651 186.044859 
L 136.609187 184.808704 
L 138.266723 183.235562 
L 139.924259 181.331879 
L 141.581795 179.116535 
L 144.0681 175.289536 
L 147.383172 169.559177 
L 152.35578 160.898199 
L 154.842084 157.081714 
L 156.49962 154.838979 
L 158.157156 152.859178 
L 159.814692 151.142494 
L 161.472228 149.676836 
L 163.129764 148.441917 
L 164.7873 147.412917 
L 167.273605 146.197783 
L 169.759909 145.300757 
L 172.246213 144.646592 
L 175.561285 144.047789 
L 179.705125 143.591473 
L 184.677733 143.295609 
L 192.136646 143.102776 
L 206.225702 143.011797 
L 223.629831 142.998278 
L 223.629831 142.998278 
" style="fill:none;stroke:#0370b8;stroke-linecap:square;"/>
   </g>
   <g id="line2d_115">
    <path clip-path="url(#p69c479ad11)" d="M 58.704992 195.575089 
L 103.458466 195.466773 
L 111.746146 195.231663 
L 116.718754 194.891748 
L 120.862595 194.368523 
L 124.177667 193.683808 
L 126.663971 192.938225 
L 129.150275 191.919944 
L 130.807811 191.05007 
L 132.465347 189.996793 
L 134.122883 188.733265 
L 135.780419 187.234339 
L 137.437955 185.47952 
L 139.095491 183.456649 
L 140.753027 181.165938 
L 143.239332 177.268248 
L 146.554404 171.43951 
L 151.527012 162.477435 
L 154.013316 158.442512 
L 156.49962 154.941717 
L 158.157156 152.940741 
L 159.814692 151.207238 
L 161.472228 149.728224 
L 163.129764 148.482701 
L 164.7873 147.445284 
L 167.273605 146.220663 
L 169.759909 145.31693 
L 172.246213 144.658023 
L 175.561285 144.054986 
L 179.705125 143.595509 
L 184.677733 143.297625 
L 192.136646 143.103488 
L 206.225702 143.011897 
L 223.629831 142.998286 
L 223.629831 142.998286 
" style="fill:none;stroke:#d56339;stroke-linecap:square;stroke-width:1.1;"/>
   </g>
   <g id="line2d_116">
    <path clip-path="url(#p69c479ad11)" d="M 58.704992 107.958769 
L 76.109121 108.103273 
L 82.739265 108.342047 
L 87.711873 108.73128 
L 91.026945 109.177916 
L 94.342017 109.863973 
L 96.828322 110.600098 
L 99.314626 111.587524 
L 101.80093 112.886133 
L 104.287234 114.550322 
L 106.773538 116.613628 
L 109.259842 119.069383 
L 111.746146 121.854055 
L 120.862595 132.530857 
L 123.348899 134.890495 
L 125.835203 136.851124 
L 128.321507 138.418136 
L 130.807811 139.632114 
L 133.294115 140.550076 
L 135.780419 141.231563 
L 139.095491 141.864517 
L 142.410563 142.275456 
L 147.383172 142.632859 
L 154.013316 142.851775 
L 165.616068 142.968139 
L 202.081862 142.996795 
L 223.629831 142.996963 
L 223.629831 142.996963 
" style="fill:none;stroke:#eeb92e;stroke-linecap:square;stroke-width:1.1;"/>
   </g>
   <g id="patch_9">
    <path d="M 50.45875 199.955906 
L 50.45875 103.577953 
" style="fill:none;stroke:#000000;stroke-linecap:square;stroke-linejoin:miter;stroke-width:0.8;"/>
   </g>
   <g id="patch_10">
    <path d="M 231.876073 199.955906 
L 231.876073 103.577953 
" style="fill:none;stroke:#000000;stroke-linecap:square;stroke-linejoin:miter;stroke-width:0.8;"/>
   </g>
   <g id="patch_11">
    <path d="M 50.45875 199.955906 
L 231.876073 199.955906 
" style="fill:none;stroke:#000000;stroke-linecap:square;stroke-linejoin:miter;stroke-width:0.8;"/>
   </g>
   <g id="patch_12">
    <path d="M 50.45875 103.577953 
L 231.876073 103.577953 
" style="fill:none;stroke:#000000;stroke-linecap:square;stroke-linejoin:miter;stroke-width:0.8;"/>
   </g>
  </g>
  <g id="axes_3">
   <g id="patch_13">
    <path d="M 277.230404 176.341168 
L 458.647726 176.341168 
L 458.647726 30.814737 
L 277.230404 30.814737 
z
" style="fill:#ffffff;"/>
   </g>
   <g id="matplotlib.axis_5">
    <g id="xtick_95">
     <g id="line2d_117">
      <g>
       <use style="stroke:#000000;stroke-width:0.8;" x="289.049241" xlink:href="#me6ce9dfba1" y="176.341168"/>
      </g>
     </g>
     <g id="text_24">
      <!-- −0.25 -->
      <g transform="translate(276.791116 189.419918)scale(0.08 -0.08)">
       <use xlink:href="#DejaVuSans-8722"/>
       <use x="83.789062" xlink:href="#DejaVuSans-48"/>
       <use x="147.412109" xlink:href="#DejaVuSans-46"/>
       <use x="179.199219" xlink:href="#DejaVuSans-50"/>
       <use x="242.822266" xlink:href="#DejaVuSans-53"/>
      </g>
     </g>
    </g>
    <g id="xtick_96">
     <g id="line2d_118">
      <g>
       <use style="stroke:#000000;stroke-width:0.8;" x="321.320651" xlink:href="#me6ce9dfba1" y="176.341168"/>
      </g>
     </g>
     <g id="text_25">
      <!-- −0.20 -->
      <g transform="translate(309.062526 189.419918)scale(0.08 -0.08)">
       <use xlink:href="#DejaVuSans-8722"/>
       <use x="83.789062" xlink:href="#DejaVuSans-48"/>
       <use x="147.412109" xlink:href="#DejaVuSans-46"/>
       <use x="179.199219" xlink:href="#DejaVuSans-50"/>
       <use x="242.822266" xlink:href="#DejaVuSans-48"/>
      </g>
     </g>
    </g>
    <g id="xtick_97">
     <g id="line2d_119">
      <g>
       <use style="stroke:#000000;stroke-width:0.8;" x="353.592061" xlink:href="#me6ce9dfba1" y="176.341168"/>
      </g>
     </g>
     <g id="text_26">
      <!-- −0.15 -->
      <g transform="translate(341.333936 189.419918)scale(0.08 -0.08)">
       <use xlink:href="#DejaVuSans-8722"/>
       <use x="83.789062" xlink:href="#DejaVuSans-48"/>
       <use x="147.412109" xlink:href="#DejaVuSans-46"/>
       <use x="179.199219" xlink:href="#DejaVuSans-49"/>
       <use x="242.822266" xlink:href="#DejaVuSans-53"/>
      </g>
     </g>
    </g>
    <g id="xtick_98">
     <g id="line2d_120">
      <g>
       <use style="stroke:#000000;stroke-width:0.8;" x="385.863472" xlink:href="#me6ce9dfba1" y="176.341168"/>
      </g>
     </g>
     <g id="text_27">
      <!-- −0.10 -->
      <g transform="translate(373.605347 189.419918)scale(0.08 -0.08)">
       <use xlink:href="#DejaVuSans-8722"/>
       <use x="83.789062" xlink:href="#DejaVuSans-48"/>
       <use x="147.412109" xlink:href="#DejaVuSans-46"/>
       <use x="179.199219" xlink:href="#DejaVuSans-49"/>
       <use x="242.822266" xlink:href="#DejaVuSans-48"/>
      </g>
     </g>
    </g>
    <g id="xtick_99">
     <g id="line2d_121">
      <g>
       <use style="stroke:#000000;stroke-width:0.8;" x="418.134882" xlink:href="#me6ce9dfba1" y="176.341168"/>
      </g>
     </g>
     <g id="text_28">
      <!-- −0.05 -->
      <g transform="translate(405.876757 189.419918)scale(0.08 -0.08)">
       <use xlink:href="#DejaVuSans-8722"/>
       <use x="83.789062" xlink:href="#DejaVuSans-48"/>
       <use x="147.412109" xlink:href="#DejaVuSans-46"/>
       <use x="179.199219" xlink:href="#DejaVuSans-48"/>
       <use x="242.822266" xlink:href="#DejaVuSans-53"/>
      </g>
     </g>
    </g>
    <g id="xtick_100">
     <g id="line2d_122">
      <g>
       <use style="stroke:#000000;stroke-width:0.8;" x="450.406293" xlink:href="#me6ce9dfba1" y="176.341168"/>
      </g>
     </g>
     <g id="text_29">
      <!-- 0.00 -->
      <g transform="translate(441.500043 189.419918)scale(0.08 -0.08)">
       <use xlink:href="#DejaVuSans-48"/>
       <use x="63.623047" xlink:href="#DejaVuSans-46"/>
       <use x="95.410156" xlink:href="#DejaVuSans-48"/>
       <use x="159.033203" xlink:href="#DejaVuSans-48"/>
      </g>
     </g>
    </g>
    <g id="text_30">
     <!-- Re(Z) -->
     <g transform="translate(356.83969 201.162418)scale(0.08 -0.08)">
      <use xlink:href="#DejaVuSans-82"/>
      <use x="69.419922" xlink:href="#DejaVuSans-101"/>
      <use x="130.943359" xlink:href="#DejaVuSans-40"/>
      <use x="169.957031" xlink:href="#DejaVuSans-90"/>
      <use x="238.462891" xlink:href="#DejaVuSans-41"/>
     </g>
    </g>
   </g>
   <g id="matplotlib.axis_6">
    <g id="ytick_13">
     <g id="line2d_123">
      <g>
       <use style="stroke:#000000;stroke-width:0.8;" x="277.230404" xlink:href="#mee88c2f0f6" y="149.541445"/>
      </g>
     </g>
     <g id="text_31">
      <!-- −0.10 -->
      <g transform="translate(245.714154 152.58082)scale(0.08 -0.08)">
       <use xlink:href="#DejaVuSans-8722"/>
       <use x="83.789062" xlink:href="#DejaVuSans-48"/>
       <use x="147.412109" xlink:href="#DejaVuSans-46"/>
       <use x="179.199219" xlink:href="#DejaVuSans-49"/>
       <use x="242.822266" xlink:href="#DejaVuSans-48"/>
      </g>
     </g>
    </g>
    <g id="ytick_14">
     <g id="line2d_124">
      <g>
       <use style="stroke:#000000;stroke-width:0.8;" x="277.230404" xlink:href="#mee88c2f0f6" y="117.270035"/>
      </g>
     </g>
     <g id="text_32">
      <!-- −0.05 -->
      <g transform="translate(245.714154 120.30941)scale(0.08 -0.08)">
       <use xlink:href="#DejaVuSans-8722"/>
       <use x="83.789062" xlink:href="#DejaVuSans-48"/>
       <use x="147.412109" xlink:href="#DejaVuSans-46"/>
       <use x="179.199219" xlink:href="#DejaVuSans-48"/>
       <use x="242.822266" xlink:href="#DejaVuSans-53"/>
      </g>
     </g>
    </g>
    <g id="ytick_15">
     <g id="line2d_125">
      <g>
       <use style="stroke:#000000;stroke-width:0.8;" x="277.230404" xlink:href="#mee88c2f0f6" y="84.998624"/>
      </g>
     </g>
     <g id="text_33">
      <!-- 0.00 -->
      <g transform="translate(252.417904 88.037999)scale(0.08 -0.08)">
       <use xlink:href="#DejaVuSans-48"/>
       <use x="63.623047" xlink:href="#DejaVuSans-46"/>
       <use x="95.410156" xlink:href="#DejaVuSans-48"/>
       <use x="159.033203" xlink:href="#DejaVuSans-48"/>
      </g>
     </g>
    </g>
    <g id="ytick_16">
     <g id="line2d_126">
      <g>
       <use style="stroke:#000000;stroke-width:0.8;" x="277.230404" xlink:href="#mee88c2f0f6" y="52.727214"/>
      </g>
     </g>
     <g id="text_34">
      <!-- 0.05 -->
      <g transform="translate(252.417904 55.766589)scale(0.08 -0.08)">
       <use xlink:href="#DejaVuSans-48"/>
       <use x="63.623047" xlink:href="#DejaVuSans-46"/>
       <use x="95.410156" xlink:href="#DejaVuSans-48"/>
       <use x="159.033203" xlink:href="#DejaVuSans-53"/>
      </g>
     </g>
    </g>
    <g id="text_35">
     <!-- -Im(Z) -->
     <g transform="translate(240.050404 115.958578)rotate(-90)scale(0.08 -0.08)">
      <use xlink:href="#DejaVuSans-45"/>
      <use x="36.083984" xlink:href="#DejaVuSans-73"/>
      <use x="65.576172" xlink:href="#DejaVuSans-109"/>
      <use x="162.988281" xlink:href="#DejaVuSans-40"/>
      <use x="202.001953" xlink:href="#DejaVuSans-90"/>
      <use x="270.507812" xlink:href="#DejaVuSans-41"/>
     </g>
    </g>
   </g>
   <g id="line2d_127">
    <path clip-path="url(#pa59a810340)" d="M 385.812633 82.805199 
L 385.575637 79.786019 
L 385.139643 76.751509 
L 384.422568 73.406877 
L 383.589902 70.502539 
L 382.670457 67.904747 
L 381.392722 64.912421 
L 379.629851 61.511816 
L 378.107401 59.024945 
L 376.243296 56.380925 
L 373.976732 53.610885 
L 371.244121 50.763523 
L 367.983255 47.908821 
L 366.137136 46.507158 
L 364.139468 45.140967 
L 361.985944 43.825992 
L 359.673853 42.579474 
L 357.202399 41.420001 
L 354.573025 40.367283 
L 351.789707 39.441857 
L 348.859202 38.6647 
L 345.791236 38.056793 
L 342.5986 37.638609 
L 339.297142 37.429575 
L 335.90565 37.447517 
L 332.445599 37.708124 
L 328.940793 38.224462 
L 325.416892 39.006564 
L 321.900854 40.061134 
L 318.420323 41.391374 
L 315.002997 42.996955 
L 311.676009 44.874123 
L 308.465364 47.015941 
L 305.395454 49.412639 
L 302.488681 52.052044 
L 299.7652 54.920069 
L 297.242787 58.001215 
L 294.936824 61.279059 
L 292.860395 64.736705 
L 291.024467 68.35717 
L 289.438144 72.123687 
L 288.108956 76.019932 
L 287.043179 80.030143 
L 286.246145 84.139168 
L 285.722537 88.332421 
L 285.476645 92.595767 
L 285.512576 96.915348 
L 285.834397 101.277362 
L 286.446218 105.667805 
L 287.352194 110.072198 
L 288.556457 114.47531 
L 290.062964 118.860887 
L 291.875269 123.211422 
L 293.996224 127.507963 
L 296.427616 131.729984 
L 299.169745 135.855344 
L 302.220971 139.860341 
L 305.577237 143.719871 
L 309.231603 147.407718 
L 313.173822 150.89696 
L 317.389977 154.1605 
L 321.862233 157.171706 
L 326.568712 159.905137 
L 331.48354 162.337325 
L 336.577068 164.447566 
L 341.816279 166.218688 
L 347.165378 167.637729 
L 352.586541 168.696492 
L 358.04078 169.39193 
L 363.488899 169.726331 
L 368.892462 169.707291 
L 374.214736 169.347476 
L 379.421553 168.664185 
L 384.482039 167.678753 
L 389.369183 166.415823 
L 394.060229 164.902549 
L 398.536881 163.167764 
L 402.785331 161.241167 
L 406.796128 159.152567 
L 410.563916 156.9312 
L 414.087074 154.605167 
L 417.367282 152.200967 
L 420.409051 149.743165 
L 423.219239 147.254152 
L 425.806579 144.754018 
L 428.18123 142.260508 
L 430.354374 139.789047 
L 434.143837 134.962918 
L 437.272309 130.35676 
L 439.835416 126.023199 
L 441.922221 121.992015 
L 443.612593 118.275563 
L 445.554446 113.287807 
L 446.951669 108.970522 
L 448.216942 104.154777 
L 449.172475 99.420202 
L 449.788064 95.225785 
L 450.211487 90.746731 
L 450.396666 86.277141 
L 450.401484 85.9022 
L 450.401484 85.9022 
" style="fill:none;stroke:#0370b8;stroke-linecap:square;"/>
   </g>
   <g id="line2d_128">
    <path clip-path="url(#pa59a810340)" d="M 285.722537 88.332421 
L 285.476645 92.595767 
L 285.512576 96.915348 
L 285.834397 101.277362 
L 286.446218 105.667805 
L 287.352194 110.072198 
L 288.556457 114.47531 
L 290.062964 118.860887 
L 291.875269 123.211422 
L 293.996224 127.507963 
L 296.427616 131.729984 
L 299.169745 135.855344 
L 302.220971 139.860341 
L 305.577237 143.719871 
L 309.231603 147.407718 
L 313.173822 150.89696 
L 317.389977 154.1605 
L 321.862233 157.171706 
L 326.568712 159.905137 
L 331.48354 162.337325 
L 336.577068 164.447566 
L 341.816279 166.218688 
L 347.165378 167.637729 
L 352.586541 168.696492 
L 358.04078 169.39193 
L 363.488899 169.726331 
L 368.892462 169.707291 
L 374.214736 169.347476 
L 379.421553 168.664185 
L 384.482039 167.678753 
L 389.369183 166.415823 
L 394.060229 164.902549 
L 398.536881 163.167764 
L 402.785331 161.241167 
L 406.796128 159.152567 
L 410.563916 156.9312 
L 414.087074 154.605167 
L 417.367282 152.200967 
L 420.409051 149.743165 
L 423.219239 147.254152 
L 425.806579 144.754018 
L 428.18123 142.260508 
L 430.354374 139.789047 
L 434.143837 134.962918 
L 437.272309 130.35676 
L 439.835416 126.023199 
L 441.922221 121.992015 
L 443.612593 118.275563 
L 445.554446 113.287807 
L 446.951669 108.970522 
L 448.216942 104.154777 
L 449.172475 99.420202 
L 449.788064 95.225785 
L 450.211487 90.746731 
L 450.396666 86.277141 
L 450.401484 85.9022 
L 450.401484 85.9022 
" style="fill:none;stroke:#d56339;stroke-linecap:square;stroke-width:1.1;"/>
   </g>
   <g id="line2d_129">
    <path clip-path="url(#pa59a810340)" d="M 385.812633 82.805199 
L 385.575637 79.786019 
L 385.139643 76.751509 
L 384.422568 73.406877 
L 383.589902 70.502539 
L 382.670457 67.904747 
L 381.392722 64.912421 
L 379.629851 61.511816 
L 378.107401 59.024945 
L 376.243296 56.380925 
L 373.976732 53.610885 
L 371.244121 50.763523 
L 367.983255 47.908821 
L 366.137136 46.507158 
L 364.139468 45.140967 
L 361.985944 43.825992 
L 359.673853 42.579474 
L 357.202399 41.420001 
L 354.573025 40.367283 
L 351.789707 39.441857 
L 348.859202 38.6647 
L 345.791236 38.056793 
L 342.5986 37.638609 
L 339.297142 37.429575 
L 335.90565 37.447517 
L 332.445599 37.708124 
L 328.940793 38.224462 
L 325.416892 39.006564 
L 321.900854 40.061134 
L 318.420323 41.391374 
L 315.002997 42.996955 
L 311.676009 44.874123 
L 308.465364 47.015941 
L 305.395454 49.412639 
L 302.488681 52.052044 
L 299.7652 54.920069 
L 297.242787 58.001215 
L 294.936824 61.279059 
L 292.860395 64.736705 
L 291.024467 68.35717 
L 289.438144 72.123687 
L 288.108956 76.019932 
L 287.043179 80.030143 
L 286.246145 84.139168 
L 286.246145 84.139168 
" style="fill:none;stroke:#eeb92e;stroke-linecap:square;stroke-width:1.1;"/>
   </g>
   <g id="patch_14">
    <path d="M 277.230404 176.341168 
L 277.230404 30.814737 
" style="fill:none;stroke:#000000;stroke-linecap:square;stroke-linejoin:miter;stroke-width:0.8;"/>
   </g>
   <g id="patch_15">
    <path d="M 458.647726 176.341168 
L 458.647726 30.814737 
" style="fill:none;stroke:#000000;stroke-linecap:square;stroke-linejoin:miter;stroke-width:0.8;"/>
   </g>
   <g id="patch_16">
    <path d="M 277.230404 176.341168 
L 458.647726 176.341168 
" style="fill:none;stroke:#000000;stroke-linecap:square;stroke-linejoin:miter;stroke-width:0.8;"/>
   </g>
   <g id="patch_17">
    <path d="M 277.230404 30.814737 
L 458.647726 30.814737 
" style="fill:none;stroke:#000000;stroke-linecap:square;stroke-linejoin:miter;stroke-width:0.8;"/>
   </g>
  </g>
 </g>
 <defs>
  <clipPath id="pce7f484a10">
   <rect height="96.377953" width="181.417323" x="50.45875" y="7.2"/>
  </clipPath>
  <clipPath id="p69c479ad11">
   <rect height="96.377953" width="181.417323" x="50.45875" y="103.577953"/>
  </clipPath>
  <clipPath id="pa59a810340">
   <rect height="145.526431" width="181.417323" x="277.230404" y="30.814737"/>
  </clipPath>
 </defs>
</svg>
